/* XPM */
static char *back[] = {
/* columns rows colors chars-per-pixel */
"70 70 57 1 ",
"  c #211F20",
". c #252324",
"X c #282627",
"o c #272429",
"O c #292729",
"+ c #2C2A2C",
"@ c #2E2C32",
"# c #312E33",
"$ c #343236",
"% c #363439",
"& c #38363B",
"* c #3B393E",
"= c #3E3C42",
"- c #403E45",
"; c #424146",
": c #45444A",
"> c #48474E",
", c #4A484F",
"< c #494750",
"1 c #4C4B53",
"2 c #4F4F58",
"3 c #504F56",
"4 c #504F58",
"5 c #515057",
"6 c #54535B",
"7 c #58575E",
"8 c #59585F",
"9 c #575760",
"0 c #595760",
"q c #5C5B63",
"w c #5F5F68",
"e c #605F66",
"r c #605F68",
"t c #616067",
"y c #64636B",
"u c #68676E",
"i c #6A696F",
"p c #676770",
"a c #686770",
"s c #6B6B74",
"d c #6F6F78",
"f c #706F77",
"g c #73737C",
"h c #78777F",
"j c #777780",
"k c #787780",
"l c #7B7B84",
"z c #7E7E88",
"x c #807F87",
"c c #817F88",
"v c #84838B",
"b c #88868F",
"n c #868690",
"m c #8A8790",
"M c #8C8A92",
"N c #908E96",
"B c #929199",
/* pixels */
"bvvmNMbvxvxlhhhhhgdspsiiyyusdspsppyyr9979wqyyq666::::===:-==:========o",
"bmMMMmvvvvvvxhhhlgdssspuuyypdsppsyrrq898qwqewe7971::-===::==::===@=oo=",
"mMBBMbvvvvvvvhhhjgdsddiuiyyuspyyyrre98reeee9qwqq822,-==-:::=;:;:=o@@@o",
"vMBNNMmMmmmvxhxhggdsiippyyypypreeeqq99q9qqq99ywq8772-==-:::=======@@==",
"mMMBmmMMmmmvlhxhjhgssppssyrprrq999e9766961669wrwqq04:;-:<<<<::=$=o@@@@",
"mvvmbmNmvvvlhhxvlggdspssspyyyree99q976221156qqwqqq64>11<<<<2<==$@o@@@o",
"vlvvvbMmvvhgghhxhgjgspssppppwqew999q992156469977806414312<:<:==%@@@@@@",
"lvvvvbMbvvvxhhhhjgjggdssdpyye98999qq96211456qq7768846334<222<=%==@@@==",
"vvvvvbMMmvvvhlxllggggddssspyw9q9qry8221111269966600096662221:===$#@=#=",
"vhvbvbMNmvvlxvvvljgddgddidiwqqww8er2111111222216000009992211=====$@#==",
"vvxvvbMMmbvvcvvvvzgsdjjgdsutwyyw977112111166221204909629222<=====@@===",
"vvvbbMNNMbvxxvmnvzdpsgggsipyyyy9wt612611277662:104992222:22:===#@@o%==",
"xxvvbMMNMnncvnMnvlspsgggfddsssy9re2667768q8662><-9669222-12-===@@@$===",
"xvvxvbmbMnnMMMnnvgssgggghjhhgdyq987967qqe986222>-w629222-=-<<=@@@$====",
"xvvvvbmnbvnMMnnnzgdddghllllhgsyweq9979req96112:--02-922---=====@@@$===",
"vvvvMMMbvvMMncnclgddsglzhllgsytte9reqeyryy711:;---2---<---==#===&&&%&=",
"bvvvmmmbvvNMxlzzkgdddglzjjjdpqqqe00eeeeeaa04---------<<<--&$@&--==*#$&",
"bvxbbvxbvvMbxhgkkgdggghljjjsywqtee0ee0eerr0-09-------2<------==-=*$###",
"Mbxxxxxvvbnncllzclgddgdgjddpyyyq00696446009292-------22----=-&%-*#++$&",
"Mbvxxxlxvnvccvlzncljggsdjjjsyppqe06004141999222-------<---==-=%&#+X+$=",
"bbbxlhhlznvxzvgkznvlggddjjjdsdsyre00ee1-14664442--=-----&==---&@X.X+**",
"Mmbxhgggzvxvnzkkzzzjggdsdjjjljgddp00rre1-966440----===--%%=-=%@-#X+***",
"Bmvlhgfijzzzljdgjzzzjgssjddjzljjsywrrre631644464---====-&&&--&%-$+*;;;",
"BMxhhgiidljjjjsdgzzljsssdsdjlzlgspwpree644440-14<<<-==---=%===&-%+*;*;",
"Bblhgggsggfllgspdzjjdsdsypdjljgsjdppprr62414114-<2<--=-<<=%==---******",
"Nmvlgghhhgghjdddgzjggsspysddggdpddsdspw6961-1--4<22<<-<---==&&--:;*%%*",
"bvxhhhlzlkghgdggjzjjjgspyysssdspddssdpw69922--4-2<22<<<=-===&&--;;;**;",
"vxxhkllvvlhgddgjjljjjgsywwwpssdsddpppp0604--41-02222<<-=-<------;*;*;:",
"vxxvlhhvnvzkgdgkjjhggpyywwwypsssfarrpw2496--<2292922<<==<--<--=-*;;:;*",
"vxxvxhlvnvzkdsjkjgggsywtwwqqyyppsarew04469622299222<<----<<<--=-;;;:,;",
"vxhhhllvnvzgsskjggdsiytq9qq8qwyypyre06646662229922<<<<<=-<<2<---;;;:5,",
"xhhhghxxvvzdsgdgggssippt2996qyyyrerrrww02209299922==<<-<=-<<----:;;,5,",
"xlghhlxvzlgsppsdjkgfispq8966wppyrrqwqrw655666qwq61::::>;=::::;--;,85**",
"llhlhllxlgfiyppdkzzkfsrqeq77rppwerw000q412678qqq752:-1>-=-;:==-:;,5,,;",
"lllllhgggdiiypdgkzzkgpypwe76ypy96000999<>268qw8888511,:-;:;;-=:>5,;,55",
"lllhlgsisitypshjklggdssdsw77eww249004461::667868q61,,:;-;:,>>:;>,;,555",
"xhhhgfiiiiyiypgjlzgdspiipe76wwq226q66681,,577635q5,::;-;;:>,>:;,:,5555",
"lgfgsiiiiisipyshkkgsiiyr9967rw9226766881,,5765,55,::;;-;;=;:-*;>555555",
"gfifiiiiiiisiigggdspyipwq999y9211264236>:,,3555,::,:;=-;;***%*;,,,,885",
"fsisiiuisiiisdggdssprtrwwqqeq2222241111:;,2355,:>::,;;;:=***&->,,,,,5,",
"fiyiytiisfiisddfdsprrqqrrrte8612122<111:::1111:;;-;:;;;;***&*-:,,,,5,,",
"syttttriffiipiiispreqqqrytre911,>111>121:;::,>;-**=;;;=***&$&*;,::555:",
"ytttqttssiityyrppye9qtrtryyr922:::<<::2>:;=::=::;***;*=-***$$*;,,,55;;",
"tttitttsstettypreq878rtypiiyq62>:>11>111:;=::;:>;-===;;=**&$**->,,,:;*",
"ttrrtttsiyqtripe88677erppyyr8551>12,12,31:;::;::;--**;;**=***-=>,>>;**",
"trtqqtiiiitqrpr822226euytrq88621<:111,31:::::;;;--**-*-;-;>;;;;>;;;;**",
"irqtqysiyyrqerr8222626qrqqq885551>1122331:1,>;::-==**-;:>,>;;;;;;;;;**",
"yrqetruiypiwee872522278888q82255111331221:>1>;:;==**--;:11>;=-:;;;;;**",
"8qqqrrrrisiyr8751222777578q5111555555511,:;:>;;*****=;;>55:***;::;;***",
"8qqqqqtepiyyt821112662266qe8655558855511,;;;;;>;*;***=;>>:;&%*;,:;;**$",
"887688qwyuyrq883:>1666115688651558888555,>:;;;:;-=-**;;>::;**-;,>;*%$*",
"886627qtyyyeqe85,:116115532851,158tt8855,,,>;;:;-=*=;==;;;;*-;:::;**%*",
"7775289errqert8871>1511566885,,158tt85,,>:,,;:,:=;******;;****;;;*;*%$",
"5225668qrryrrt689611111156885555558tt85,:;>::;;*;;;*=;=;;;*****;;;;*%*",
"111366698qrwe919w71,1,111688855556ttt5,,>;;;;;;**-;;;;==;***&**;;;;%%*",
">>>16668679q9919961,,,1112658555558tt5,,:;;;;,;;**=;;;**;***%%*;;**$%*",
">11112257776672661,,>;:1555555555558,:,;;,:;;,,:;***;;;***%**%%*%%*%$%",
":>>111166677667661,,:=:,15555555,,51:;:,,,,>,,>:;*;;***$%%***$+#%%%$$+",
">>>>>1566522669751,::=;1,1558855:;,5,;:55,,,55;;;*;;*$$$%**%*$+X$*$$$+",
"111,>1551112666651:;==:1,1585885,;:55,,,5,555,:;;;;**$**;*$X+%*++$$$$$",
"621>176,>,:52251,:;;;;;>,15qt85,1,,55,;;>,55,5,;;*;;;****;*XX$%$+$$&%$",
"9111126>>>>,11>>:;;;;;;>,558881:,,,5,;;;:55,55;;,;:,:;;****XX+**$$$%%$",
"62121121,,,>;>;:;;=;;;>1,8811,,:;;,,;;;;,55,,:*;5>,,:*****$XX+***&%%$$",
"66665121,,1,;;;;=;;;;111,8855,::;;;,;*&:,5555;;;;:,;*:,***$XX+$*%%&++X",
"6672112;,511>,:::;;;:21::222>:;;=;:,:=$=,,221:;;;:,:**==*&+X+$$*%$+XXX",
"6782115;:111111,,,::>1:-;,1,;;;===;::=$*;,,211;:13,;*&***%$++$$%%+X..X",
"698251;,;;;1,,,1,5112:;;;,1>;;;;&$&=;*@$=::,13::15:;***;;*$$+X+$++XXXX",
"66775,>:-=;;:,,,1251:==;:,,,;;::=$%===$*=;=,21:::,;**%***$$&+XX++XX..X",
"3356>;;=**=;;>>>>111;-=;;;;;**==&$$&&=&&===:<<::;****%%*%$+$XXXXXX. .X",
",,,,;**%*=*-;;;;:,,>;=;;=***$$$$@@$$&&&$%===:2::;%%**$%**#XX  XXX.  .X"
};
