/* XPM */
static char *df99cf1c2de4466290d69dca9590e2a4Af7uPJcpQf6p7esF[] = {
/* columns rows colors chars-per-pixel */
"50 50 44 1 ",
"  c None",
". c black",
"X c #010101",
"o c #040301",
"O c gray2",
"+ c #060606",
"@ c #0A0601",
"# c #0C0904",
"$ c gray4",
"% c #0B0B0B",
"& c gray6",
"* c #101010",
"= c #111111",
"- c #131313",
"; c #151515",
": c #181818",
"> c gray10",
", c #1D1D1D",
"< c #423314",
"1 c #4D3B17",
"2 c #BB6612",
"3 c #BB6613",
"4 c #D97715",
"5 c #D97716",
"6 c #DBA742",
"7 c #DBA842",
"8 c #FEC24D",
"9 c #FFC24D",
"0 c #FEC34D",
"q c #FFC34D",
"w c #818181",
"e c #888888",
"r c gray60",
"t c #9F9F9F",
"y c #A4A4A4",
"u c #A7A7A7",
"i c gray66",
"p c #AAAAAA",
"a c gray68",
"s c gray69",
"d c #B7B7B7",
"f c gray93",
"g c #F6F6F6",
"h c #FEFEFE",
/* pixels */
"                   dapuaapytrewf                  ",
"                   ,XXXXXXXXXXXf                  ",
"                   ,XXXXXXXXXXXh                  ",
"                   ,XX<11111XXXh                  ",
"                   ,XX700000#XXh                  ",
"                   :XX700000#XXh                  ",
"                   :XX609000#XXh                  ",
"                   :XX609900#XXf                  ",
"                   ;XX609000#XXf                  ",
"                   ;XX700000#XXf                  ",
"                   ;XX609099#XXf                  ",
"                   *XX700000#XXf                  ",
"                   *XX600000#XXh                  ",
"                   ;XX700000#XXh                  ",
"                   *XX600000#XXh                  ",
"                   *XX600000#XXh                  ",
"                   &XX600000#XXh                  ",
"                   %XX700000#XXg                  ",
"                   %XX600000#XXf                  ",
"                   %XX600000#XXf                  ",
"                   OXX600000#XXf                  ",
"                   OXX600000#XXf                  ",
"                   OXX244444@XXg                  ",
"                   XXX245444@XXh                  ",
"                   XXX354545@XXh                  ",
"                   XXX245545@XXh                  ",
"                   XXX245555@XXh                  ",
"                    XX345545@XXh                  ",
"                    XX245554@XXf                  ",
"                    XX245554@XXf                  ",
"                    XX355544@XXf                  ",
"                    XX255544@XXf                  ",
"                    XX244555@XXf                  ",
"                    XX244455@XXh                  ",
"                    XX244554@XXh                  ",
"                    XX245555@XXh                  ",
"                    XX355555@XXh                  ",
"                    XX254445@XXh                  ",
"                    XX244545@XXf                  ",
"                    XX345544@XXf                  ",
"                    XX245554@XXf                  ",
"                    XX244544@XXf                  ",
"                    XX245544@XX                   ",
"                    XX245444@XX                   ",
"                    XX244445@XX                   ",
"                    XX345555@XX                   ",
"                    XX244455@XX                   ",
"                    XXXXXXXXXXX                   ",
"                    XXXXXXXXXXX                   ",
"                    XXXXXXXXXXX                   "
};
