/* XPM */
static char *_aa3124df18c47d4a0b915d2d3307ad57ZDFNHPAzd5XBwEh[] = {
/* columns rows colors chars-per-pixel */
"50 50 149 2 ",
"   c None",
".  c black",
"X  c #010101",
"o  c gray1",
"O  c #040200",
"+  c #040301",
"@  c #050402",
"#  c #040404",
"$  c gray2",
"%  c #060606",
"&  c #070707",
"*  c gray3",
"=  c #090909",
"-  c gray4",
";  c #0B0B0B",
":  c #0F0D0B",
">  c #0C0C0C",
",  c gray5",
"<  c gray6",
"1  c #101010",
"2  c #111111",
"3  c gray7",
"4  c #131313",
"5  c gray8",
"6  c #161616",
"7  c #191919",
"8  c #1B1B1B",
"9  c #1D1D1D",
"0  c #1E1E1E",
"q  c gray12",
"w  c #202020",
"e  c gray13",
"r  c #222222",
"t  c #252525",
"y  c #272727",
"u  c #2A2927",
"i  c #2C2C2C",
"p  c gray19",
"a  c #313131",
"s  c #343434",
"d  c gray21",
"f  c gray22",
"g  c #393939",
"h  c #765A23",
"j  c #765B23",
"k  c #7B5E26",
"l  c #765E2F",
"z  c #484848",
"x  c #535353",
"c  c gray33",
"v  c #585858",
"b  c #717171",
"n  c #8F4E0E",
"m  c #914F0F",
"M  c #8D5014",
"N  c #9A5410",
"B  c #B66312",
"V  c #B66412",
"C  c #B86916",
"Z  c #8C723F",
"A  c #997632",
"S  c #C36B14",
"D  c #D97715",
"F  c #D97716",
"G  c #DC7D1B",
"H  c #A78033",
"J  c #A88133",
"K  c #A98133",
"L  c #A88134",
"P  c #A98134",
"I  c #AB8436",
"U  c #B58A37",
"Y  c #B58B37",
"T  c #DF831F",
"R  c #CA9B3D",
"E  c #CB9B3D",
"W  c #D59230",
"Q  c #D09F3F",
"!  c #E18721",
"~  c #E18722",
"^  c #E28822",
"/  c #E28923",
"(  c #E69028",
")  c #E69128",
"_  c #E9962D",
"`  c #E9972D",
"'  c #E9962E",
"]  c #EA982E",
"[  c #EB9A2F",
"{  c #EB9A30",
"}  c #EC9C31",
"|  c #D4A13F",
" . c #EDA033",
".. c #EDA034",
"X. c #EFA336",
"o. c #EFA436",
"O. c #F1A638",
"+. c #F2AA3B",
"@. c #F2AA3C",
"#. c #D4A240",
"$. c #D5A340",
"%. c #E2AD44",
"&. c #F2AC42",
"*. c #F6B140",
"=. c #F0B748",
"-. c #E9A657",
";. c #E8A65B",
":. c #F2B558",
">. c #E8AA61",
",. c #F7BF63",
"<. c #EDBA78",
"1. c #EEBA78",
"2. c #EFBD7A",
"3. c #FEC14C",
"4. c #FFC24D",
"5. c #FEC34D",
"6. c #FFC34D",
"7. c #FEC44F",
"8. c #FFC44F",
"9. c #FFC758",
"0. c #FFCC66",
"q. c #FFCF6D",
"w. c #FFD172",
"e. c #FFD378",
"r. c #FFD478",
"t. c #EFC081",
"y. c #F2C583",
"u. c #F3C786",
"i. c #F5CD8A",
"p. c #F2C98D",
"a. c #F2CA8F",
"s. c #F9D088",
"d. c #FFD988",
"f. c #F2CA90",
"g. c #F4CF97",
"h. c #FEDC91",
"j. c #FFDD91",
"k. c #FFDD92",
"l. c #FFDF98",
"z. c #FFDF99",
"x. c #FFE19C",
"c. c #FFE3A2",
"v. c #FFE6AA",
"b. c #FFEAB5",
"n. c #FFECB9",
"m. c #FFF0C5",
"M. c #FFF2C9",
"N. c #FFF3CB",
"B. c #FFF3CC",
/* pixels */
"                                      f p p s s s s s p p p p b                                     ",
"                                      . . . . . . . . . . . . c                                     ",
"                                      # . . . . . . . . . . . v                                     ",
"                                y 7 7 A K K K K L L L K K K L Z s i z                               ",
"                                > . . E 8.8.6.6.6.6.6.6.6.6.6.H . . r                               ",
"                                > . . E 6.6.6.6.6.6.6.6.6.6.6.H . . 0                               ",
"                                ; . . E 6.6.O.] ] *.6.6.6.6.6.H . . 0                               ",
"                                # . . E 6.6.( D D X.6.6.6.6.6.H . . r                               ",
"                                . . . R 6.6.) F D o.6.6.6.6.6.H . . 0                               ",
"                          c f r k j j W } X.} ] { ,.d.d.q.6.6.Q j j l s r                           ",
"                          > . . %.6.6.! F F +.6.6.z.B.B.j.6.6.6.6.6.$.. . >                         ",
"                          > . . %.6.8./ F F @.6.6.z.B.B.j.6.6.6.6.6.$.. . 3                         ",
"                          ; . . %.6.6.! F F :.e.r.v.B.B.j.6.6.6.6.6.$.. . 3                         ",
"                          ; . . %.6.6.! F F f.B.B.B.B.B.j.6.6.6.6.6.$.. . >                         ",
"                          ; . . %.6.6.! D F f.B.B.B.B.B.j.6.6.6.6.6.$.. . >                         ",
"                          ; . . %.6.6.! D D y.n.n.m.B.B.j.6.6.6.6.6.$.. . 3                         ",
"                          ; . . %.6.6.! F F @.6.6.z.B.B.j.6.6.6.6.6.$.. . 3                         ",
"                          ; . . %.6.6.! F F @.6.6.z.B.B.j.6.6.6.6.6.$.. . 3                         ",
"                          ; . . %.6.6.! F F @.8.8.z.B.B.j.6.6.6.6.6.$.. . 3                         ",
"                          ; . . %.6.6.~ F D p.B.B.B.B.B.j.6.6.6.6.6.$.. . 3                         ",
"                          ; . . %.6.6.~ F F f.B.B.B.B.B.j.6.6.6.6.6.$.. . 3                         ",
"                          ; . . %.6.6.~ F F p.N.N.B.B.B.j.6.3.3.6.6.| . . 3                         ",
"                          ; . . %.6.6.~ F F &.9.9.z.B.B.2.G G G G G C . . 3                         ",
"                          ; . . %.6.6.~ F F @.6.6.z.B.B.<.D D D D D B . . 3                         ",
"                          ; . . %.6.6.~ D D @.6.6.z.B.B.<.D D D F F B . . 3                         ",
"                          # . . %.6.6.~ D D +.6.6.z.B.B.<.D F F F F V . . 3                         ",
"                          # . . %.6.6.~ F F @.6.6.l.N.B.<.F F F F F B . . 3                         ",
"                          ; . . %.6.6.~ F F @.6.6.l.B.B.<.F F F F F B . . 3                         ",
"                          * . . %.6.6.~ F F T ~ / u.B.B.<.F F F F F B . . 5                         ",
"                          * . . %.6.6.~ F F F F F t.B.B.<.F F F F F V . . 3                         ",
"                          * . . %.6.6.~ F F F F F t.B.B.<.F F F D F B . . 3                         ",
"                          * . . %.6.6.! F F F F F t.B.B.<.F F F D D B . . 5                         ",
"                          ; . . %.6.6.~ D D F F F t.B.B.<.F F F F F B . . 4                         ",
"                          # . . %.6.6.~ D D F F F t.B.B.<.F F F F F B . . 3                         ",
"                          # . . %.6.6.~ D F F F F t.B.B.<.F F F F F B . . 3                         ",
"                          # . . %.6.6.~ F F F F F t.B.B.<.F F F F F B . . 3                         ",
"                          # . . %.6.6.~ F F D D F t.B.B.<.D F F F F B . . 4                         ",
"                          # . . %.6.6.X.] _ _ _ ' i.B.B.<.D F F F F B . . 3                         ",
"                          # . . %.6.6.6.6.6.6.6.6.z.B.B.<.F F F F F B . . 4                         ",
"                          ; . . %.6.6.6.6.6.6.6.6.z.B.B.<.D F F F F B . . 4                         ",
"                                I Y Y =.8.8.0.w.w.s.g.g.;.F F S N N M 5 4 y                         ",
"                                > . . E 6.6.c.B.B.>.F F F F F n . . 5                               ",
"                                > . . R 6.6.c.B.B.>.F F F F F n . . 7                               ",
"                                > . . E 6.6.j.b.b.;.F F F F F n . . 8                               ",
"                                > . . E 6.6.8.8.8._ D D F F F n . . 0                               ",
"                                > . . E 6.6.6.6.6._ F D F D F n . . r                               ",
"                                > . . $.6.6.6.6.6._ F F D D D m . . r                               ",
"                                      > @ @ @ @ # O O O O O O u                                     ",
"                                      # . . . . . . . . . . . y                                     ",
"                                      . . . . . . . . . . . . y                                     "
};
