/* XPM */
static char *_6fefe05fce24546a5e39c85937eea6bCWKOX6Xd68hvuT5S[] = {
/* columns rows colors chars-per-pixel */
"50 50 162 2 ",
"   c None",
".  c black",
"X  c #020202",
"o  c gray1",
"O  c #0C0C0C",
"+  c #101010",
"@  c gray8",
"#  c gray9",
"$  c #191919",
"%  c #241B0B",
"&  c #3B2D12",
"*  c gray13",
"=  c #282828",
"-  c gray22",
";  c #3F3F3F",
":  c #4D3B17",
">  c #54401A",
",  c #59441B",
"<  c #634F26",
"1  c #625337",
"2  c #69593A",
"3  c #414141",
"4  c #434343",
"5  c gray29",
"6  c #4C4C4C",
"7  c #535353",
"8  c #585858",
"9  c #5F5F5F",
"0  c #686868",
"q  c gray47",
"w  c gray48",
"e  c #A37D31",
"r  c #A47D31",
"t  c #D97615",
"y  c #D97715",
"u  c #D97616",
"i  c #D87716",
"p  c #D97716",
"a  c #D97717",
"s  c #D97817",
"d  c #DA7917",
"f  c #DA7918",
"g  c #DA7A18",
"h  c #DB7B19",
"j  c #DC7E1B",
"k  c #DD7E1B",
"l  c #B08735",
"z  c #BB8F39",
"x  c #C98D31",
"c  c #E18822",
"v  c #E18922",
"b  c #E28822",
"n  c #E28923",
"m  c #E38B24",
"M  c #E38C25",
"N  c #E48E27",
"B  c #E58F27",
"V  c #E8972D",
"C  c #E9972D",
"Z  c #ED9F33",
"A  c #EDA033",
"S  c #EFA437",
"D  c #F0A739",
"F  c #F1A839",
"G  c #F2A839",
"H  c #F1A83A",
"J  c #F2A83A",
"K  c #F4AE3E",
"L  c #F5AE3E",
"P  c #F4AF3E",
"I  c #E4AE45",
"U  c #E8B146",
"Y  c #F6B140",
"T  c #F7B442",
"R  c #F7B443",
"E  c #F7B543",
"W  c #F8B442",
"Q  c #F8B443",
"!  c #F8B543",
"~  c #F8B644",
"^  c #FBBB47",
"/  c #FBBD49",
"(  c #FCBE4A",
")  c #FDBE4A",
"_  c #FCBF4A",
"`  c #FDBF4A",
"'  c #FBC04C",
"]  c #FCC04C",
"[  c #FEC24C",
"{  c #FFC24C",
"}  c #FFC34C",
"|  c #FEC24D",
" . c #FFC24D",
".. c #FEC34D",
"X. c #FFC34D",
"o. c #FFC34E",
"O. c #FFC34F",
"+. c #FFC44F",
"@. c #FFC451",
"#. c #FFC551",
"$. c #FFC759",
"%. c #FEC95C",
"&. c #FEC95E",
"*. c #FFC95E",
"=. c #FEC95F",
"-. c #FFC95F",
";. c #FCC864",
":. c #FFCB64",
">. c #FFCC65",
",. c #F9C66B",
"<. c #FFCD68",
"1. c #FFCE6A",
"2. c #FECE6B",
"3. c #FFCE6B",
"4. c #FFCF6F",
"5. c #FED06F",
"6. c #FFD174",
"7. c #FED175",
"8. c #FED275",
"9. c #FFD47A",
"0. c #FED47B",
"q. c #FFD47B",
"w. c #FFD57E",
"e. c #FFD67F",
"r. c #838383",
"t. c #848484",
"y. c #AEAEAE",
"u. c #FED782",
"i. c #FFD782",
"p. c #FFD783",
"a. c #FEDB8C",
"s. c #FEDD90",
"d. c #FFDD90",
"f. c #FEDD91",
"g. c #FFDD91",
"h. c #FFDD93",
"j. c #FEDE96",
"k. c #FFE19B",
"l. c #FEE29E",
"z. c #FFE29E",
"x. c #FFE3A2",
"c. c #FEE4A4",
"v. c #FEE6AA",
"b. c #FFE6AA",
"n. c #FFE7AD",
"m. c #FFE8AE",
"M. c #FEEAB4",
"N. c #FFEAB4",
"B. c #FFECB9",
"V. c #FEECBA",
"C. c #FFECBA",
"Z. c #FEEFC1",
"A. c #FFEFC1",
"S. c #FEEFC2",
"D. c #FFEFC2",
"F. c #FEF0C4",
"G. c #FFF0C4",
"H. c #FEF0C5",
"J. c #FFF2CA",
"K. c #FFF3CB",
"L. c #FEF3CC",
"P. c #FFF3CC",
/* pixels */
"                              o . . . . . . . . . . . . . . . . . . *                               ",
"                              . . . . . . . . . . . . . . . . . . . =                               ",
"                          9 q > : : : : : : : : : : : : : : : : : : 1 w t.t.t.r.y.                  ",
"                  O . . . . . ' X.X.X.X.X.X.X.X.X.X.X.X.X.X.X.X.X.X.z . . . . . 6                   ",
"                  + . . . . . X.X.X.X.X.X.X.X.X.X.X.{ { X.X.X.X.X.X.z . . . . . -                   ",
"                  < , , , , , D J D J J D D D J H D G G D H H D H H x , , , , , 2 0 0 0             ",
"            . . . I X.X.X.X.X.a a i i a i a a a i i a a a i i i a a M ` X.X.X.` e . . .             ",
"            . . . I X.X.X.X.X.a i i i a i i a a i i a a a i i i a a n X.X.X.X.X.r . . .             ",
"            . . . I X.X.X.X.` a i i i i i i i i i a u u u u i s u u n } X.X.X.X.e . . .             ",
"      . . . X.X.X.X.X.X.h i a X.X.X.X.@.X.X.X.X.} { X.X.X.X.X.X.X.X.K u a N X.X.X.X.X.X.. . .       ",
"      . . . X.X.X.X.X.X.h i i ` X.X.X.` X.X.X.` } } X.X.} } X.X.X.X.P u i N X.X.X.X.X.X.. . .       ",
"      . . . X.X.X.` X.X.h i i X.X.X.X.X.X.X.X.X.} } X.X.@.X.} ' X.X.K u i N X.X.X.X.X.X.. . .       ",
"      . . . X.X.X.j i i ^ @.X.X.X.X.@.P.L.L.L.L.L.L.L.L.X.X.' } } } @.X.' 8.P.P.k.X.X.X.. . .       ",
"      . . . X.X.` j i i ) X.X.X.X.` @.P.L.L.L.L.L.L.L.L.X.X.} } } } X.X.} 8.P.P.x.X.X.X.. . .       ",
"      . . . X.X.@.k i i ) X.X.X.X.X.@.P.L.L.L.L.L.L.L.L.X.X.@.X.X.' X.X.@.7.P.P.k.X.X.X.. . .       ",
". . . X.X.X.i i i ^ X.X.X.X.X.X.X.X.@.P.L.Z.X.X.X.X.X.X.u s s ' X.X.X.X.X.X.' X.0.L.L.P.X.X.X.. . . ",
". . . X.{ { a a i ^ X.X.X.X.X.X.X.X.@.P.P.D.X.X.X.X.X.X.i a i ` X.X.X.X.X.X.X.X.0.P.P.P.X.' X.. . . ",
". . . X.X.{ a a i ^ X.X.X.X.X.X.X.X.@.P.P.Z.X.X.` X.X.X.i i a X.X.X.' X.X.X.X.X.0.P.L.P.X.X.X.. . . ",
". . . X.X.X.t a u ^ X.X.a.f.j.g.f.f.j.P.P.D.X.X.@.X.X.X.Z Z Z f.g.g.0.X.X.@.X.X.0.P.L.P.X.X.X.. . . ",
". . . X.X.X.i i i ^ X.X.D.P.L.L.P.P.P.P.P.D.X.X.X.X.X.X.X.X.X.P.P.P.b.X.X.` ' X.0.L.P.L.X.X.X.. . . ",
". . . X.X.X.i i i ^ ` @.H.L.L.L.P.P.L.L.L.V.X.` X.X.X.X.X.X.X.P.L.L.b.{ X.X.` X.0.P.L.L.' X.X.. . . ",
". . . X.X.X.u i u ^ X.X.D.P.P.u.p.p.p.p.p.p.X.X.X.X.X.X.X.X.X.u.p.p.,.V V S X.X.0.P.P.P.X.X.X.. . . ",
". . . X.X.X.i i i ^ X.X.D.P.P.X.X.X.X.X.X.X.X.X.` X.' X.X.@.X.X.X.X.L i i N X.X.0.P.P.P.X.X.X.. . . ",
". . . X.X.X.i i i ^ X.X.D.P.P.@.X.X.X.X.X.X.X.` X.X.X.X.X.` X.X.X.X.L a a N X.X.0.P.P.P.X.X.X.. . . ",
". . . X.X.X.i i u ^ X.X.D.P.P.X.X.X.X.X.X.X.@.` X.X.X.X.X.' @.X.X.X.L i i N X.X.0.L.P.P.X.X.@.. . . ",
". . . X.X.X.i i i ^ ` X.D.P.P.@.X.X.` X.X.X.X.X.X.X.X.X.X.X.X.X.X.{ K i i N X.` 0.L.P.L.X.X.X.. . . ",
". . . X.X.X.i i i ^ X.X.H.P.P.@.X.X.X.X.X.X.X.X.' X.X.X.X.X.X.X.X.X.L a i B { X.0.P.P.P.X.X.} . . . ",
". . . X.X.X.a a i ^ X.X.H.P.P.@.X.X.@.` X.X.@.` X.X.X.X.X.X.X.' { { L a a B X.X.0.P.L.L.X.X.} . . . ",
". . . X.X.X.i u i ^ ` X.@.` X.a a i a X.X.X.X.X.X.X.X.X.u i i s i i i a i N X.X.0.P.P.P.X.X.' . . . ",
". . . X.X.X.i i i ^ @.X.X.X.X.i a i a X.X.X.X.X.` X.X.X.u u i i i i a a i N X.' 0.P.P.P.X.X.} . . . ",
". . . X.X.X.u i i ^ X.` X.X.X.a i a f X.X.X.' X.X.X.X.X.i i i i i i i i i N X.X.0.P.P.P.X.X.X.. . . ",
". . . X.X.{ a i a ^ X.X.X.X.X.X.X.X.@.P.P.Z.X.X.X.X.X.X.i i i X.X.X.X.X.X.X.X.X.0.P.P.P.X.X.X.. . . ",
". . . X.X.X.a i i ^ X.X.X.X.X.X.X.X.@.P.P.Z.X.X.X.@.X.X.i i i X.X.X.X.X.X.X.X.} 0.L.L.L.X.X.X.. . . ",
". . . X.X.X.i i i ^ X.X.` @.X.X.X.X.@.P.P.D.X.X.X.' X.X.i i i X.X.X.X.X.X.' X.' 0.L.L.L.X.X.X.. . . ",
"t.    & & & Y Y Y M n b ) X.X.X.X.X.@.3.3.;.n n c c c c i s u X.X.X.X.X.X.3.m.m.j.<.3.3.& & &       ",
"      . . . ` X.X.k i i / X.X.X.X.` X.X.X.^ i a i u u u i u u X.X.X.X.` X.8.L.L.x.X.} } . . .       ",
"      . . . X.X.X.k i i ` X.X.X.X.X.X.X.@.^ a a i i i i i i a X.X.X.X.X.X.7.L.L.k.X.X.X.. . .       ",
"      . . . X.X.X.Q Q Q n.N.N.@.X.X.X.X.X.X.R R R Q T T Q Y R X.X.X.<.N.N.k.>.>.=.' X.X.. . .       ",
"      . . . X.X.X.X.X.X.D.P.L.X.X.` X.X.X.X.X.` X.X.X.X.X.X.X.X.X.' 6.P.P.c.' X.} } X.X.. . .       ",
"      . . . X.X.X.X.X.@.D.P.P.X.X.X.X.X.X.X.X.X.X.X.X.X.X.X.X.X.X.X.3.P.P.c.X.X.X.X.X.X.. . .       ",
"            % % % U X.X.;.&.&.B.V.V.V.V.V.V.B.V.V.V.V.V.V.V.V.V.B.B.x.&.;.$.X.X.l % % %             ",
"            . . . I X.X.{ X.X.L.P.P.P.P.P.P.P.P.P.P.P.P.P.P.P.L.P.P.b.X.X.X.X.X.e . . .             ",
"            . . . I X.X.X.X.X.H.P.P.P.P.P.P.P.P.L.P.P.P.P.P.P.P.P.P.b.X.X.` X.X.e . . .             ",
"            . . . I X.X.` X.X.P.P.P.P.P.P.P.P.P.L.P.P.P.P.P.L.P.P.P.b.X.X.X.X.X.r . . .             ",
"                  @ . . . . . X.X.X.X.X.X.X.X.X.X.X.' X.X.X.X.X.X.X.z . . . . . 5                   ",
"                  # . . . . . ( X.X.X.X.X.X.X.X.X.X.X.X.X.X.X.X.` @.z . . . . . 7                   ",
"                  $ . . . . . ' X.X.X.X.X.X.X.X.X.X.X.X.X.X.X.X.X.X.z . . . . . 8                   ",
"                              o . . . . . . . . . . . . . . . . . . ;                               ",
"                              o . . . . . . . . . . . . . . . . . . 3                               ",
"                              o . . . . . . . . . . . . . . . . . . 4                               "
};
