/* XPM */
static char *_c4e72403f3c4964f58d287f34e1e3a2p4YJ186jPHicjqwR[] = {
/* columns rows colors chars-per-pixel */
"44 50 139 2 ",
"   c None",
".  c #010100",
"X  c #090602",
"o  c #090909",
"O  c #151515",
"+  c #1E1B16",
"@  c #1C1C1C",
"#  c #3E2F13",
"$  c #3F3013",
"%  c #242424",
"&  c #2C2926",
"*  c #2B2B2B",
"=  c #323232",
"-  c #3E3E3E",
";  c #532D08",
":  c #5A3209",
">  c #4C3A17",
",  c #44371E",
"<  c #543413",
"1  c #583717",
"2  c #7F460D",
"3  c #67401A",
"4  c #654D1E",
"5  c #594622",
"6  c #6D5422",
"7  c #6F5A2F",
"8  c #735722",
"9  c #755923",
"0  c #795D25",
"q  c #665536",
"w  c #62553C",
"e  c #6C5B3A",
"r  c #444444",
"t  c #535353",
"y  c #5E5D5C",
"u  c #645841",
"i  c #777777",
"p  c #84480D",
"a  c #834F13",
"s  c #A55B11",
"d  c #A85C11",
"f  c #AB671A",
"g  c #A7681C",
"h  c #B26F1F",
"j  c #8C6C2B",
"k  c #946B27",
"l  c #916E2B",
"z  c #95722D",
"x  c #9B762F",
"c  c #816735",
"v  c #9E7930",
"b  c #A8772A",
"n  c #A27C31",
"m  c #D97716",
"M  c #DA7917",
"N  c #DB7B19",
"B  c #C77F24",
"V  c #B8812D",
"C  c #A78033",
"Z  c #A88133",
"A  c #B78530",
"S  c #B38936",
"D  c #DE811D",
"F  c #E0841F",
"G  c #C3872F",
"H  c #DE8E2A",
"J  c #C2953B",
"K  c #E18722",
"L  c #E38C25",
"P  c #E69129",
"I  c #E9972D",
"U  c #EA992F",
"Y  c #E79630",
"T  c #EB9D33",
"R  c #E99D3B",
"E  c #EEA235",
"W  c #F0A537",
"Q  c #F0A538",
"!  c #F3AC3D",
"~  c #F5B03F",
"^  c #DEAA43",
"/  c #E0AB44",
"(  c #F2AF4D",
")  c #F6B241",
"_  c #F9B644",
"`  c #FAB946",
"'  c #F3B34F",
"]  c #F5B94C",
"[  c #FBBE4A",
"{  c #E9AB5F",
"}  c #F3B555",
"|  c #F5BA5C",
" . c #F8BD58",
".. c #DFBC70",
"X. c #E9AD65",
"o. c #FFC34D",
"O. c #FFC451",
"+. c #FDC65C",
"@. c #FFC95D",
"#. c #F9C262",
"$. c #FFCC65",
"%. c #F9C76D",
"&. c #FFCE6A",
"*. c #FFD174",
"=. c #FFD57E",
"-. c #EFC183",
";. c #F1C485",
":. c #FFD782",
">. c #FFD885",
",. c #FFDA8B",
"<. c #F8D490",
"1. c #FFDD94",
"2. c #FFE09A",
"3. c #FEE3A2",
"4. c #FFE7AC",
"5. c #FFE6AB",
"6. c #FEE8AD",
"7. c #FFE8AD",
"8. c #FFE8AF",
"9. c #FFE8AF",
"0. c #FFE9B1",
"q. c #FFE9B1",
"w. c #FEEAB5",
"e. c #FFE9B1",
"r. c #FFECB9",
"t. c #FEECBA",
"y. c #FFECBA",
"u. c #FFEDBC",
"i. c #FFEEBD",
"p. c #FEEFC1",
"a. c #FEF0C4",
"s. c #FFF1C7",
"d. c #FFF1C5",
"f. c #FFF2C9",
"g. c #FEF3CB",
"h. c #FFF3CB",
"j. c #FEF3CC",
"k. c #FFF3CC",
"l. c #FFF2CA",
/* pixels */
"                          = = = = = * = * * * % % % % % % % %                           ",
"                          . . . . . . . . . . . . . . . . . . r                         ",
"                          . . . . . . . . . . . . . . . . . . r                         ",
"                    = - e 0 0 0 0 0 0 0 0 0 0 0 0 0 0 0 0 0 0 q                         ",
"                    . . 9 o.o.o.o.o.o.o.o.o.o.o.o.o.o.o.o.o.o.4 . . t                   ",
"                    . . 9 o.o.o.o.o.o.o.o.o.o.o.o.o.o.o.o.o.o.6 . . t                   ",
"                  5 6 6 b E E E E E E E E E E E E E W E [ o.o.n 6 6 w                   ",
"              . . 6 o.o.E m m m m m m m m m m m m m m m ) o.o.o.o.o.4 . . *             ",
"              . . 6 o.o.E m m m m m m m m m m m m m m m _ o.o.o.o.o.4 . . =             ",
"              > > k ! ! T P L P L L P L P L L L P L L P #.*.*.@.o.o.j > > u i           ",
"        . . Z o.o.E m m U O.o.o.o.o.o.o.o.o.o.o.o.o.o.O.q.j.g.:.o.o.o.o.o.x . . *       ",
"        . . Z o.o.E m m U O.o.O.o.o.o.o.o.o.o.o.o.o.o.O.q.g.g.:.o.o.o.o.o.x . . %       ",
"        . . Z o.o.E m m T o.o.O.&.&.&.&.$.&.o.o.o.o.O.O.q.j.j.:.o.o.o.o.o.x . . %       ",
"        . . Z o.o.E m m U o.o.&.j.j.g.g.g.g.o.o.o.o.o.O.q.j.j.:.o.o.o.o.o.x . . @       ",
"        . . Z o.o.E m m U o.o.&.g.j.g.j.j.g.o.o.o.o.o.O.q.j.j.:.o.o.o.o.o.x . . @       ",
"        # # A ) ~ E K K W o.o.&.g.j.a.7.4.5.) ) ) [ O.O.1.4.4.>.&.&.+.o.o.S # # ,       ",
"o . . v / / H D D T ` ` o.o.O.&.g.j.q.@.@.@.D D D _ o.o.+.@.@.1.i.u.*.o.o.] ^ ^ j . . * ",
"o . . n o.o.P m m U o.o.o.o.o.&.g.j.4.o.o.o.m m N ) o.o.o.o.o.2.j.j.=.o.o.o.o.o.z X . = ",
"o . . n o.o.P m m T @.@.@.@.@.*.g.j.4.o.o.o.D D H ] @.@.O.o.o.2.j.j.=.o.o.o.o.o.z . . * ",
"o . . n o.o.P m m { i.i.i.i.i.a.j.j.4.o.o.o.` ` ` 3.u.y.$.o.o.2.j.j.=.o.o.o.o.o.z . . * ",
". . . n o.o.P m m X.j.j.h.j.j.j.j.j.4.o.o.o.o.o.O.9.j.f.$.o.o.2.j.j.=.o.o.o.o.o.z . . % ",
"o . . n o.o.L m m X.j.j.a.y.y.y.y.y.2.o.o.o.o.o.O.3.y.w.+.` _ 1.j.j.=.o.o.o.` ` k . . @ ",
". . . n o.o.P m m X.j.j.2.$.$.$.$.&.$.o.o.o.o.o.O.$.$.$.I K H ;.j.j.=.o.o.! K K a . . @ ",
". . . n o.o.P m m X.j.j.2.o.o.o.o.o.o.o.o.o.o.o.o.o.o.[ K m m -.j.h.=.o.o.E m m 2 . . O ",
". . . n o.o.P m m X.j.j.1.o.o.o.o.o.o.o.o.o.o.o.o.o.o.[ K m m ;.j.j.=.o.o.Q m m 2 . . o ",
". . . n o.o.P m m X.j.j.1.o.o.o.o.o.o.o.o.o.o.o.o.o.o.o.K m m ;.j.j.=.o.o.Q m m 2 . . o ",
". . . n o.o.P m m X.j.j.1.o.o.o.o.o.o.o.o.o.o.o.o.o.o.[ K m m -.j.j.=.o.o.W m m 2 . . . ",
". . . n o.o.P m m X.j.j.1.o.o.o.o.o.o.o.o.o.o.[ o.o.o.[ K m m -.j.j.=.o.o.Q m m 2 . . . ",
". . . n o.o.P m m R &.&.' K K P o.o.o.o.o.o.L L L K L K m m m ;.j.j.=.o.o.W m m 2 . . . ",
". . . n o.o.P m m I o.o.T m m H o.o.o.o.o.[ m m m m m m m m m -.j.j.=.o.o.W m m 2 . . . ",
". . . n o.o.P m m U o.o.E m m L o.O.o.o.o.o.m m m m m m m m m -.j.j.=.o.o.W m m 2 . . . ",
". . . n o.o.P m m I o.o._ W Q } 1.1.,.o.o.[ m m m T W W W W W <.j.j.=.o.o.W m m 2 . . . ",
". . . n o.o.P m m I o.o.o.o.o.&.h.j.7.o.o.o.m m m ) o.o.o.o.o.2.j.j.=.o.o.W m m 2 . . . ",
". . . n o.o.P m m I o.o.o.o.o.&.h.j.7.o.o.o.m m N ) o.o.o.o.o.2.j.j.=.o.o.W m m 2 . . . ",
"      4 6 6 G E E T U I ! o.o.@.:.>.%.U I I m m N ~ o.O.>.1.1.,.:.>.( I I h : : 1       ",
"        . . Z o.o.E m m U o.o.o.o.o.! m m m m m N _ o.O.q.j.j.:.o.o.I m m p . . O       ",
"      o . . C o.o.E m m U o.o.o.o.o.! m m m m m N _ o.O.q.j.g.:.o.o.P m m p . . @       ",
"      o . . Z o.o.E m m U o.o.o.o.o.` I I I I I U ` o.O.q.j.g.:.o.o.I m m p . . @       ",
"      O . . C o.o.E m m U o.o.o.o.o.o.o.o.o.o.o.o.o.o.O.q.j.j.:.o.o.I m m p . . %       ",
"      O . . Z o.o.E m m U o.o.o.o.o.o.o.o.o.o.o.o.o.o.O.q.j.j.:.o.o.P m m p . . *       ",
"        - r 0 z z V U U } :.>.:.:.:.>.:.>.:.>.>.>.>.>.>.1.1.1.| E E g 2 2 3 @ *         ",
"            @ X X 8 o.o.:.a.a.h.h.h.h.s.s.h.a.g.g.a.g.a.&.O.O.U m m ; X X &             ",
"              . . 6 o.O.>.j.j.j.j.j.h.h.h.j.j.j.g.g.j.a.$.o.o.P m m ; . . %             ",
"              . . 7 J J ..q.7.q.7.7.7.7.7.q.7.q.9.4.q.4. .) ~ G d d < o o *             ",
"                  y X X 0 O.O.O.O.O.O.O.O.O.O.O.O.O.O.[ K m m : X X                     ",
"                  - . X 9 o.o.o.O.O.O.o.o.o.o.o.o.o.o.o.K m m : . .                     ",
"                    o o 7 S J J S J J J S J J J J J J J f s s < o o                     ",
"                          X X X X X X X X X X . X X . X X . X r                         ",
"                          . . . . . . . . . . . . . . . . . . =                         ",
"                          . . . . . . . . . . . . . . . . . .                           "
};
