/* XPM */
static char *dor[] = {
/* columns rows colors chars-per-pixel */
"68 68 224 2 ",
"   c #080605",
".  c #0C090B",
"X  c #0A0707",
"o  c #190F02",
"O  c #110D0B",
"+  c #1B1207",
"@  c #151313",
"#  c #1C1519",
"$  c #1C1B1B",
"%  c #191617",
"&  c #110F12",
"*  c #25141B",
"=  c #291619",
"-  c #211D1C",
";  c #251517",
":  c #201505",
">  c #23211F",
",  c #2E2218",
"<  c #372815",
"1  c #3A2A16",
"2  c #32261A",
"3  c #3C2B1B",
"4  c #3A2619",
"5  c #3B280F",
"6  c #1E1F20",
"7  c #291C22",
"8  c #1F2022",
"9  c #222222",
"0  c #2B292D",
"q  c #29252A",
"w  c #372A27",
"e  c #2E2C31",
"r  c #342D35",
"t  c #333135",
"y  c #3C353B",
"u  c #3B3A3D",
"i  c #393436",
"p  c #3F322C",
"a  c #482F0A",
"s  c #472D07",
"d  c #4D320B",
"f  c #54360C",
"g  c #5C3B0B",
"h  c #59390A",
"j  c #442A15",
"k  c #442C1B",
"l  c #472B15",
"z  c #4D3314",
"x  c #4C341B",
"c  c #47311B",
"v  c #523613",
"b  c #553813",
"n  c #5C3C11",
"m  c #53381A",
"M  c #53381A",
"N  c #623E05",
"B  c #613E0C",
"V  c #603F11",
"C  c #483527",
"Z  c #543C25",
"A  c #4B3C34",
"S  c #423B3D",
"D  c #463A36",
"F  c #523F35",
"G  c #432E21",
"H  c #5D4019",
"J  c #664105",
"K  c #65420B",
"L  c #69450C",
"P  c #6B470B",
"I  c #654314",
"U  c #694713",
"Y  c #6C4A14",
"T  c #65451A",
"R  c #6C4B1C",
"E  c #684719",
"W  c #704D14",
"Q  c #714F1B",
"!  c #74511C",
"~  c #78541E",
"^  c #714C0F",
"/  c #5C432B",
"(  c #5A4125",
")  c #4E413B",
"_  c #46443F",
"`  c #53433B",
"'  c #5A4637",
"]  c #624622",
"[  c #664924",
"{  c #6C4C23",
"}  c #644A2C",
"|  c #684B2A",
" . c #704F21",
".. c #755323",
"X. c #795622",
"o. c #7B5926",
"O. c #74542C",
"+. c #78572A",
"@. c #7C5A2C",
"#. c #644C33",
"$. c #644D3B",
"%. c #6A4F33",
"&. c #6C5238",
"*. c #775934",
"=. c #7C5C34",
"-. c #7C5E3A",
";. c #765834",
":. c #6E502D",
">. c #7E613C",
",. c #7F6037",
"<. c #3B3642",
"1. c #3D3A44",
"2. c #3F3C48",
"3. c #423E44",
"4. c #423E49",
"5. c #3E4043",
"6. c #424245",
"7. c #45434C",
"8. c #49454D",
"9. c #4A494D",
"0. c #4A4646",
"q. c #574C47",
"w. c #58524D",
"e. c #4C4B52",
"r. c #494751",
"t. c #504E57",
"y. c #4E5154",
"u. c #4F5358",
"i. c #535355",
"p. c #54545A",
"a. c #56595C",
"s. c #5A5C5D",
"d. c #5A565A",
"f. c #695244",
"g. c #675545",
"h. c #645D58",
"j. c #6A5441",
"k. c #7C6547",
"l. c #6C665B",
"z. c #5C5C61",
"x. c #5A5761",
"c. c #615D66",
"v. c #625F69",
"b. c #5D6263",
"n. c #5E6865",
"m. c #626364",
"M. c #65656A",
"N. c #646B6A",
"B. c #6A6C6D",
"V. c #676768",
"C. c #716D66",
"Z. c #6A726E",
"A. c #67716D",
"S. c #7B7569",
"D. c #6D6C71",
"F. c #696670",
"G. c #6D7371",
"H. c #6D7973",
"J. c #727275",
"K. c #717C76",
"L. c #757579",
"P. c #757D79",
"I. c #7A7B7D",
"U. c #797778",
"Y. c #716F74",
"T. c #5B615F",
"R. c #805E2D",
"E. c #815F32",
"W. c #846235",
"Q. c #886736",
"!. c #84633A",
"~. c #89673B",
"^. c #8B693D",
"/. c #83612F",
"(. c #846541",
"). c #856945",
"_. c #8D6B42",
"`. c #8C6C49",
"'. c #846B49",
"]. c #906E46",
"[. c #906E48",
"{. c #8A754E",
"}. c #8C7452",
"|. c #927653",
" X c #967957",
".X c #8C6F4E",
"XX c #837E76",
"oX c #857968",
"OX c #75827A",
"+X c #7A837E",
"@X c #718077",
"#X c #888477",
"$X c #928C7F",
"%X c #7D7E81",
"&X c #807F83",
"*X c #7D8481",
"=X c #7E8882",
"-X c #828485",
";X c #838A86",
":X c #868C89",
">X c #8A8D8C",
",X c #888788",
"<X c #948D84",
"1X c #8C918E",
"2X c #979188",
"3X c #8E8F90",
"4X c #8E9190",
"5X c #929494",
"6X c #959896",
"7X c #979998",
"8X c #9B9C9B",
"9X c #9A9895",
"0X c #A49B90",
"qX c #A19F9C",
"wX c #A29A8F",
"eX c #9EA09F",
"rX c #AAA39A",
"tX c #A3A4A4",
"yX c #AAAAAB",
"uX c #A8A8A8",
"iX c #AFAFB0",
"pX c #B0B0B1",
"aX c #9FA1A0",
"sX c None",
/* pixels */
"sXsXsXsXsXsXsXsXsXsXsXsXsXsXsXpXyXyXaX4XL.b.d.D.>XtXuX8X7X5X1X+XD.B.>XtX8X5X8X9X<XI.F.c.F.,XeXtXsXsXsXsXsXsXsXsXsXsXsXsXsXsXsXsXsXsXsXsX",
"sXsXsXsXsXsXsXsXsXsXsXsXsXtXuXyXyXaX8X6X*XY.m.J.<XeX8X6X5X5X1X*XJ.Z.5X8X8X8X7X9X>XI.F.M.U.3X8XaXtXtX8X5X,XsXsXsXsXsXsXsXsXsXsXsXsXsXsXsX",
"sXsXsXsXsXsXsXsXsXsXsXsX7XtXtXtX8X5X6X4X,X%Xv.U.>X7X5X4X1X>X:X-XL.J.5X7X7X8X9X5X>XI.F.D.%X3X5X7XaXaX8X5X-XsXsXsXsXsXsXsXsXsXsXsXsXsXsXsX",
"sXsXsXsXsXsXsXsXsXsXsX-X5X7X7X4X1X:X>X1X%XY.M.J.,X4X4X>X;X;X=X+XL.J.5X9X6X6X7X5X>XP.M.M.J.-X>X3X5X7X8X5X,XD.sXsXsXsXsXsXsXsXsXsXsXsXsXsX",
"sXsXsXsXsXsXsXsXU.L.B.Y.-X4X6X3X=X=X*X=XI.N.m.J.,X1X>X=XOX+XOX+XL.L.>X1X3X>X3X>X=XG.z.b.G.OX=X1X5X7X7X5X&XB.V.S.oXsXsXsXsXsXsXsXsXsXsXsX",
"sXsXsXsXsXsXsXtX5X>X&XL.XX<X5X>X*X+X*XOXH.N.b.B.P.*X*X@X@X@XK.G.D.G.%X-X=X=X=X=XK.b.i.a.N.H.=X1X5X5X3X-XJ.D.I.<X9XuXsXsXsXsXsXsXsXsXsXsX",
"sXsXsXsXsXsXsXtXyXuX7X,XXX#X,X;X+XH.H.H.A.z.i.z.M.D.H.G.Z.A.N.T.s.m.G.J.G.K.H.G.N.r.7.e.n.Z.OX:X>X>X&XY.J.-X5XtXyXiXpXsXsXsXsXsXsXsXsXsX",
"sXsXsXsXsXtXtXtXtXaXaX7X-XI.P.P.P.H.N.n.z.e.2.9.i.s.b.b.b.a.y.9.7.r.s.b.z.m.z.p.r.<.t 1.y.n.Z.P.*XP.B.B.I.5XqXrXrXiXpXpXsXsXsXsXsXsXsXsX",
"sXsXsXsX8X8XeX8X5X3X5X7X6X,XK.M.z.p.e.7.3.y t t S 3.3.3.S y y r e r r 3.S S i t e w 0 r 1.7.u.z.b.c.B.I.1X8X8X9X9XqXtXtXtXsXsXsXsXsXsXsX",
"sXsXsX:X1X3X3X3X:X,X=X>X1X=XB.i.7.<.i p p G k l c G C G k k k 4 2 4 k c C G w 3 j c c w w p S 3.7.t.M.-X5X5X1X1X5X5X7X7X4XsXsXsXsXsXsXsX",
"sXsXsX+XP.+X*X-X-X+XOXOX@XZ.a.1.r w 3 j l f h B B V n n B B V M G x V W I V M M I U I M x x C C D 3.z.J.+X;X;X:X,X:X:X,X+XsXsXsXsXsXsXsX",
"sXsXsXN.A.H.@XOXOXOXH.G.m.i.u 0 3 l f f f H Y ! ..O.[  .X.X.R./ C Z @.E.+.:.} %.o.@.....[ E { T Z C S i.N.@X+X+X+XOXOXK.B.N.m.sXsXsXsXsX",
"sXsXsXV.z.b.N.H.@X@XH.m.w.D w 3 l f h n V R R.E.!.k.;.E.^.^.(.$.F f._._.^.(.&.*.Q.~.E.+.O.*.@.X.E ( C S 9.b.Z.K.P.H.N.m.z.m.N.sXsXsXsXsX",
"sXsX3XP.m.a.z.b.A.H.m.y.D w 3 c b V L E | O.E.^.~.E.E.`.]._._.$.F f._.]._.(.*.(.^.Q.E.=.*.!.~.W.@.O.] ( A 9.s.m.B.m.s.d.m.P.>XsXsXsXsXsX",
"sXrXqX5XI.m.y.i.s.s.i.u 3 1 c b V Q ..O.O.-.^.^.E.E.k.`.].^.E.' F &.`.].^.^.-.(._.W.W.E.=.!.~.^.~.=.+.:./ 0.9.i.p.i.d.c.I.5XtXyXsXsXsXsX",
"tXtXuXuXeX,XB.y.y.7.u t c z v b V ..E.-.*.-._.].E.E.E._.].^.^.#.F f.`.].^.Q.=.E.).).!.=.*.!.~.^.^.>.O.O.O.' S 7.9.a.D.>X8XuXyXyXyXsXsXsX",
"uXuXtXaXaX8X:XD.e.1.r k f g n (  .=.!.!.>.(.`.^.^.E.E._.`._.E.q.3.f.`._.E._.*.(._.`.E.-.=.!.Q.^.).>.*.@.O.| F 3.d.J.1X9XeXrXtXyXyXsXsXsX",
"yXuXeX5X6X8X8X=Xx.y k f J K T :.-.Q.^.!.!.).]._._.E.E._._.^.=.#.$.f.`._.E.E.k.!._._.E.E.E.W.!.^.^.!.-.=.@.O./ 0.m.:X9X9X1X4X8XuXiXsXsXsX",
"uXeX5X4X:X1X4X;Xa.D l g K Y  .-.!.^.^.!.(.).].].^.E.;._._.^.E.} F f.`.E.^._.-.(.].^.~.-.*.E.Q.^.^.-.-.!.W.+.#.q.J.3X4X:X=X:X4XeXyXsXsXsX",
"eX5X4X;X,X;X*XL.r.D z B Y  .:.>.~.^.^.!.!.).].].E.E.E._._.^._.$.F f.`._.E.(.k.(.].^.E.k.*.E.W.^.^.>.-.>.~.=.| ' s.I.;X+X=X=X>X6X8XsXsXsX",
"%X-X-X;X#X=XP.M.7.p z I R ..O.-.~.].^.(.(.).[.[.^.E.=.(._.^._.$.F f.`.^.E.!.E._.^.E.~.E.*.k.E.~.~.=.=.!.!.W.O.' w.A.OX=X:X-X;X*XI.sXsXsX",
"z.M.Z.G.H.+XH.s.3.G b I Q O.O.-.(.^.^.!.(.(._._.^.E.=._.].^._.$.' f.`.^.E.E.E.`.^.E.E.-.*.(.~.!.Q.=.*.>.Q.W.O.#.q.M.H.*XOXP.G.M.p.sXsXsX",
"p.t.y.i.b.N.M.i.S c h U W ..O.(.^.^.~.!.k.k._.E.!.Q.E._._.~.E.f.3.f.`.^.E.E.E.^._.E.E.-.*.E.^.E.W.=.-.E.Q./.+.} ` s.n.n.n.p.e.7.1.sXsXsX",
"J.N.a.y.9.e.9.1.D C n U ! X.;.(._.]._.(.-.E.]._.!.E.=.^.].~.~.$.' f.`._.E.E.-.(._.E.E.-.(.E.Q.Q.E.O.-.-.W.W.@.} A 3.9.e.r.6.2.7.9.sXsXsX",
"8X4XI.B.x.r.3.y p x n L ! +.*.(._.]._.!.E.(._._.E.E.E.`._.^.].$.F f.[.~.E.E.!.(._.E.E.!.j.E.^.Q.W.=.*.=.Q.W.O.} A y 2.7.i.p.b.D.L.sXsXsX",
"pXuX7X>XI.M.t.3.D x g P ! +.=.(._._.~.!.-.k._._.^.E.-.E.^.].[.$.F f.[.~.E.E.E.(._.^.E.E.!.^.E.E.W.=.=.,.^.W.;.} D 3.r.s.B.+X1X8XtXsXsXsX",
"pXtX7X5X5X>XJ.i.D x h P ! o.=._.^.~.^.W.E.(.].].E.-.&.E._.].[.$.' f.[.~.E.E.f.(.(.E.E.E.!.E.E.E.W.=.*.!.Q.W.-.%.` i.G.=X4X5XeXuXyXsXsXsX",
"yX8X4X4X4X3X*Xs.0.Z n U ! @.W.^.^.Q.~.!.-.E.^.^._.E.*.(._._.[.$.3.f.[._.E.E.f.!.E.E.E.E.k.E._._.!.=.-.!.Q.Q.=.%.q.V.*X5X4X5X7XaXyXsXsXsX",
"tX7X>X=X;X>X*Xb.) Z n L ! o.E.!.^.^.^.W.-.!.].^.^.E.*.(._._._.$.A f._.].~.E.E.!.E.^.E.(.E.].^.^.Q.=.-.!.Q.Q.R.&.q.B.=X4X,X:X1X7XtXsXsXsX",
"tX7X;X+XOX=XP.b.0.C ( R +.>.k.}. X X|.{.}.}. X X X|.'.|. X X|.f.D f..X X|.`.(..X X|. X X X X X X|.{.}.|. X|.'.j.w.D.*X:X=X*X:X4XeXsXsXsX",
"rX1X+XOXOXOXH.z.9.8.w.l.S.oX#X2X0X0X0X9X9X0X0X0X0X0X0X0X0X0X2Xv.4.x.&X2X2X<X&X9XwXwX0X0X0XrXrXrXrXrXrXrXrX0X$XS.M.J.+X=XOXOX+X:XaXsXsXsX",
"5X;XOXOX@XOXH.a.S e t u D _ 0.w.i.w.w.i.i.w.w.q.w.d.w.d.d.w.t.S q D q.q.q.d.4.t.h.c.h.h.c.l.m.m.h.l.m.m.s.a.q.0.9.M.+X=XOXOX=X=X5XsXsXsX",
"1X;X@X@XP.@XH.p.e @ & @ @ $ $ - $ $ $ $ - > > - - > 8 8 8 8 9 8 * * 9 9 9 9 9 q 0 0 e 0 0 0 0 0 0 0 0 9 9 $ % $ i z.+X*X@X@XOX=X>XsXsXsX",
"1X+X+X+XOXOXK.i.e @   O @ @ @ @ @ @ @ @ % - $ - - $ $ 6 > 8 9 9 - = > > > 9 - 9 9 - 7 > - - - - $ - $ % @ O . @ e b.@X+XP.K.P.+X:XsXsXsX",
"+X+X+X@XP.P.J.a.i , , 5 5 < < < < < < < < < < < 1 1 2 3 1 1 1 2 q w 3 1 1 3 3 1 1 3 3 3 3 3 3 3 1 1 1 < 1 s 1 2 i s.P.*X@XK.@XOXI.sXsXsX",
"Z.H.G.K.Z.Z.N.i.D c z H T T ( ] [ R [ [ T [ [ { { ] H [ [ | / ( G C } { ] ( ] [ { :.[ ] ] [ [ [ ] ( ] [ :.{ T Z ) s.N.G.Z.Z.G.G.B.sXsXsX",
"s.s.z.z.z.s.i.7.D m K Q o.@.,.@.,.Q.Q.@.@.=./.Q.W.,.O.,.^.~.,.' A ' W.Q.E.O.=.=.Q.^.W.*.=.W.!.W.@.;.*.W.~.Q.=.} ) y.x.z.z.z.a.i.e.sXsXsX",
"9.e.t.t.p.p.y.7.p v L ! @.W.,.W.Q.Q.Q.Q.,.,.Q.~.Q.,.>.^.^.^.Q.$.F ' !.^.!.-.!.^.].].!.!.!.^._.~.!.-.!.)._.^.=.%.) 7.y.u.t.t.e.2.<.sXsXsX",
"I.I.I.I.I.*XL.T.) m H ! @.@.+.=.W.^.^.~.,.,.Q.~.,.>.@.W.Q.Q.Q.#.A Z >.Q.@.O.-.!.^.Q.E.=.E.!.Q.Q.W.!.!.^.^.Q.=.#.0.h.Y.%X%X%XL.J.Y.sXsXsX",
"6X4X>X:X:X1X;XA.` x K W o.+.;.=.,./.W.,.=.,.!.Q.W.@.+.,.W.W.!.%.F } @.W.@.:.-.Q.W./.@.=.=.W.Q.Q.@.W.!.~.~.Q.+.$.q.B.:X5X>X3X4X5X8XsXsXsX",
"tX6X>X:X:X:X*XN.` m K Y ..+.;.=.@./.@.@.,.,.,./.,.o.+.,.@./.,.} Z #.@.@.O.O.=.W.R.R.+.@.=.E.W.W.@.;.,.Q.W.W.@.%.g.G.>X5X4X1X4X8XtXsXsXsX",
"8X5X;X*XOX*XP.z.) m g Y ~ +.O.@.@.@.@.@.+.@.W.@.@.+.O.,./.@.@.( Z / +.@.X.{ *.@.@.o.+.*.=.@.@.@.+.;.@.@.@.@.+.#.q.C.*X=X*X=X:X4XeXsXsXsX",
"6X3X;X*X@X@XH.z.` m g E ! ..:...o.o.o.+.@.@.W.@.+.+.:.,.@.@.@./ C / +.o...R *.=.@.o.X.X.@.o.o.o.O.+.@.o.X.o.O.} g.J.*X*XOXOX=X1X8XsXsXsX",
"6X>X*X+X@X@XH.b.) b g I Y Q {  .~ X.o.+.O.o.@.o.+... .@./.o.+.( Z ( ..X.X...*.+.X.X.X.O.+.X.....O.+.+.o.~ ~ ..} q.C.%X*XOXOXOX=X5XsXsXsX",
"1X;X@XK.@X@XH.b.) b K J U U U U R ..Q ..{ ..! ~ ..R R +.o... .( C / Q ~ !  .O. ...X... .:...! ! ..O.....! ! Q } q.N.I.OX@XOXOX+X4XsXsXsX",
";XOXH.K.K.OXH.s.) x h J J L I H U Y Y R E E Q Q W Y H ....Q U m C Z Q ! Q E E Q ! ! R R R Q ! ! R R R Q ! ~  ./ ' b.H.@X@XH.@XOX;XsXsXsX",
"H.Z.Z.Z.G.H.A.i.) v h J J L J K L Y U U I U W Y K K T R Y ^ K z G Z Q Q R U Y Y Y Q R U U Y Y Y E T E U W Y ] / ` s.A.G.Z.A.A.N.F.sXsXsX",
"i.s.s.T.b.b.a.9.p z g J J J J g J J J K K K Y J J K K K K J J a k x K L K B I L U L K K B K J J g K K J J J H Z A 9.a.s.s.a.u.e.8.sXsXsX",
"9.r.t.p.p.p.e.3.r c n B L B V B J P P I H L Y Y Y U H R Y ^ U m 3 c U P U T Y W Y ^ Y U I I P P I U Y Y W ^ U ( ) 5.9.y.e.r.9.4.<.sXsXsX",
"F.L.I.L.J.J.B.t.S F Z } { %.;.=.=.-.-.j.k.k.'.{.{.{.}.}.{.{.{.g.' ' >.Q.k.k.k.k.'.k.k.k.(.).'.).'.'.{.{.{.|.{.k.g.i.m.G.J.J.Y.B.M.sXsXsX",
"5X5X3X3X:X>X-Xc.0.3.D q.q.w.w.h.h.h.l.l.V.C.C.S.S.S.+X#X#X#X#Xd._ _ l.l.C.C.C.S.@XS.S.S.S.#X#X#XOX#X#X$X$X<X<X#XP.L.;X4X>X>X3X3X5XsXsXsX",
"aX7X1X>X:X1X-XF.1.q q e e t i t u u 1.3.5.5.5.5.0.0.9.e.9.9.9.u 0 0 5.5.5.5.9.y.y.i.i.i.i.h.h.s.s.T.T.T.N.N.b.n.B.I.1X6X4X1X4X7XtXsXsXsX",
"5X-X@XOXOXOXK.b.t @             X X X   X X X o       O     . @ @ % % @ @ & @ $ $ > - - 7 7 - $ - - $ > > 9 8 0 2.D.*X*XOX@XOX*X5XsXsXsX",
"&XJ.N.Z.G.H.B.p.e + o o o o o o o o o o o o o : + + + + : + + ; = = < < 2 2 , , < < < 2 = 4 2 2 , < , , 2 < < 2 3.m.J.P.G.A.Z.J.%XsXsXsX",
"I.G.N.N.N.Z.M.p.i 1 s s s s a s s s d s s s f f d a d d d s s 1 4 3 b h h z z b h h z z V f f h f v H H H H a p ) c.G.H.n.n.N.N.L.sXsXsX",
"Y.D.N.n.A.G.N.d.` M B J P Y Y I Y Y Y R V V V V ^ U I E Y Y Y m k x U Y ^ H T U Y ^ U I V V N N H U H Y P P H H ` s.A.H.n.n.b.N.J.sXsXsX",
"F.M.n.n.N.D.B.s.` v B U Q Q R R ~ ~ ~ { { { ~ ~ R.O.{ ....R.R./ C Z  .o...] { +.R.^ V  . .R.R.R.{ {  .X.X.X. .| ' d.N.G.n.b.n.n.D.sXsXsX",
"z.z.x.a.a.z.s.t.A v g U Q Q R R  .~ ~ { { V ! ! V  .{ ..R.R.R.( w Z ..X.Q ] { R ^ R.R. .{ ! R.V E [  .~ ! ..V ] ` d.m.b.b.z.z.z.p.sXsXsX",
"7.7.r.r.8.8.7.3.C z B U ! Q E R ~ ~ ~ ~ E  .~ ! R.V  .Q V R.O.Z k m R ! { T E U R.^ V R V R.^ R.V Y Q W Y P V Z A 7.r.r.r.2.2.4.1.sXsXsX",
"<.1.2.4.5.7.4.y p x N L W R E E W W ^ V V V V R.R.W V ^ N N V x G z U W U I V I V V V n V V N V B B V P N N V M C <.1.2.2.<.<.<.r sXsXsX",
"e.t.x.x.x.x.x.4.D x h N L I n g B N N N N B V V B V V B N N g G k l B N B h n B B N g g N N N N B f g g g N B M r <.r.x.x.x.t.7.2.sXsXsX",
"-X,X,X*X&X,X%Xc.3.x f h n n v f g g B V V V B g N g n g n v n k w j f g h b b b f g f n g N h f z d f h h f f G 3.z.%X-X*X-X-X,X,XsXsXsX",
"3X,X3X,X-X,X&Xc.D w 4 j j k k j l l l l l l l l l l k k j j l w 7 4 j j j k k l l l l l l l l j j 4 j j 4 j 4 w 3.F.-X,X&X-X,X3X5XsXsXsX",
"%X%X%XY.Y.L.F.e.q * # # * * * * = = * * * = = = = * * * = = = * * * = = * * = = = = * = = = = = * * * * * * * 7 r p.Y.Y.F.F.D.Y.I.sXsXsX",
"F.v.z.z.M.v.z.r.7 & . . . . . . . . . . . . . . . . X . . . . . X . . . . . . . . . . . . . . X X . . . . . . & q 4.t.u.x.p.p.p.x.sXsXsX",
"x.p.t.u.p.p.t.2.q $ $ $ % % $ $ % % % % # # % $ $ 6 7 9 8 8 6 $ $ $ - 8 > 9 9 9 9 9 $ $ * * # # % # # ; % @ @ $ q 1.7.r.r.7.2.4.r.sXsXsX",
"x.t.r.t.r.t.4.2.e q 8 q 8 q 9 q 9 9 q <.y r t 1.9.s.m.m.m.s.y.0.6.5.i.s.T.b.b.b.s.p.9.y 7 = 7 q 9 9 q 7 9 6 $ 8 e <.4.r.5.2.<.<.2.sXsXsX",
"sXsXsXsXsXsXsXsXsXsXsXsXsXsXsXsXsXsXsXF.x.7.9.p.D.3XeXaX8X7X-XK.m.b.&X5X8X8XrX8X5X-XD.m.sXsXsXsXsXsXsXsXsXsXsXsXsXsXsXsXsXsXsXsXsXsXsXsX"
};
