/* XPM */
static char *dor2[] = {
/* columns rows colors chars-per-pixel */
"68 67 215 2 ",
"   c #000000",
".  c #090606",
"X  c #0C0906",
"o  c #080708",
"O  c #0C0A0B",
"+  c #060608",
"@  c #130D05",
"#  c #110E0C",
"$  c #1B1206",
"%  c #15110D",
"&  c #1C140B",
"*  c #171006",
"=  c #110E11",
"-  c #180F11",
";  c #151314",
":  c #1A1513",
">  c #1C1815",
",  c #1D1B1B",
"<  c #18161B",
"1  c #221606",
"2  c #21170A",
"3  c #241A0D",
"4  c #2A1E0C",
"5  c #281A07",
"6  c #221414",
"7  c #241C12",
"8  c #2A1E12",
"9  c #221E1C",
"0  c #2A1D1D",
"q  c #34230C",
"w  c #3B270A",
"e  c #3E2A0E",
"r  c #3A2507",
"t  c #2D2215",
"y  c #24211D",
"u  c #2A231B",
"i  c #332414",
"p  c #3B2414",
"a  c #3C2A14",
"s  c #332619",
"d  c #37291A",
"f  c #3C2C1A",
"g  c #372814",
"h  c #3F301D",
"j  c #2D200F",
"k  c #1D1B22",
"l  c #211F23",
"z  c #242323",
"x  c #2A2524",
"c  c #25232A",
"v  c #2D2B2B",
"b  c #2B2726",
"n  c #352B22",
"m  c #352E29",
"M  c #39332C",
"N  c #2C2937",
"B  c #322E32",
"V  c #343232",
"C  c #3A3533",
"Z  c #3C3A35",
"A  c #3B363B",
"S  c #3C3B3B",
"D  c #34313F",
"F  c #442C0C",
"G  c #482E0B",
"H  c #4C310D",
"J  c #56380E",
"K  c #432C12",
"L  c #412F1A",
"P  c #482E14",
"I  c #4C3413",
"U  c #43321D",
"Y  c #4A361C",
"T  c #4D391D",
"R  c #463114",
"E  c #513411",
"W  c #543913",
"Q  c #5A3D14",
"!  c #533C1B",
"~  c #593E18",
"^  c #613E0D",
"/  c #443423",
"(  c #493722",
")  c #4C3A23",
"_  c #43362B",
"`  c #44392C",
"'  c #4A3B2D",
"]  c #463826",
"[  c #513D22",
"{  c #443C34",
"}  c #423D3C",
"|  c #483C31",
" . c #3E413F",
".. c #5D421A",
"X. c #5E4014",
"o. c #634519",
"O. c #694919",
"+. c #564124",
"@. c #5A4425",
"#. c #58452A",
"$. c #45413C",
"%. c #4B453C",
"&. c #4C4336",
"*. c #554938",
"=. c #5E513D",
"-. c #634C2C",
";. c #645236",
":. c #393642",
">. c #3D3A45",
",. c #3F3D48",
"<. c #373340",
"1. c #423D44",
"2. c #413E4A",
"3. c #454344",
"4. c #494544",
"5. c #45444C",
"6. c #48454E",
"7. c #4C4B4C",
"8. c #49494A",
"9. c #514D4C",
"0. c #534C46",
"q. c #59534A",
"w. c #474550",
"e. c #4A4651",
"r. c #4D4C53",
"t. c #514D55",
"y. c #524F59",
"u. c #4F5153",
"i. c #535254",
"p. c #5B5A55",
"a. c #54555A",
"s. c #565A5C",
"d. c #595B5D",
"f. c #585756",
"g. c #4D504E",
"h. c #665A45",
"j. c #635D55",
"k. c #5C615D",
"l. c #6D624B",
"z. c #73664A",
"x. c #63625E",
"c. c #696458",
"v. c #776D54",
"b. c #7E7355",
"n. c #5C5C61",
"m. c #5C5462",
"M. c #625E66",
"N. c #5E6363",
"B. c #5F6966",
"V. c #636465",
"C. c #626967",
"Z. c #65656A",
"A. c #656B6A",
"S. c #6A6C6D",
"D. c #686768",
"F. c #69736E",
"G. c #66706C",
"H. c #7A7667",
"J. c #6D6D72",
"K. c #716F76",
"L. c #6D7472",
"P. c #6E7B73",
"I. c #727375",
"U. c #727B76",
"Y. c #757679",
"T. c #757C7A",
"R. c #7A7B7D",
"E. c #7B7975",
"W. c #726F65",
"Q. c #857751",
"!. c #847D69",
"~. c #817F73",
"^. c #718077",
"/. c #75827A",
"(. c #7A837E",
"). c #798177",
"_. c #8B836B",
"`. c #8C8263",
"'. c #958B6B",
"]. c #868477",
"[. c #928A77",
"{. c #9B937A",
"}. c #7E7E81",
"|. c #7D8581",
" X c #7E8882",
".X c #838485",
"XX c #828A85",
"oX c #858689",
"OX c #868C89",
"+X c #8A8D8C",
"@X c #8B8B85",
"#X c #8C918E",
"$X c #8A9086",
"%X c #94938D",
"&X c #9A9688",
"*X c #8E8F90",
"=X c #8E9290",
"-X c #939594",
";X c #959897",
":X c #999996",
">X c #969998",
",X c #9B9C9C",
"<X c #979798",
"1X c #928E83",
"2X c #A19E97",
"3X c #A19E88",
"4X c #9EA09F",
"5X c #A6A399",
"6X c #9F9FA0",
"7X c #9FA0A0",
"8X c #A4A4A3",
"9X c #ABABAB",
"0X c #A9A8A4",
"qX c #B1B1AE",
"wX c None",
/* pixels */
"wXwXwXwXwXwXwXwXwXwXwXwXwXwXwXwXwXwXwXwX>XoXM.2.e.M.oX0XqX9X8X>XXXI.n.R.,X9X0X0X0X6X*XY.M.wXwXwXwXwXwXwXwXwXwXwXwXwXwXwXwXwXwXwXwXwXwXwX",
"wXwXwXwXwXwXwXwXwXwXwXwXwXwXwXwXwXwX9X0X2X-XY.a.y.K.-X8X5X4X,X-XOXY.Z.].,X8X7X4X,X<X.XJ.M.Y.-X8X0X0XwXwXwXwXwXwXwXwXwXwXwXwXwXwXwXwXwXwX",
"wXwXwXwXwXwXwXwXwXwXwXwXwXwXwXwXwX0X8X,X2X:X+XD.M.Y.2X2X:X=X=X=XXXR.S..X:X,X,X;X<X-X}.Z.M.T.-X6X6X8X8XwXwXwXwXwXwXwXwXwXwXwXwXwXwXwXwXwX",
"wXwXwXwXwXwXwXwXwXwXwXwXwXwX.X:X5X,X-X-X-X-X+XS.M.Y.<X<X=X#X#X#XXX|.L.oX:X<X<X;X<X-X}.D.Z.R.+X=X-X,X6X8X*XJ.wXwXwXwXwXwXwXwXwXwXwXwXwXwX",
"wXwXwXwXwXwXwXwXwXwXwXwXZ.I.oX:X,X-XXXXX+X+XXXZ.Z.E.%X#X+XXX(.(. X(.I.oX<X;X-X-X-XOXY.Z.N.P. X=X-X-X<X,X<XI.j.d.wXwXwXwXwXwXwXwXwXwXwXwX",
"wXwXwXwXwXwXwXwXwXwX8X<XY.I.R.*X;X=X X(. XXX(.N.M.K..X+XXX(././.T.U.S..X#X+XXX+XOXXXS.d.s.P.(.XX#X-X,X,X+XJ.D.I.:X0XwXwXwXwXwXwXwXwXwXwX",
"wXwXwXwXwXwXwXwXwX8X8X,X*X}.Y.}.+X#X(.U.^./.T.n.d.D.Y.R./.P.P.^.F.S.Z.U.(.R.).(./.Y.s.r.u.F.P.(.OX=X:X+XI.S.R.+X5X5X9XwXwXwXwXwXwXwXwXwX",
"wXwXwXwXwXwXwXwX0X8X8X9X8X<X}.J.XXXX(.U.P.P.S.t.e.a.Z.A.S.G.C.C.k.i.a.V.S.S.L.F.G.N.5.:.5.B.F.^. X#X].W.M.R.;X0X9XqX9X9XwXwXwXwXwXwXwXwX",
"wXwXwXwXwXwXwX8X8X8X,X,X>X:X%X|.U.U.I.A.k.s.r.>.<.>.e.u.y.u.7.5.>.<.<.5.r.r.r.r.5.:.N N D 5.a.B.L.Y.D.V.Y.*X,X,X,X8X9X9X8XwXwXwXwXwXwXwX",
"wXwXwXwXwXwXwX-X;X;X-X=X+X#X%X+XI.C.i.7.5.A B c k k c c c c c k , k k k c c c l k k < < k N S 8.i.a.d.J.*X-X-X-X-X<X,X8X,XwXwXwXwXwXwXwX",
"wXwXwXwXwXwXwXXXXX+X+X X(.XXXXXXJ.r.>.B m b u # + + +   + + +     +       +         + + O < x V A :.t.I.*X+XXXOX+X+X-X-X+XwXwXwXwXwXwXwX",
"wXwXwXwXwXwXL.I.T.].].(./.^.U.A.r.A m n d s 8 O                                         + % 7 s n m >.a.J.T.(. X.XoX.X|.Y.J.wXwXwXwXwXwX",
"wXwXwXwXwXZ.V.V.F.U.).^.^.F.B.5.A _ / d s i 8 O                                           % 3 i f M _ } r.V.U.(.(./.T.L.Z.V.Z.wXwXwXwXwX",
"wXwXwXwXwXR.A.d.k.C.L.P.P.C.7.Z _ ) U f s t 7 O +                                         % & i f / / / Z 7.N.L.L.F.Z.j.d.A.R.wXwXwXwXwX",
"wXwXwXwX8X<X}.M.i.i.N.B.C.u.} _ ( ( / d i 7 & O                                         + # & t d L / / / S 7.d.N.s.f.f.V.(.>X8XwXwXwXwX",
"wXwXwXwX8X8X,X+XA.i.r.f.g.$._ ( ] / U t t 7 % .                                           # : 7 s L L Y ) ] { 8.i.7.f.K.+X4X9X9XwXwXwXwX",
"wXwXwX8X9X8X7X6X*XK.t.5.S ` ) ( ] / f i 8 7 % .                                           O & > t f L / ) [ _ A 5.d.I.*X,X8X9X9X9XwXwXwX",
"wXwXwX8X0X6X>X,X8X+XZ.>.C ] [ ( / U d t 4 3 $ .                                           O & y i f L / ) [ / C 6.I.-X6X;X;X6X9X9XwXwXwX",
"wXwXwX9X7X-X=X=X;X;XY.2.C ) ) ( / / f 0 3 7 & O                                           # % 3 i f L / T [ ( { a.*X,X=XXXXX-X8XqXwXwXwX",
"wXwXwX8X;X*XXX XXXoXJ.} ] [ [ ( U f f 8 t j : O                                           # & 3 8 d f U ) ! ( ` 9.}.+X.X X XOX;X8XwXwXwX",
"wXwXwX+XOXXX X XXXR.k.{ ] ) ) ( h f d t t y : X                                           % 3 j t s d U ) Y ) / } S.(.(. X.XOX+XoXwXwXwX",
"wXwXwXS.I././.|.(.F.i.C ] [ [ / h f f u y y ; +                                           # y t i d f U ] Y ) ] { N.U.(.|.(.(.I.Z.wXwXwX",
"wXwXwXy.a.n.Z.F.L.C.8._ ( [ ) Y h h f d b 9 # +                                           O , b f f U U ) Y ( ) | p.J.I.L.C.s.r.5.wXwXwX",
"wXwXwXZ.a.r.r.u.a.r.1.] ( [ [ ( h +.&.V y = O                                             + # y C | ] Y ) Y Y ) ' 4.i.a.t.w.5.>.5.wXwXwX",
"wXwXwX+XR.A.a.e.5.>.A _ ) [ [ [ &.&.Z z ; + O .                                           X + ; B %.&.) [ Y ) ) ' A 2.6.5.w.r.n.Z.wXwXwX",
"wXwXwX9X8X=XR.B.r.>.A ] ) [ #.*.0.$.b # O X @ +                                           + + # , S q.=.#...) ) ' A 2.r.d.S.T.+X,XwXwXwX",
"wXwXwX9X8X,X;X#XR.m.1.` [ #.q.p. .y = # % & % .                                           X # O O , } j.h.@.+.) ' 4.d.L.oX-X,X7XqXwXwXwX",
"wXwXwX9X,X=X#X-X*XJ.7.] &.=.q.Z , ; % % 3 3 * .                                         . # $ & # # 9 $.c.z.-.) ' i.T.=X#X-X-X,X9XwXwXwX",
"wXwXwX8X-XXX X#X#XY.i.| %.4.Z , % > j 7 4 7 % .                                         . @ & & & : # z 8.c.h.#.' p.XX>XOXXX+X-X8XwXwXwX",
"wXwXwX8X#XXX X X XL.s.$.A b ; % t g a t j 3 & X                                           X > t 4 4 > ; 9 w.j.=.&.M.|.#X X XXX=X7XwXwXwX",
"wXwXwX8X+X(././.(.G.u.v , : > t f h h t t 3 & X +                                         X & 7 t f q 3 > 9 S 7.9.D./.XX X(.(.+X4XwXwXwX",
"wXwXwX;X X/./././.G.w., # & a Y +.+.h q 7 > % .                                           X % 3 i h h g 3 : , V 4.V.U. X/././. X-XwXwXwX",
"wXwXwX#X(.^./.^./.A.5.: % g ..-.#.! U j 3 2 # .                                           X $ 2 t h Y Y a t & < v s.T.|.U.^.^.|.=XwXwXwX",
"wXwXwXXX(./.^./.(.A.8.u i ! -.-.@.T h t 3 & @ .                                           X % $ 4 a U ! +.U 7 ; < y.T. XY.^./.(.oXwXwXwX",
"wXwXwXoX(./.^././.G.7.h U +.-.-.@.Y a j 3 & @                                           . X % 3 4 a U [ @.[ d 7 , 7.L.|./.^.^.(.|.wXwXwX",
"wXwXwXT.U.U.I.L.P.N.8./ ) +.-.#.+.Y a j 3 $ @ .                                           X $ 3 4 g U T @.@.T s u 8.A.U.I.L.L.L.L.wXwXwX",
"wXwXwXn.V.V.V.V.N.i.3.] ) +.-.@.) Y a 3 2 $ @ .                                         . X $ & 3 i f T @.@.[ Y / 4.s.B.N.N.N.n.i.wXwXwX",
"wXwXwXe.e.t.r.t.u.w.} ] ) @.X.@.! R w 3 & $ @                                             X @ 1 2 q f ) @.[ ) ) ' 3.7.i.i.r.w.,.>.wXwXwX",
"wXwXwXJ.K.K.I.I.T.Z.t.) Y ! ....T F q 1 $ $ % o                                           X * $ 3 q a Y ! ! [ ) ' f.S.I.Y.I.K.J.S.wXwXwX",
"wXwXwX;X*X+XOX-X+XR.f.] U ! ....I F q 1 & 7 : O                                           O $ $ 1 q a Y ! ! T ) ' M..X-X=X=X*X*X;XwXwXwX",
"wXwXwX8X;XoXXX+X#XU.f./ U ! X.X.H w q j y y % +                                         . O % & $ q e R T ! Y Y ' W.oX;X#X+X#X;X8XwXwXwX",
"wXwXwX4X#XXX(.(.(.L.i.U a I X.W G w g n u % O                                             O : > 3 4 r K I ! Y U ] D..X+X X XXX=X,XwXwXwX",
"wXwXwX>X+X X(././.L.9.U e H J H R U _ b % . +                                               O , u q q F W I Y L / V.R..X/.(.(.+X,XwXwXwX",
"wXwXwX;X X(./.^./.F.i.f w F H E ) &.M ; + . X                                               X ; y n a e H W I a / x.(. X^.^./. X-XwXwXwX",
"wXwXwX-X/.^.^.^.^.L.u.f w G W @.*.C ; . X @ @                                             o X @ : V M R H H K a U d.U.(.^./.^.(.=XwXwXwX",
"wXwXwXXX/.^.U.^.^.G.4.a r I =.q.M ; o @ $ $ * .                                           X @ @ # 9 { *.Q H F e / p.P./.P.P.^./.XXwXwXwX",
"wXwXwXI.F.F.F.P.P.N. .g h *.q.V > @ $ 1 5 & &                                             X $ & & ; b %.;.! F e / 9.A.L.G.A.G.C.S.wXwXwX",
"wXwXwXd.a.d.n.N.B.u. .d _ $.V % * 3 q j 3 $ % .                                         . X $ 3 & & , Z q.*.T F h 4.s.N.d.s.i.r.e.wXwXwX",
"wXwXwX6.r.y.a.i.y.w.:.V m , # $ q F K q 3 & $ .                                           @ 1 4 4 q t u } x.=.U i C 8.r.i.r.w.2.>.wXwXwX",
"wXwXwXI.Y.Y.I.I.Y.C.3.k ; % 1 e H E R q 4 & @ X                                           @ 1 4 q a a t b 4.q.=.h 3.V.I.Y.Y.Y.J.J.wXwXwX",
"wXwXwX<X-X*X*XOX*XT.r.< @ 5 F J Q W P p 4 1 # +                                         . @ 1 5 q P R a s b 3.0.4.d.}.-X*X+X+X*X;XwXwXwX",
"wXwXwX,X=XOXXXXXOX}.r.: 5 H o.O.Q E H w 5 1 @                                             X & 5 q I I W Y t x S r.D.oX,X#X+X+X-X6XwXwXwX",
"wXwXwX*X|.U.^.^./.L.t.t F X.O.O.Q J H q 3 # O                                             + % 3 q G J Q ..I s y B n.(. XT.U./.|.*XwXwXwX",
"wXwXwX}.P.F.F.F.F.A.7.f I O.O...Q J G 8 - O .                                             + O & q F E Q o...R t z a.L.Y.F.G.A.L.|.wXwXwX",
"wXwXwXT.S.A.A.G.G.N.7.U W O.O.o.J H i 6 # O O                                             + O # 4 e H J o.o.J e u u.J.L.C.B.C.A.Y.wXwXwX",
"wXwXwXI.A.C.B.A.G.C.7./ I O.O.X.P p 6 O = # O                                             + O O % i P J X.o.o.J f i.L.P.N.B.B.A.I.wXwXwX",
"wXwXwXZ.C.B.B.C.J.Z.i./ E Q ^ E i 6 = = O +                                                 + = 6 6 K E ^ Q ~ ~ / i.A.L.B.B.B.B.A.wXwXwX",
"wXwXwXa.a.s.s.s.n.a.4.U I J E p > ; - = o +                                                   o - - 6 K J Q Q ~ ) 4.n.N.a.a.a.y.r.wXwXwX",
"wXwXwX5.,.w.e.w.5.,.V a G P p 6 ; ; ; # . .                                       +           + = - - 8 G E J J Y } 5.e.2.,.,.>.<.wXwXwX",
"wXwXwX,.,.,.2.2.,.:.N s p 0 6 - , < # O o . . . + O + X +               + +       + o + X O O O = - ; 6 t K E H e C >.,.,.,.>.>.<.wXwXwX",
"wXwXwXZ.J.J.J.Z.S.M.1.0 6 : < z z y y ; ; ; % # O % # O O O O + + + + + . O # O O # = # % % ; > k z x , > 8 K F g 2.m.J.A.J.Z.n.n.wXwXwX",
"wXwXwX+XoXoX}.|..XK.6.9 ; , v S Z C M V V V u 9 y y z l , , , < > ; # > , , 9 y z x z y 7 x V S S } 4.S b , 8 i s w.}.oX|.oX}.}.oXwXwXwX",
"wXwXwX<XoX}.}.|..XK.e., , M q.d.p.q.p.f.a.g.&.m M %.5. . .Z  .Z V s y v Z S Z } 3.4.4.Z M %.p.d.x.x.S.C.7.c 6 6 0 y.}.}.}.}.}.oX-XwXwXwX",
"wXwXwXY.S.J.J.K.Y.M.8.v M p.].].].H.).).P.c.q.*.l.W.G.G.B.k.k.k.g.&.+.*.p.p.j.c.c.D.A.c.=.l.H.].[.XX+X#X.Xa.b - 0 t.Z.J.Z.Z.M.M.K.wXwXwX",
"wXwXwXM.n.n.n.n.M.m.5.{ h.!.3X&X&X1X%X%X1X_.v.;.b.`._.].!.H.H.!.z.h.*.c.E.H.H.!.~..X].!.z.z.`.{.{.&X&X&X3X_.0.u k 2.r.y.y.t.r.e.y.wXwXwX",
"wXwXwXm.y.t.t.r.y.e.1.*.z.[.0X5X5X2X5X0X5X{.v.h.l.Q.`._.[._.`.`.!.h.q.H.@X%X1X&X%X%X&X!.v.l.v.`.'.'.'.'.'.'.z.` z A 5.e.5.2.,.>.w.wXwXwX",
"wXwXwXwXw.w.w.w.e.2.:.3.v.&XqXqX5X5X5X9X0X1Xz.q.9.f.W.[.[.[.[._.v.j.h.E.<X8X8X8X5X5X2X@XH.=.h.z.Q.Q.v.Q.Q.Q.z.*.M A 4.8.5.>.:.:.wXwXwXwX"
};
