/* XPM */
static char *knif[] = {
/* columns rows colors chars-per-pixel */
"50 50 87 1 ",
"  c #0C0C0C",
". c #100E0F",
"X c #0F0F10",
"o c #100F10",
"O c #141313",
"+ c #1A1414",
"@ c #1C1B1B",
"# c #2E1E1E",
"$ c #252424",
"% c #2C2626",
"& c #262628",
"* c #2C2B2B",
"= c #312221",
"- c #332C2D",
"; c #3C2C2F",
": c #2F2F32",
"> c #322E30",
", c #3A2E30",
"< c #333334",
"1 c #3B3435",
"2 c #373739",
"3 c #37383A",
"4 c #3A3A3B",
"5 c #423732",
"6 c #463930",
"7 c #413538",
"8 c #443D3E",
"9 c #45413F",
"0 c #48433F",
"q c #3E3F40",
"w c #473F42",
"e c #3F4041",
"r c #444344",
"t c #4A4446",
"y c #4B4847",
"u c #464648",
"i c #4A4748",
"p c #4C4B4C",
"a c #54504A",
"s c #504E50",
"d c #545454",
"f c #565858",
"g c #5C5C5C",
"h c #736D5D",
"j c #605F60",
"k c #5F6060",
"l c #636363",
"z c #6B6B6B",
"x c #77716A",
"c c #6F6F70",
"v c #6F7071",
"b c #737474",
"n c #77787A",
"m c #7B7B7B",
"M c #807F7D",
"N c #7E7F80",
"B c #838384",
"V c #868789",
"C c #87898A",
"Z c #8C8C8D",
"A c #8E8F91",
"S c #8F9092",
"D c #949595",
"F c #959799",
"G c #97989A",
"H c #9B9C9D",
"J c #9E9FA1",
"K c #9FA1A1",
"L c #A2A3A5",
"P c #A5A7A9",
"I c #A7A9AA",
"U c #ACACAD",
"Y c #ADAFB0",
"T c #AFB1B1",
"R c #B3B4B5",
"E c #B6B7B9",
"W c #B6B8BA",
"Q c #BBBCBC",
"! c #BDBEC0",
"~ c #C4C4C4",
"^ c #CCCCCD",
"/ c #D4D4D5",
"( c #D9D7D8",
") c #D7D8DA",
"_ c #DBDBDB",
"` c #E4E4E4",
"' c None",
/* pixels */
"''''''''''''''''''''''''''''''''''''''''''''''''''",
"'R''''''''''''''''''''''''''''''''''''''''''''''''",
"''^Y''''''''''''''''''''''''''''''''''''''''''''''",
"''//TR''''''''''''''''''''''''''''''''''''''''''''",
"'''_/RE'''''''''''''''''''''''''''''''''''''''''''",
"''''/^II''''''''''''''''''''''''''''''''''''''''''",
"'''''(^JHL''''''''''''''''''''''''''''''''''''''''",
"'''''_/~LSA'''''''''''''''''''''''''''''''''''''''",
"''''''_/RGHPU'''''''''''''''''''''''''''''''''''''",
"'''''''_^LSPPY''''''''''''''''''''''''''''''''''''",
"'''''''_^~ZCYPR'''''''''''''''''''''''''''''''''''",
"''''''''_^!mmRIQ~'''''''''''''''''''''''''''''''''",
"'''''''''_^QzcKU!/''''''''''''''''''''''''''''''''",
"''''''''''_^IllLWE!^''''''''''''''''''''''''''''''",
"''''''''''`_^GgjNYPIQ'''''''''''''''''''''''''''''",
"'''''''''''`/~CljbPYPP''''''''''''''''''''''''''''",
"''''''''''''`(EbllnJYLF'''''''''''''''''''''''''''",
"''''''''''''`_^UngfzHTIFL'''''''''''''''''''''''''",
"'''''''''''''`(^UzjflDTPDF''''''''''''''''''''''''",
"''''''''''''''_^^HlgagmLLDZ'''''''''''''''''''''''",
"'''''''''''''''(^EZljfdzKIDBS'''''''''''''''''''''",
"'''''''''''''''(((^MljgfkCJVnm''''''''''''''''''''",
"''''''''''''''''(_(UzlgfdfCFNb''''''''''''''''''''",
"'''''''''''''''''__(Hlldfssfvn''''''''''''''''''''",
"''''''''''''''''''_`/Bgfrrrupl''''''''''''''''''''",
"''''''''''''''''''Q__~mgsbfsplr'''''''''''''''''''",
"'''''''''''''''''''~//~jfBr<4db'''''''''''''''''''",
"''''''''''''''''''''Q~~DgNp<q3ub''''''''''''''''''",
"'''''''''''''''''''''EUIzln33e3dm'''''''''''''''''",
"'''''''''''''''''''''ZGGm9Hlqqqes1+'''''''''''''''",
"''''''''''''''''''''''''''3Znqqq*49+''''''''''''''",
"'''''''''''''''''''''''''''4UFr:*-hrO'''''''''''''",
"''''''''''''''''''''''''''''2zdr<&*44O''''''''''''",
"'''''''''''''''''''''''''''''@qxs<--r4O'''''''''''",
"''''''''''''''''''''''''''''''@mzu1*<i1.''''''''''",
"'''''''''''''''''''''''''''''' #dki<*0x$.'''''''''",
"'''''''''''''''''''''''''''''''.@pku<18y@o''''''''",
"'''''''''''''''''''''''''''''''' +uxr;;8i$o'''''''",
"''''''''''''''''''''''''''''''''' Oad7-1ty$'''''''",
"''''''''''''''''''''''''''''''''''  *y;-18y%''''''",
"'''''''''''''''''''''''''''''''''''  %w%--5-@@@'''",
"'''''''''''''''''''''''''''''''''''' o>,=#+OO+@@+'",
"''''''''''''''''''''''''''''''''''''' o*6+.&::$@@'",
"''''''''''''''''''''''''''''''''''''''XO$o-3q4<&&d",
"'''''''''''''''''''''''''''''''''''''''X#@34443<&d",
"''''''''''''''''''''''''''''''''''''''''O@333333&f",
"''''''''''''''''''''''''''''''''''''''''X@>3333<4g",
"'''''''''''''''''''''''''''''''''''''''''O&333<*d'",
"''''''''''''''''''''''''''''''''''''''''''+*34rdd'",
"'''''''''''''''''''''''''''''''''''''''''''4ydi'''"
};
