/* XPM */
static char *pd[] = {
/* columns rows colors chars-per-pixel */
"68 68 234 2 ",
"   c #020202",
".  c #0E0E0C",
"X  c #1D160E",
"o  c #15130F",
"O  c #161515",
"+  c #1B1514",
"@  c #161916",
"#  c #1C1914",
"$  c #161619",
"%  c #1A1619",
"&  c #15191C",
"*  c #1C1A1B",
"=  c #0F1416",
"-  c #22170E",
";  c #24190D",
":  c #2A1C0F",
">  c #211613",
",  c #241B14",
"<  c #2B1D14",
"1  c #231C1A",
"2  c #2B1E1B",
"3  c #231719",
"4  c #311E10",
"5  c #2C2215",
"6  c #25201C",
"7  c #2C231B",
"8  c #2B2517",
"9  c #332316",
"0  c #33241A",
"q  c #3C261A",
"w  c #36291B",
"e  c #3C2B1C",
"r  c #3B2716",
"t  c #362A16",
"y  c #141C23",
"u  c #191C23",
"i  c #141D29",
"p  c #181720",
"a  c #0D1C22",
"s  c #211F21",
"d  c #142126",
"f  c #14222B",
"g  c #1A242C",
"h  c #1C2427",
"j  c #142431",
"k  c #1B2A35",
"l  c #1B2D3A",
"z  c #182938",
"x  c #262222",
"c  c #2B2522",
"v  c #2B2824",
"b  c #2D2B2A",
"n  c #292829",
"m  c #322C25",
"M  c #342E2B",
"N  c #3A2B23",
"B  c #3F3223",
"V  c #36312A",
"C  c #38312B",
"Z  c #3F3A2E",
"A  c #202F39",
"S  c #3A3836",
"D  c #432D1D",
"F  c #462C1A",
"G  c #48331F",
"H  c #422E22",
"J  c #443223",
"K  c #4B3523",
"L  c #4E3B25",
"P  c #4A382A",
"I  c #523623",
"U  c #533B25",
"Y  c #5A3D26",
"T  c #5A3E2A",
"R  c #533B2A",
"E  c #433D39",
"W  c #553E31",
"Q  c #55422C",
"!  c #5A432B",
"~  c #5C4226",
"^  c #494339",
"/  c #574334",
"(  c #62462B",
")  c #654A2E",
"_  c #6C4B2C",
"`  c #674326",
"'  c #744B2B",
"]  c #77512E",
"[  c #624631",
"{  c #644B34",
"}  c #6C4E32",
"|  c #664C3A",
" . c #724E33",
".. c #6D5135",
"X. c #675135",
"o. c #745333",
"O. c #7C5535",
"+. c #74533A",
"@. c #7B573A",
"#. c #7C5B3B",
"$. c #785A39",
"%. c #7A613E",
"&. c #182F41",
"*. c #4B4946",
"=. c #4D4B4A",
"-. c #484443",
";. c #534D43",
":. c #5E4F44",
">. c #5A5449",
",. c #5B5956",
"<. c #5A5757",
"1. c #635A4D",
"2. c #7D5C42",
"3. c #765D42",
"4. c #655D52",
"5. c #7C6342",
"6. c #696459",
"7. c #78715F",
"8. c #726D5F",
"9. c #6A6867",
"0. c #706C68",
"q. c #7A7668",
"w. c #797677",
"e. c #855D35",
"r. c #895D36",
"t. c #845C3A",
"y. c #8A5D39",
"u. c #805737",
"i. c #935E35",
"p. c #8C623C",
"a. c #88613A",
"s. c #93643A",
"d. c #956A3D",
"f. c #9B6B3E",
"g. c #946236",
"h. c #A16A3F",
"j. c #AC753D",
"k. c #AC783F",
"l. c #B0773E",
"z. c #875C40",
"x. c #836243",
"c. c #8C6542",
"v. c #886947",
"b. c #9B6D43",
"n. c #946A45",
"m. c #8C734E",
"M. c #9C7346",
"N. c #997349",
"B. c #9B7653",
"V. c #A56E41",
"C. c #A47244",
"Z. c #AD7743",
"A. c #AE7844",
"S. c #A4744A",
"D. c #AB7648",
"F. c #A57A4B",
"G. c #AC794A",
"H. c #B07644",
"J. c #B37D44",
"K. c #B57E49",
"L. c #A37C56",
"P. c #837C6C",
"I. c #817F7A",
"U. c #A5834E",
"Y. c #B58249",
"T. c #BB844C",
"R. c #B98448",
"E. c #A98555",
"W. c #BA8C55",
"Q. c #BE9359",
"!. c #8A8373",
"~. c #8B8774",
"^. c #928C7A",
"/. c #8A846F",
"(. c #B99367",
"). c #A78B6D",
"_. c #C18F4E",
"`. c #C5934F",
"'. c #C18E51",
"]. c #C59553",
"[. c #C39559",
"{. c #C69756",
"}. c #C29F72",
"|. c #C8A57D",
" X c #8D8B8A",
".X c #898686",
"XX c #9A9898",
"oX c #948F88",
"OX c #A39C88",
"+X c #A19B98",
"@X c #B7A888",
"#X c #A9A696",
"$X c #B3AD9A",
"%X c #B2AC93",
"&X c #B8B399",
"*X c #ACAAAA",
"=X c #A6A4A3",
"-X c #B9B6B6",
";X c #BEB9A1",
":X c #D4BC8D",
">X c #C2B899",
",X c #D0B48B",
"<X c #C4BDA4",
"1X c #C6BEA8",
"2X c #DFC597",
"3X c #C9C4A8",
"4X c #D0C6A4",
"5X c #D2CBAC",
"6X c #D5CBAA",
"7X c #C8C4B6",
"8X c #DCD4B3",
"9X c #DCD6BD",
"0X c #D5D0BD",
"qX c #D0CDB8",
"wX c #E4DCBC",
"eX c #EFDBAF",
"rX c #ECE2BD",
"tX c #C4C2C2",
"yX c #CDCBCB",
"uX c #CAC8C5",
"iX c #D6D3D3",
"pX c #D8D5D4",
"aX c #DAD8D6",
"sX c #D5D1D0",
"dX c #EBE4C5",
"fX c #EFECCE",
"gX c #F3ECCB",
"hX c #F4ECC5",
"jX c #F7F0CD",
"kX c #FBF3CE",
"lX c #FBF3D1",
"zX c #F7F1D1",
"xX c #F4ECD1",
"cX c None",
/* pixels */
"cXcXcXcXcXcXcXcXcXcXcXcXcXcXcXcXcXcXcXcXcXcXcXcXcXcXcXcXcXcXcXcXcXcXcXcXcXcXcXcXcXcXcXcXcXcXcXcXcXcXcXcXcXcXcXcXcXcXcXcXcXcXcXcXcXcXcXcX",
"cXcXcXcXcXcXcXcXcXcXcXcXcXcXcXcXcXcXcXcXcXcXcXcXcXcXcXcXcXcXcXcXcXcXcXcXcXcXcXcXcXcXcXcXcXcXcXcXcXcXcXcXcXcXcXcXcXcXcXcXcXcXcXcXcXcXcXcX",
"cXcXcXcXcXcXcXcXcXcXcXcXcXcXcXcXcXcXcXcXcXcXcXcXcXcXcXcXcXcXcXcXcXcXcXcXcXcXcXcXcXl cXcXcXcXcXcXcXcXcXcXcXcXcXcXcXcXcXcXcXcXcXcXcXcXcXcX",
"cXcXcXcXcXcXcXcXcXcXcXcXcXcXcXcXcXcXcXcXcXcXcXcXcXcXcXcXcXcXcXcXcXcXcXcXcXcXcXcXcXd @ y j cXcXcXcXcXcXcXcXcXcXcXcXcXcXcXcXcXcXcXcXcXcXcX",
"cXcXcXcXcXcXcXcXcXcXcXcXcXcXcXcXcXcXcXcXcXcXcXcXcXcXcXcXcXcXcXcXcXcXcXcXcXcXcXcXcXcX@ 6 1 h cXcXcXcXcXcXcXcXcXcXcXcXcXcXcXcXcXcXcXcXcXcX",
"cXcXcXcXcXcXcXcXcXcXcXcXcXcXcXcXcXcXcXcXcXcXcXcXcXcXcXcXcXcXcXcXcXd # 1 , * @ A cXcX* P +.3 g cXcXcXcXcXcXcXcXcXcXcXcXcXcXcXcXcXcXcXcXcX",
"cXcXcXcXcXcXcXcXcXcXcXcXcXcXcXcXcXcXcXcXcXcXcXcXcXcXcXcXcXcXcXd # J v.E.E.F.U , k cX& L S.{ # l cXcXcXcXcXcXcXcXcXcXcXcXcXcXcXcXcXcXcXcX",
"cXcXcXcXcXcXcXcXcXcXcXcXcXcXcXcXcXcXcXcXcXcXcXcXcXcXcXcXcXcXk ; o.W.{.].].].W.` # * X _ A.M.q g cXcXcXcXcXcXcXcXcXcXcXcXcXcXcXcXcXcXcXcX",
"cXcXcXcXcXcXcXcXcXcXcXcXcXcXcXcXcXcXcXcXcXcXcXcXcXcXcXcXcXcX@ X.Q.].].].].`.`.A.I : _ C.D.H.+.# cXcXcXcXcXcXcXcXcXcXcXcXcXcXcXcXcXcXcXcX",
"cXcXcXcXcXcXcXcXcXcXcXcXcXcXcXcXcXcXcXcXcXcXcXcXcXcXcXcXcXl + d.{.{.].].R.Y.J.j.f.s.D.Z.H.H.p.3 cXcXcXcXcXcXcXcXcXcXcXcXcXcXcXcXcXcXcXcX",
"cXcXcXcXcXcXcXcXcXcXcXcXcXcXcXcXcXcXcXcXcXcXcXcXcXcXcXcXcXd ; M.R.W.Q.J.A.H.k.k.k.j.k.H.H.H.c.3 k cXcXcXcXcXcXcXcXcXcXcXcXcXcXcXcXcXcXcX",
"cXcXcXcXcXcXcXcXcXcXcXcXcXcXcXcXcXcXcXcXcXcXcXcXcXcXcXcXcXf , $. ._ ] O.c.N.d.k.Z.k.Z.Z.A.D.} % cXcXcXcXcXcXcXcXcXcXcXcXcXcXcXcXcXcXcXcX",
"cXcXcXcXcXcXcXcXcXcXcXcXcXcX&.&.cXcXcXcXcXcXcXcXcXcXcXcXg @ @ o o o o X # X D ] p.M.Z.G.D.s.B p cXcXcXl cXcXcXcXcXcXcXcXcXcXcXcXcXcXcXcX",
"cXcXcXcXcXcXcXcXcXcXcXcXz & * * * k cXcXcXcXcXcXcXcXg @ t ! %.M.U.U.U.f.$.Q 8 X D _ p.s.a.) 3 n cXy % x * g cXcXcXcXcXcXcXcXcXcXcXcXcXcX",
"cXcXcXcXcXcXcXcXcXcXcXcX& 0 t.x.U + f cXcXcXcXcXcX# 0 { E.{.].`.`.`.`.`.].Q.M.Q ; : ) #.) , # u p 7 [ x..., d cXcXcXcXcXcXcXcXcXcXcXcXcX",
"cXcXcXcXcXcXcXcXcXcXcXcX# 3.#.) $.+.0 @ A cXcXz * G S.{.`.R.R.Y.R.Y.J.Y.R.W.].].%.5 , w 3 + # % J 5.} _ v.R & cXcXcXcXcXcXcXcXcXcXcXcXcX",
"cXcXcXcXcXcXcXcXcXcXcXf < 3., + + H B.Q # d g * L W.W.R.k.k.A.H.Z.A.Z.H.Z.k.Y.T.{.E.5 O + + < 3.5.5 O + < { + z cXcXcXcXcXcXcXcXcXcXcXcX",
"cXcXcXcXcXcXcXcXcXcXcXy H H + v 1 + 7 $.v.B @ , m.R.l.k.l.A.H.A.A.H.Z.D.H.Z.k.H.H.Q.| # + ! m.! , % c 6 + W < j cXcXcXcXcXcXcXcXcXcXcXcX",
"cXcXcXcXcXcXcXcXcXcXcX& P 7 1 M C c + - ! m.{ X 8 } C.D.D.C.b.s.g.p.s.d.b.C.G.G.M.Y , 8 $.m.G + # m C m % P w y cXcXcXcXcXcXcXcXcXcXcXcX",
"cXcXcXcXcXcXcXcXcXcXcX@ / < 6 M C C m 1 # B 5.v.w ; K T F q 8 7 5 , , < w q J ! t + L m.+.6 # 6 M V C C % B B h cXcXcXcXcXcXcXcXcXcXcXcX",
"cXcXcXcXcXcXcXcXcXcXl # / , x V V V V C 7 # X ) Q.! + - 8 B Q ! ) X.! ! R B < # ; %.E.B # * v C C V C V * m P & cXcXcXcXcXcXcXcXcXcXcXcX",
"cXcXcXcXcXcXcXcXcXcXj * { + c V V C C C V b # 5 F.Q.F.E.{.[.].].`.`.{.{.{.[.Q.F.E.].a.X 3 m M C V C C V * 0 W @ cXcXcXcXcXcXcXcXcXcXcXcX",
"cXcXcXcXcXcXcXcXcXcXa 6 { # c V V V V C 6 # + U D.K.T.Y.Y.A.l.k.k.k.Y.R.T.Y.J.J.R.Y.d.9 # # c V C C C C # 8 / $ cXcXcXcXcXcXcXcXcXcXcXcX",
"cXcXcXcXcXcXcXcXcXcXa 1 | > c V C V m , # e O.D.H.A.Z.Z.A.A.Z.Z.Z.Z.A.A.k.Z.A.A.A.A.A.f._ 5 + 7 m C C C * w / @ cXcXcXcXcXcXcXcXcXcXcXcX",
"cXcXcXcXcXcXcXcXcXcXf * | 1 6 V C m * # ! M.D.H.A.Z.Z.Z.Z.H.Z.Z.Z.Z.Z.k.Z.Z.Z.Z.Z.Z.Z.Z.D.p.H + 7 V C C * e / & cXcXcXcXcXcXcXcXcXcXcXcX",
"cXcXcXcXcXcXcXcXcXcXcX# | 2 1 V m , > ) D.D.H.A.D.Z.D.Z.Z.Z.Z.H.Z.H.H.C.g.j.A.H.Z.Z.Z.A.A.A.b.J X 7 C M # J P * cXcXcXcXcXcXcXcXcXcXcXcX",
"cXcXcXcXcXcXcXcXcXcXcX$ / e 3 b 6 o  .D.D.Z.d.( H F I y.Z.H.Z.H.A.k.Z.f.s.j.A.' G F I o.b.Z.Z.b.J # c c # W N u cXcXcXcXcXcXcXcXcXcXcXcX",
"cXcXcXcXcXcXcXcXcXcXcXu G Q + 1 + G S.Z.V.Y 1 + 2 w < Y Z.Z.Z.Z.Z.H.C.e.d.Z.S.4 7 w , X 9 O.D.D.n., % * + [ 1 f cXcXcXcXcXcXcXcXcXcXcXcX",
"cXcXcXcXcXcXcXcXcXcXcXh 7 +.1 + , $.h.D.f.F B | @.x.c.b.H.H.H.Z.Z.Z.Z.s.b.Z.k.c.c.t.+.! F Y D.H.n./ - + 0 [ $ j cXcXcXcXcXcXcXcXcXcXcXcX",
"cXcXcXcXcXcXcXcXcXcXcXj 3 ..( K { a.i.D.k.#.H 7 2 0 H | C.Z.Z.Z.Z.Z.k.Z.k.Z.d.` r 5 5 8 K n.H.V.i.u.Y K +.R @ cXcXcXcXcXcXcXcXcXcXcXcXcX",
"cXcXcXcXcXcXcXcXcXcXcXcX% R e.y.t.' h.D.p.9 # -.<.E x % r N.Z.D.(.2XY.Z.A.u.: + n *.<.V + G S.H.i.y.y.y.t.e y cXcXcXcXcXcXcXcXcXcXcXcXcX",
"cXcXcXcXcXcXcXcXcXcXcXcXy 5 e.t.O.u.l.D.r * 0.-XyXiXuXI.% q D.W.eXhX2XA.p.< c +XiXiX7X=X,.+ [ D.V.t.y.y.t.> j cXcXcXcXcXcXcXcXcXcXcXcXcX",
"cXcXcXcXcXcXcXcXcXcXcXcXf %  .t.' r.Z.z.+ <.*XsXpXpXpXpX<.+ y.(.kXkXeXA.Y # =XiXiXiXiXuX#Xn < b.C. .' t.I % cXcXcXcXcXcXcXcXcXcXcXcXcXcX",
"cXcXcXcXcXcXcXcXcXcXcXcXcXp I y.y.y.D.K x  XtXiXpXiXpXaX-X+ Y }.kXkXrXE.9 S pXiXiXiXiXpX-X9.+ #.C.] _ #.0 i cXcXcXcXcXcXcXcXcXcXcXcXcXcX",
"cXcXcXcXcXcXcXcXcXcXcXcXcXf < O.y.r.G.0 S *XyXiX*Xw.+XyXiXx 9 |.kXkXrXB.; 9.iXtXw..X7XaXuX X& ) V.t.O.~ % k cXcXcXcXcXcXcXcXcXcXcXcXcXcX",
"cXcXcXcXcXcXcXcXcXcXcXcXcXk + ` y.r.G.2 S *XuX-Xp p I..XpXb < ,XkX8X2XL.X w.iX=.. u 9.yXtXXX* ( f.a.a.r % cXcXcXcXcXcXcXcXcXcXcXcXcXcXcX",
"cXcXcXcXcXcXcXcXcXcXcXcXcXd 2 O.r.r.C.9 S =XtX X    b <.sXs 0 :XjX>X@XL., 6.uXh     S -X-X.X# } f.y.y.[ + k cXcXcXcXcXcXcXcXcXcXcXcXcXcX",
"cXcXcXcXcXcXcXcXcXcXcXcXcX& L e.r.r.g.Y * w.*X=Xx % =.w. X# [ :XwX3X5X(.e x -XE @ * 9.-X*X=.+ #.y.r.y.t.< y cXcXcXcXcXcXcXcXcXcXcXcXcXcX",
"cXcXcXcXcXcXcXcXcXcXcXcXf # } r.e.r.a.c.3 M I.*Xw.-.<. Xb 1 u.@X1X1X<X).! # =. X=.=. X=X0.* e c.r.r.y.y.K * cXcXcXcXcXcXcXcXcXcXcXcXcXcX",
"cXcXcXcXcXcXcXcXcXcXcXcXy 5 #.r.r.r.r.r.[ > p n -.<.=.s * P ! 1.:.:.>.1./ m # x ,.,.S x O 0 a.p.y.r.y.r.$.+ f cXcXcXcXcXcXcXcXcXcXcXcXcX",
"cXcXcXcXcXcXcXcXcXcXcXcX@ J r.r.y.y.t.y.a...D , + O # + % + $ O + # + + $ $ @ + + + > 9 G %.r.r.r.y.y.y.t.9 y cXcXcXcXcXcXcXcXcXcXcXcXcX",
"cXcXcXcXcXcXcXcXcXcXcXcXX X.a.r.r.y.y.y.t.y.y.x.W 1 + X E !.&X3X$X#X&X7X$Xq.b O # 1 { t.t.r.r.r.y.y.y.y.e.K u cXcXcXcXcXcXcXcXcXcXcXcXcX",
"cXcXcXcXcXcXcXcXcXcXcXcX@ J t.a.y.p.O.u.y.y.+.9 > , 7.3XjXdX*., + % + c ~.fXfX3X^ X + J @.r.r.r.r.y.y.y.$.0 y cXcXcXcXcXcXcXcXcXcXcXcXcX",
"cXcXcXcXcXcXcXcXcXcXcXcXd @ 8 ! O.t.] O.#.T < 2 8.wXlXkXkX/ + 6 c C S 3 X OXjXkXlX3X>.3 9 } e.r.r.t.+.I , & cXcXcXcXcXcXcXcXcXcXcXcXcXcX",
"cXcXcXcXcXcXcXcXcXcXcXcXcXj y * 7 ! #.a.T - m #XjXkXkXkXlXw # C C ^ *.m + P.zXkXlXkXrX~.8 8 ..a.O.K , # i cXcXcXcXcXcXcXcXcXcXcXcXcXcXcX",
"cXcXcXcXcXcXcXcXcXcXcXcXcXcXcXy # L t...> E 5XkXkXkXkXkXlX6.# 6 m M m 1 , $XkXkXkXkXkXkX%X* 9 %.o.r % g cXcXcXcXcXcXcXcXcXcXcXcXcXcXcXcX",
"cXcXcXcXcXcXcXcXcXcXcXcXcXcXcX& J #.e.q 6 &XjXrXhX4X>XhXlXdX;.+ + # + , ^.gXlXlX8X&XhXkXkXq.# ! t.2.2 f cXcXcXcXcXcXcXcXcXcXcXcXcXcXcXcX",
"cXcXcXcXcXcXcXcXcXcXcXcXcXcXcXi , ~ 2.; 1.jXhX&X6XwX4XgXlXlXgX%X;.3 P.<XgXkXlXlX8X6XkXkXkX9Xv J @.K @ z cXcXcXcXcXcXcXcXcXcXcXcXcXcXcXcX",
"cXcXcXcXcXcXcXcXcXcXcXcXcXcXcXcXi # e + 1.dXkXdXjXkXlXlXkXlXkXlX!., qXkXlXkXkX6X@X6XlXlXgXqXc 2 7 % j cXcXcXcXcXcXcXcXcXcXcXcXcXcXcXcXcX",
"cXcXcXcXcXcXcXcXcXcXcXcXcXcXcXcXcXd y O m #X5XgXkXkXlXkXkXkXkX9XE + q.lXlXkXlXwX>XdXlXdX5X!.> + y &.cXcXcXcXcXcXcXcXcXcXcXcXcXcXcXcXcXcX",
"cXcXcXcXcXcXcXcXcXcXcXcXcXcXcXcXcXcXcX$ % ^ $X<X5XwXjXhXwXzX9X;.# c # P.dXgX8XlXxXwX5X<XOX6 + y cXcXcXcXcXcXcXcXcXcXcXcXcXcXcXcXcXcXcXcX",
"cXcXcXcXcXcXcXcXcXcXcXcXcXcXcXcXcXcXcX& * - 7 !.1X<X<X6.> c + * P.0X^ > 1 1 + OX;X3X&X6.1 , 1 u cXcXcXcXcXcXcXcXcXcXcXcXcXcXcXcXcXcXcXcX",
"cXcXcXcXcXcXcXcXcXcXcXcXcXcXcXcXcXcXcX& P ..9 X M 0.^.oX4.1.8.OX<X;X;X^.4.>.0.OX!.,.6 - e x.D u cXcXcXcXcXcXcXcXcXcXcXcXcXcXcXcXcXcXcXcX",
"cXcXcXcXcXcXcXcXcXcXcXcXcXcXcXcXcXcXcXu J D.d.R 2 > + m ;.6.q./.^.^.~.!.q.4.^ m % 3 w _ b.S.0 y cXcXcXcXcXcXcXcXcXcXcXcXcXcXcXcXcXcXcXcX",
"cXcXcXcXcXcXcXcXcXcXcXcXcXcXcXcXcXcXcXd 0 C.H.D.@.T H 0 2 + + % O O = $ $ * 5 w K ) t.S.H.n., f cXcXcXcXcXcXcXcXcXcXcXcXcXcXcXcXcXcXcXcX",
"cXcXcXcXcXcXcXcXcXcXcXcXcXcXcXcXcXcXcXf , p.Z.D.i.y.t.u.2.3 u cXcXcXcXcX* w #.t.t.O.p.D.D.t.+ cXcXcXcXcXcXcXcXcXcXcXcXcXcXcXcXcXcXcXcXcX",
"cXcXcXcXcXcXcXcXcXcXcXcXcXcXcXcXcXcXcXcX# } D.D.s.t._ O.t.+ f cXcXcXcXcXy 7 z.y.t.' i.D.D.~ % cXcXcXcXcXcXcXcXcXcXcXcXcXcXcXcXcXcXcXcXcX",
"cXcXcXcXcXcXcXcXcXcXcXcXcXcXcXcXcXcXcXcX% L D.D.f.e.] #.} # g cXcXcXcXcXd # t.y.r.e.n.g.f.9 & cXcXcXcXcXcXcXcXcXcXcXcXcXcXcXcXcXcXcXcXcX",
"cXcXcXcXcXcXcXcXcXcXcXcXcXcXcXcXcXcXcXcXi 0 m.S.M.a.e.a.T $ cXcXcXcXcXcXcX# [ z.t.a.B.a.a., i cXcXcXcXcXcXcXcXcXcXcXcXcXcXcXcXcXcXcXcXcX",
"cXcXcXcXcXcXcXcXcXcXcXcXcXcXcXcXcXcXcXcXi % : < w 9 9 7 < y cXcXcXcXcXcXcX% , 0 9 9 0 5 - O cXcXcXcXcXcXcXcXcXcXcXcXcXcXcXcXcXcXcXcXcXcX",
"cXcXcXcXcXcXcXcXcXcXcXcXcXcXcXcXcXcXcXcXcX& * * # o . . # f cXcXcXcXcXcXcXp @ . . X # * * a cXcXcXcXcXcXcXcXcXcXcXcXcXcXcXcXcXcXcXcXcXcX",
"cXcXcXcXcXcXcXcXcXcXcXcXcXcXcXcXcXcXcXcXcXi % C ;.*.S 6 a cXcXcXcXcXcXcXcXcX$ 6 S =.=.V # k cXcXcXcXcXcXcXcXcXcXcXcXcXcXcXcXcXcXcXcXcXcX",
"cXcXcXcXcXcXcXcXcXcXcXcXcXcXcXcXcXcXcXcXcXcXy * * 1 # * j cXcXcXcXcXcXcXcXcXf & * 2 * * i cXcXcXcXcXcXcXcXcXcXcXcXcXcXcXcXcXcXcXcXcXcXcX",
"cXcXcXcXcXcXcXcXcXcXcXcXcXcXcXcXcXcXcXcXcXcXcXf f y i cXcXcXcXcXcXcXcXcXcXcXcXcXy & i j cXcXcXcXcXcXcXcXcXcXcXcXcXcXcXcXcXcXcXcXcXcXcXcX",
"cXcXcXcXcXcXcXcXcXcXcXcXcXcXcXcXcXcXcXcXcXcXcXcXcXcXcXcXcXcXcXcXcXcXcXcXcXcXcXcXcXcXcXcXcXcXcXcXcXcXcXcXcXcXcXcXcXcXcXcXcXcXcXcXcXcXcXcX",
"cXcXcXcXcXcXcXcXcXcXcXcXcXcXcXcXcXcXcXcXcXcXcXcXcXcXcXcXcXcXcXcXcXcXcXcXcXcXcXcXcXcXcXcXcXcXcXcXcXcXcXcXcXcXcXcXcXcXcXcXcXcXcXcXcXcXcXcX",
"cXcXcXcXcXcXcXcXcXcXcXcXcXcXcXcXcXcXcXcXcXcXcXcXcXcXcXcXcXcXcXcXcXcXcXcXcXcXcXcXcXcXcXcXcXcXcXcXcXcXcXcXcXcXcXcXcXcXcXcXcXcXcXcXcXcXcXcX",
"cXcXcXcXcXcXcXcXcXcXcXcXcXcXcXcXcXcXcXcXcXcXcXcXcXcXcXcXcXcXcXcXcXcXcXcXcXcXcXcXcXcXcXcXcXcXcXcXcXcXcXcXcXcXcXcXcXcXcXcXcXcXcXcXcXcXcXcX"
};
