/* XPM */
static char *pl[] = {
/* columns rows colors chars-per-pixel */
"68 68 213 2 ",
"   c #070809",
".  c #110E0D",
"X  c #1B150D",
"o  c #16130D",
"O  c #0A1218",
"+  c #151515",
"@  c #1B1614",
"#  c #1D1A15",
"$  c #13161B",
"%  c #19171B",
"&  c #151A1C",
"*  c #1B1B1B",
"=  c #24180F",
"-  c #2C1C0F",
";  c #22160D",
":  c #221612",
">  c #231B13",
",  c #2B1D13",
"<  c #231D1B",
"1  c #281B19",
"2  c #311F16",
"3  c #331F1A",
"4  c #1D221D",
"5  c #2C2315",
"6  c #25211C",
"7  c #2A221C",
"8  c #262015",
"9  c #34251B",
"0  c #3A261A",
"q  c #3B2B1C",
"w  c #362717",
"e  c #3A311D",
"r  c #0F1E28",
"t  c #0F1B22",
"y  c #141C22",
"u  c #1B1E22",
"i  c #141D2A",
"p  c #151B26",
"a  c #241F21",
"s  c #0E222A",
"d  c #152025",
"f  c #14232C",
"g  c #19242C",
"h  c #182124",
"j  c #0E2332",
"k  c #0E2935",
"l  c #142432",
"z  c #1A2634",
"x  c #142836",
"c  c #1B2935",
"v  c #142B3A",
"b  c #182839",
"n  c #262322",
"m  c #2C2523",
"M  c #2D2A26",
"N  c #2C2C2C",
"B  c #342B23",
"V  c #3D2C22",
"C  c #342F2A",
"Z  c #392A26",
"A  c #3D3123",
"S  c #35312C",
"D  c #39312B",
"F  c #212F3B",
"G  c #3E3934",
"H  c #3B3736",
"J  c #442D1D",
"K  c #44321E",
"L  c #4E341F",
"P  c #52351E",
"I  c #432F22",
"U  c #443323",
"Y  c #4A3522",
"T  c #4E3B25",
"R  c #483928",
"E  c #513624",
"W  c #543B25",
"Q  c #553D2A",
"!  c #5B3E29",
"~  c #583E26",
"^  c #433B34",
"/  c #643F27",
"(  c #5B422C",
")  c #544229",
"_  c #484237",
"`  c #62442A",
"'  c #654A2D",
"]  c #6B4C2E",
"[  c #744D2C",
"{  c #75512F",
"}  c #654B31",
"|  c #6C4E32",
" . c #6D4736",
".. c #6E5234",
"X. c #735234",
"o. c #7B5533",
"O. c #7E5935",
"+. c #7A5638",
"@. c #765A3A",
"#. c #7C5A3B",
"$. c #725738",
"%. c #7E633E",
"&. c #4B4544",
"*. c #4E4B4A",
"=. c #494744",
"-. c #514A42",
";. c #5A5445",
":. c #635E4D",
">. c #615B50",
",. c #785B40",
"<. c #666157",
"1. c #726E67",
"2. c #7B7465",
"3. c #7D766A",
"4. c #747473",
"5. c #636361",
"6. c #855C36",
"7. c #895D35",
"8. c #855D39",
"9. c #895E39",
"0. c #805736",
"q. c #915E33",
"w. c #945E2D",
"e. c #96612F",
"r. c #84623D",
"t. c #8E643C",
"y. c #8D6035",
"u. c #956234",
"i. c #9A6535",
"p. c #93653B",
"a. c #996739",
"s. c #94693C",
"d. c #9B6A3C",
"f. c #9D6935",
"g. c #A26D3C",
"h. c #A5713E",
"j. c #A9723E",
"k. c #836441",
"l. c #8B6341",
"z. c #8C6A43",
"x. c #80624C",
"c. c #946A44",
"v. c #9C6D41",
"b. c #996D48",
"n. c #926741",
"m. c #8F7246",
"M. c #9D7144",
"N. c #9C7A4C",
"B. c #97774C",
"V. c #85755F",
"C. c #A36E43",
"Z. c #A47344",
"A. c #AD7644",
"S. c #AD7944",
"D. c #A4754A",
"F. c #AB7648",
"G. c #AC7949",
"H. c #A37A4A",
"J. c #B07644",
"K. c #B27C44",
"L. c #B67E4B",
"P. c #A97E52",
"I. c #A9804E",
"U. c #BB854D",
"Y. c #BB8A4D",
"T. c #B28248",
"R. c #A58151",
"E. c #B38551",
"W. c #BC8D51",
"Q. c #B98B55",
"!. c #BB925A",
"~. c #918A7B",
"^. c #9A937E",
"/. c #88816E",
"(. c #AB8F70",
"). c #A88464",
"_. c #C39256",
"`. c #888686",
"'. c #928E8D",
"]. c #989386",
"[. c #989796",
"{. c #A39C8A",
"}. c #B1AB95",
"|. c #B4AE9A",
" X c #B1AA93",
".X c #BAB7B7",
"XX c #A9A7A6",
"oX c #C4BE9F",
"OX c #D8BF9B",
"+X c #C4BBA4",
"@X c #C9BCA4",
"#X c #C8BEA9",
"$X c #CAC2A5",
"%X c #D5CBAB",
"&X c #D5CDB2",
"*X c #DED8B8",
"=X c #E5DCBC",
"-X c #E5DBBD",
";X c #E9E3BF",
":X c #CBCAC8",
">X c #D2CECE",
",X c #D3D1CF",
"<X c #D6D4D2",
"1X c #D9D6D4",
"2X c #D7D9D7",
"3X c #E5DDC2",
"4X c #EDE4C4",
"5X c #EDE8C3",
"6X c #F4EDCC",
"7X c #F3EBC8",
"8X c #FDF4CE",
"9X c #FCF4D0",
"0X c None",
/* pixels */
"0X0X0X0X0X0X0X0X0X0X0X0X0X0X0X0X0X0X0X0X0X0X0X0X0X0X0X0X0X0X0X0X0X0X0X0X0X0X0X0X0X0X0X0X0X0X0X0X0X0X0X0X0X0X0X0X0X0X0X0X0X0X0X0X0X0X0X0X",
"0X0X0X0X0X0X0X0X0X0X0X0X0X0X0X0X0X0X0X0X0X0X0X0X0X0X0X0X0X0X0X0X0X0X0X0X0X0X0X0X0X0X0X0X0X0X0X0X0X0X0X0X0X0X0X0X0X0X0X0X0X0X0X0X0X0X0X0X",
"0X0X0X0X0X0X0X0X0X0X0X0X0X0X0X0X0X0X0X0X0X0X0X0X0X0X0X0X0X0X0X0X0X0X0X0X0X0X0X0X0X0X0X0X0X0X0X0X0X0X0X0X0X0X0X0X0X0X0X0X0X0X0X0X0X0X0X0X",
"0X0X0X0X0X0X0X0X0X0X0X0X0X0X0X0X0X0X0X0X0X0X0X0X0X0X0X0X0X0X0X0X0X0X0X0X0X0X0X0X0X0X0X0X0X0X0X0X0X0X0X0X0X0X0X0X0X0X0X0X0X0X0X0X0X0X0X0X",
"0X0X0X0X0X0X0X0X0X0X0X0X0X0X0X0X0X0X0X0X0X0X0X0X0X0X0X0X0X0X0X0X0X0X0X0X0X0X0X0X0X0X0X0X0X0X0X0X0X0X0X0X0X0X0X0X0X0X0X0X0X0X0X0X0X0X0X0X",
"0X0X0X0X0X0X0X0X0X0X0X0X0X0X0X0X0X0X0X0X0X0X0X0X0X0X0X0X0X0X0X0X0X0X0X0X0X0X0X0X0X0X0X0X0X0X0X0X0X0X0X0X0X0X0X0X0X0X0X0X0X0X0X0X0X0X0X0X",
"0X0X0X0X0X0X0X0X0X0X0X0X0X0X0X0X0X0X0X0X0X0X0X0X0X0X0X0X0X0X0X0X0X0X0X0X0X0X0X0X0X0X0X0X0X0X0X0X0X0X0X0X0X0X0X0X0X0X0X0X0X0X0X0X0X0X0X0X",
"0X0X0X0X0X0X0X0X0X0X0X0X0X0X0X0X0X0X0X0X0X0X0X0X0X0X0X0X0X0X0X0X0X0X0X0X0X0X0X0X0X0X0X0X0X0X0X0X0X0X0X0X0X0X0X0X0X0X0X0X0X0X0X0X0X0X0X0X",
"0X0X0X0X0X0X0X0X0X0X0X0X0X0X0X0X0X0X0Xf f 0X0X0Xk v 0X0X0X0X0X0X0X0X0X0X0X0X0X0X0X0X0X0X0X0X0X0X0X0X0X0X0X0X0X0X0X0X0X0X0X0X0X0X0X0X0X0X",
"0X0X0X0X0X0X0X0X0X0X0X0X0X0X0X0X0X0Xy & @ u h p & + y z 0X0X0X0X0X0X0X0X0X0X0X0X0X0X0X0X0X0X0X0X0X0X0X0X0X0X0X0X0X0X0X0X0X0X0X0X0X0X0X0X",
"0X0X0X0X0X0X0X0X0X0X0X0X0X0X0X0X0Xx * S # V B @ M < 7 B d 0X0X0X0X0X0X0X0X0X0X0X0X0X0X0X0X0X0X0X0X0X0X0X0X0X0X0X0X0X0X0X0X0X0X0X0X0X0X0X",
"0X0X0X0X0X0X0X0X0X0X0X0X0X0X0X0X0Xd 6 S 7 # < < S m > ,.J p 0X0X0X0X0X0X0X0X0X0X0X0X0X0X0X0X0X0X0X0X0X0X0X0X0X0X0X0X0X0X0X0X0X0X0X0X0X0X",
"0X0X0X0X0X0X0X0X0X0X0X0X0X0Xf s s + # 4 # @ @ M D B # o.t.5 i 0X0X0X0X0X0X0X0X0X0X0X0X0X0X0X0X0X0X0X0X0X0X0X0X0X0X0X0X0X0X0X0X0X0X0X0X0X",
"0X0X0X0X0X0X0X0X0X0X0Xj t @ 5 ) $.r.r.k.@.V 1 S D S < T n.n.: i 0X0X0X0X0X0X0X0X0X0X0X0X0X0X0X0X0X0X0X0X0X0X0X0X0X0X0X0X0X0X0X0X0X0X0X0X",
"0X0X0X0X0X0X0X0X0Xr 4 R @.H.!.W.Y.Y.U.U.E.Q 1 D D C n A 8.s...< l 0X0X0X0X0X0X0X0X0X0X0X0X0X0X0X0X0X0X0X0X0X0X0X0X0X0X0X0X0X0X0X0X0X0X0X",
"0X0X0X0X0X0X0Xj * K N.W.T.T.K.j.S.j.Z.F.Z.V m D D S n 0 8.7.n.) y 0X0X0X0X0X0X0X0X0X0X0X0X0X0X0X0X0X0X0X0X0X0X0X0X0X0X0X0X0X0X0X0X0X0X0X",
"0X0X0X0X0X0Xi < @.T.T.S.A.A.J.G.A.w.g.A.Z.' # m A S m w o.7.y.r.1 f 0X0X0X0X0X0X0X0X0X0X0X0X0X0X0X0X0X0X0X0X0X0X0X0X0X0X0X0X0X0X0X0X0X0X",
"0X0X0X0X0Xj a k.S.S.S.F.F.A.G.J.A.A.g.i.j.Z.K @ M D m 5 o.7.7.t.E & 0X0X0X0X0X0X0X0X0X0X0X0X0X0X0X0X0X0X0X0X0X0X0X0X0X0X0X0X0X0X0X0X0X0X",
"0X0X0X0Xx @ l.J.S.S.F.8.q 0 ( b.F.F.u.w.A.S.b.q # D m , o.7.7.7.o.8 v 0X0X0X0X0X0X0X0X0X0X0X0X0X0X0X0X0X0X0X0X0X0X0X0X0X0X0X0X0X0X0X0X0X",
"0X0X0X0Xy ` F.J.S.S.Z.9.L U , , ] Z.A.A.A.Z.S.O.o B B 1 X.7.7.7.r.e d 0X0X0X0X0X0X0X0X0X0X0X0X0X0X0X0X0X0X0X0X0X0X0X0X0X0X0X0X0X0X0X0X0X",
"0X0X0X0X& X.F.A.S.j.K.A.A.D.t.J - s.j.S.S.A.j.F.w 6 m , o.6.7.7.7.) $ 0X0X0X0X0X0X0X0X0X0X0X0X0X0X0X0X0X0X0X0X0X0X0X0X0X0X0X0X0X0X0X0X0X",
"0X0X0X0Xx , C.J.S.S.v.] E W | z.r.Z.S.J.S.A.S.S.+.# 6 9 o.y.7.7.7.( + 0X0X0X0X0X0X0X0X0X0X0X0X0X0X0X0X0X0X0X0X0X0X0X0X0X0X0X0X0X0X0X0X0X",
"0X0X0X0X0X+ 0.J.A.D.K < G S # q [ D.K.S.J.j.J.S.b.: # 9 #.y.7.7.7.] @ 0X0X0X0X0X0X0X0X0X0X0X0X0X0X0X0X0X0X0X0X0X0X0X0X0X0X0X0X0X0X0X0X0X",
"0X0X0X0X0X& / J.G.! m [.2X1X.X*.: ] j.S.J.S.J.A.D.1 * q #.y.7.7.y.} + f 0X0X0X0X0X0X0X0X0X0X0X0X0X0X0X0X0X0X0X0X0X0X0X0X0X0X0X0X0X0X0X0X",
"0X0X0X0X0Xf U I.l.: '.1X1X1X1X,X1., p.A.S.A.J.j.S.o.P X.8.7.7.7.7.W # f 0X0X0X0X0X0X0X0X0X0X0X0X0X0X0X0X0X0X0X0X0X0X0X0X0X0X0X0X0X0X0X0X",
"0X0X0X0X0Xk ^ OX( m XX4.`.:X1X1X.X* ] A.J.S.S.h.f.d.9.7.8.9.y.9.0.P V p 0X0X0X0X0X0X0X0X0X0X0X0X0X0X0X0X0X0X0X0X0X0X0X0X0X0X0X0X0X0X0X0X",
"0X0X0X0X0X0XS ;X^ &.N   5.[.<X1X>XH W K.S.S.A.h.d.a.7.7.6.9.7.7.O.O.Y u 0X0X0X0X0X0X0X0X0X0X0X0X0X0X0X0X0X0X0X0X0X0X0X0X0X0X0X0X0X0X0X0X",
"0X0X0X0X0X0XM *X_ &.+   4 4.<X<X<X&.P S.S.A.g.u.Z.q.7.9.7.9.7.7.7.7.E & 0X0X0X0X0X0X0X0X0X0X0X0X0X0X0X0X0X0X0X0X0X0X0X0X0X0X0X0X0X0X0X0X",
"0X0X0X0X0X0XM *X;.H N + *.[.<X<X:XN ! S.S.A.g.q.D.7.7.7.6.9.7.7.7.7.E y 0X0X0X0X0X0X0X0X0X0X0X0X0X0X0X0X0X0X0X0X0X0X0X0X0X0X0X0X0X0X0X0X",
"0X0X0X0X0X0XC 5XV.> `.4.[.<X<X,X`.: 8.A.S.S.A.A.g.7.7.9.6.6.7.7.7.6.w $ 0X0X0X0X0X0X0X0X0X0X0X0X0X0X0X0X0X0X0X0X0X0X0X0X0X0X0X0X0X0X0X0X",
"0X0X0X0X0Xv H 7X(.3 *..X<X2X:X[.C I Z.A.S.S.A.A.g.7.7.6.6.9.7.7.7.0.= . 0X0X0X0X0X0X0X0X0X0X0X0X0X0X0X0X0X0X0X0X0X0X0X0X0X0X0X0X0X0X0X0X",
"0X0X0X0X0Xs =.&X).k.1 n =.=.S # q M.S.A.J.S.J.S.g.7.7.7.9.9.7.6.7.7.K y 0X0X0X0X0X0X0X0X0X0X0X0X0X0X0X0X0X0X0X0X0X0X0X0X0X0X0X0X0X0X0X0X",
"0X0XO O d & # 7 1 q U A U Y Q +.v.F.F.S.J.j.J.A.A.7.6.6.7.7.o.o.6.7.( p 0X0X0X0X0X0X0X0X0X0X0X0X0X0X0X0X0X0X0X0X0X0X0X0X0X0X0X0X0X0X0X0X",
"v & . o # # {.|.^.:.< X T z.F.A.S.F.A.S.J.A.S.S.A.7.6.9.7.7.[ [ 9.7.| & 0X0X0X0X0X0X0X0X0X0X0X0X0X0X0X0Xv f & @ & i F 0X0X0X0X0X0X0X0X0X",
"i n S S n # *X8X8X8X4X^.7 : I n.F.F.A.A.S.J.A.A.j.7.7.6.6.0.o.O.9.7.@.@ y y & + & & & y l z 0X0X0X0X0Xp > ' c.B.m.' > h 0X0X0X0X0X0X0X0X",
"i n S m # /.8X8X9X8X9X9X3X~.R = q X.C.S.S.S.A.A.j.7.9.9.6.[ o.8.9.7.,.: T r.z.z.z.z.r.{ ( B * z 0Xg 4 | R.E.L.L.U._.E.Y u 0X0X0X0X0X0X0X",
"v & n # 3.8X8X8X9X9X8X8X8X8X4X X;.> w z.J.A.A.A.i.q.6.6.8.8.#.7.9.#.T > O.K.K.K.K.K.K._._.!.B.V @ # 8.F.A.A.J.J.J.K.U.!.A c 0X0X0X0X0X0X",
"0Xl @ 1.6X8X8X8X9X9X8X4X%X6X8X8X6X+X^ , v.A.A.C.7.7.9.9.y.y.6...Y , : ` Z.J.J.J.J.j.J.K.L.U.W.D.) # t.S.A.A.g.A.F.J.J.Y.%.* 0X0X0X0X0X0X",
"0X0X* |.8X8X8X8X9X8X9X8X-X4X9X8X8X8X*X5 W F.q.w.7.7.7.7.7.7.{ = , E b.F.A.J.J.J.J.J.J.J.S.J.K.J.A.` v.A.F.i.g.J.J.A.S.T.N.# 0X0X0X0X0X0X",
"0X0X* 2.8X8X9X8X8X8X9X9X4X%X8X8X8X9X9X~., { 7.q.7.7.7.7.7.7.{ : @.S.J.J.A.A.A.A.S.J.J.J.J.J.J.J.j.J.7.Z.Z.a.d.C.A.A.S.K.R.* 0X0X0X0X0X0X",
"0X0Xj n +X9X9X9X5XoX6X9X9X9X9X8X8X8X8X}.: ] 7.7.7.7.7.7.7.7.[ : X.g.A.A.A.J.S.A.A.J.J.J.J.J.J.F.S.F.w ( 7.7.7.7.q.C.A.K.R.# 0X0X0X0X0X0X",
"0X0X0Xi m |.*X}.-.> %X6X9X9X9X9X9X8X;X].: } 7.7.7.9.7.6.0.o.Q = r.S.A.A.S.J.S.i.w.g.J.J.J.J.J.J.J.F.0 q ` [ 7.7.7.p.f.K.N.# 0X0X0X0X0Xy ",
"0X0X0X0Xl * m 4 _ ^.@X$X&X-X-X-X=X%X$X<.5 #.7.8.{ E q 9 5 , = E C.F.A.A.K.S.g.i.C.F.A.F.J.J.F.A.J.F.0 * * * q +.9.y.h.S.I.> 0X0X0X0Xy + ",
"0X0X0X0X0Xf @ >.|.+X$X@X$X@X@X#X+X#X].8 U ..( V , : 9 Y ~ } 6.C.F.J.A.A.j.J.g.g.A.J.J.J.J.F.J.J.F.G.5 0X0X0X# Y 8.7.h.S.Q.' # g f * B # ",
"0X0X0X0X0X0Xj $ 6 -.2.~.{. X}.].3._ # @ * + y l 0X%  .D.J.S.J.J.J.F.A.A.A.A.A.F.A.S.A.A.F.J.J.Z.Z.M.o 0X0X0Xc , +.6.a.F.S.W.m.) ( 8.,.u ",
"0X0X0X0X0X0X0X0Xf f y y + % * & & d z s 0X0X0X0X0Xy J s.v.F.A.A.J.A.v.A.A.A.A.A.v.P v.F.A.A.g.0.- Y $ 0X0X0X0Xp ( 8.u.F.S.S.K.L.K.Z.Q z ",
"0X0X0X0X0X0X0X0X0X0X0X0X0X0X0X0X0X0X0X0X0X0X0X0X0Xf # ..J y.K.S.F.v.o.l.A.A.A.A.7.; p.A.A.Z.i.8.5 o d 0X0X0X0Xz 5 +.7.C.S.J.J.J.Z.o.# F ",
"0X0X0X0X0X0X0X0X0X0X0X0X0X0X0X0X0X0X0X0X0X0X0X0X0X0Xy > X | j.S.J.g.J J C.A.A.A.O.: c.K.S.A.A.n.w & 0X0X0X0X0X0X& U O.7.p.d.d.p.] 8 g 0X",
"0X0X0X0X0X0X0X0X0X0X0X0X0X0X0X0X0X0X0X0X0X0X0X0X0X0Xf + + ( S.S.A.C.I Z 9.9.p.y.X.= t.S.S.S.S.t.e g 0X0X0X0X0X0X0X* q } $...` K > g 0X0X",
"0X0X0X0X0X0X0X0X0X0X0X0X0X0X0X0X0X0X0X0X0X0X0X0X0X0X0Xm 5 q S.S.J.q.I : 9 0 J W ( > X.v.Z.S.Z.t.q c 0X0X0X0X0X0X0X0Xz $ $ + $ f 0X0X0X0X",
"0X0X0X0X0X0X0X0X0X0X0X0X0X0X0X0X0X0X0X0X0X0X0X0X0X0X0X< A , S.j.C.a.9 p i h $ + o @ ( d.S.S.Z.t.9 F 0X0X0X0X0X0X0X0X0X0X0X0X0X0X0X0X0X0X",
"0X0X0X0X0X0X0X0X0X0X0X0X0X0X0X0X0X0X0X0X0X0X0X0X0X0X0X# D X D.h.g.9.1 l 0X0X0Xi V I I a.S.S.C.O.7 0X0X0X0X0X0X0X0X0X0X0X0X0X0X0X0X0X0X0X",
"0X0X0X0X0X0X0X0X0X0X0X0X0X0X0X0X0X0X0X0X0X0X0X0X0X0X0X% : @ l.S.a.6.< 0X0X0X0Xi 6 D , p.A.S.d.' * 0X0X0X0X0X0X0X0X0X0X0X0X0X0X0X0X0X0X0X",
"0X0X0X0X0X0X0X0X0X0X0X0X0X0X0X0X0X0X0X0X0X0X0X0X0X0X0X% m @ V ! / Y % 0X0X0X0Xg @ @ @ Q } ( Y 5 u 0X0X0X0X0X0X0X0X0X0X0X0X0X0X0X0X0X0X0X",
"0X0X0X0X0X0X0X0X0X0X0X0X0X0X0X0X0X0X0X0X0X0X0X0X0X0X0X& H @ a 1 # @ y 0X0X0X0Xg a &.> # # < 6 * h 0X0X0X0X0X0X0X0X0X0X0X0X0X0X0X0X0X0X0X",
"0X0X0X0X0X0X0X0X0X0X0X0X0X0X0X0X0X0X0X0X0X0X0X0X0X0X0Xi % % ^ &._ n z 0X0X0X0Xg % m % H -.-.S & 0X0X0X0X0X0X0X0X0X0X0X0X0X0X0X0X0X0X0X0X",
"0X0X0X0X0X0X0X0X0X0X0X0X0X0X0X0X0X0X0X0X0X0X0X0X0X0X0X0X0Xy u n & y 0X0X0X0X0X0Xg h & < a < & g 0X0X0X0X0X0X0X0X0X0X0X0X0X0X0X0X0X0X0X0X",
"0X0X0X0X0X0X0X0X0X0X0X0X0X0X0X0X0X0X0X0X0X0X0X0X0X0X0X0X0X0Xz b 0X0X0X0X0X0X0X0X0X0X0Xc z c 0X0X0X0X0X0X0X0X0X0X0X0X0X0X0X0X0X0X0X0X0X0X",
"0X0X0X0X0X0X0X0X0X0X0X0X0X0X0X0X0X0X0X0X0X0X0X0X0X0X0X0X0X0X0X0X0X0X0X0X0X0X0X0X0X0X0X0X0X0X0X0X0X0X0X0X0X0X0X0X0X0X0X0X0X0X0X0X0X0X0X0X",
"0X0X0X0X0X0X0X0X0X0X0X0X0X0X0X0X0X0X0X0X0X0X0X0X0X0X0X0X0X0X0X0X0X0X0X0X0X0X0X0X0X0X0X0X0X0X0X0X0X0X0X0X0X0X0X0X0X0X0X0X0X0X0X0X0X0X0X0X",
"0X0X0X0X0X0X0X0X0X0X0X0X0X0X0X0X0X0X0X0X0X0X0X0X0X0X0X0X0X0X0X0X0X0X0X0X0X0X0X0X0X0X0X0X0X0X0X0X0X0X0X0X0X0X0X0X0X0X0X0X0X0X0X0X0X0X0X0X",
"0X0X0X0X0X0X0X0X0X0X0X0X0X0X0X0X0X0X0X0X0X0X0X0X0X0X0X0X0X0X0X0X0X0X0X0X0X0X0X0X0X0X0X0X0X0X0X0X0X0X0X0X0X0X0X0X0X0X0X0X0X0X0X0X0X0X0X0X",
"0X0X0X0X0X0X0X0X0X0X0X0X0X0X0X0X0X0X0X0X0X0X0X0X0X0X0X0X0X0X0X0X0X0X0X0X0X0X0X0X0X0X0X0X0X0X0X0X0X0X0X0X0X0X0X0X0X0X0X0X0X0X0X0X0X0X0X0X",
"0X0X0X0X0X0X0X0X0X0X0X0X0X0X0X0X0X0X0X0X0X0X0X0X0X0X0X0X0X0X0X0X0X0X0X0X0X0X0X0X0X0X0X0X0X0X0X0X0X0X0X0X0X0X0X0X0X0X0X0X0X0X0X0X0X0X0X0X",
"0X0X0X0X0X0X0X0X0X0X0X0X0X0X0X0X0X0X0X0X0X0X0X0X0X0X0X0X0X0X0X0X0X0X0X0X0X0X0X0X0X0X0X0X0X0X0X0X0X0X0X0X0X0X0X0X0X0X0X0X0X0X0X0X0X0X0X0X",
"0X0X0X0X0X0X0X0X0X0X0X0X0X0X0X0X0X0X0X0X0X0X0X0X0X0X0X0X0X0X0X0X0X0X0X0X0X0X0X0X0X0X0X0X0X0X0X0X0X0X0X0X0X0X0X0X0X0X0X0X0X0X0X0X0X0X0X0X",
"0X0X0X0X0X0X0X0X0X0X0X0X0X0X0X0X0X0X0X0X0X0X0X0X0X0X0X0X0X0X0X0X0X0X0X0X0X0X0X0X0X0X0X0X0X0X0X0X0X0X0X0X0X0X0X0X0X0X0X0X0X0X0X0X0X0X0X0X",
"0X0X0X0X0X0X0X0X0X0X0X0X0X0X0X0X0X0X0X0X0X0X0X0X0X0X0X0X0X0X0X0X0X0X0X0X0X0X0X0X0X0X0X0X0X0X0X0X0X0X0X0X0X0X0X0X0X0X0X0X0X0X0X0X0X0X0X0X"
};
