/* XPM */
static char *pr[] = {
/* columns rows colors chars-per-pixel */
"68 68 208 2 ",
"   c #030303",
".  c #0C0B0B",
"X  c #090706",
"o  c #120F0D",
"O  c #16110E",
"+  c #0F0F10",
"@  c #0D1218",
"#  c #151414",
"$  c #1A1514",
"%  c #1C1A16",
"&  c #161A1C",
"*  c #1B1B1C",
"=  c #1B1718",
"-  c #241A14",
";  c #2A1D13",
":  c #231D1B",
">  c #2A1D1E",
",  c #24190E",
"<  c #25211E",
"1  c #2B231C",
"2  c #2E2217",
"3  c #322317",
"4  c #32251C",
"5  c #3A261A",
"6  c #34291E",
"7  c #3B2A1D",
"8  c #151D23",
"9  c #1B1D22",
"0  c #141E2A",
"q  c #191E28",
"w  c #0C1B27",
"e  c #2A1E22",
"r  c #1C2124",
"t  c #17232B",
"y  c #1B242B",
"u  c #182327",
"i  c #1A2A34",
"p  c #142C39",
"a  c #232323",
"s  c #2A2522",
"d  c #2D2925",
"f  c #23262B",
"g  c #2B2B2B",
"h  c #28262B",
"j  c #342C24",
"k  c #3C2E24",
"l  c #352E29",
"z  c #3A2D29",
"x  c #3A2526",
"c  c #363127",
"v  c #3D3125",
"b  c #36312C",
"n  c #3B322C",
"m  c #222C31",
"M  c #293134",
"N  c #29373E",
"B  c #383834",
"V  c #432E1E",
"C  c #45311F",
"Z  c #4C371F",
"A  c #412F20",
"S  c #443324",
"D  c #4C3524",
"F  c #4C3825",
"G  c #423529",
"H  c #453829",
"J  c #4B3A2A",
"K  c #533B26",
"L  c #533C29",
"P  c #593E29",
"I  c #5A3F27",
"U  c #453C35",
"Y  c #523F31",
"T  c #603F2A",
"R  c #4F402E",
"E  c #55432F",
"W  c #5B422C",
"Q  c #5C4027",
"!  c #43413A",
"~  c #4B443C",
"^  c #5B4633",
"/  c #5A4D3D",
"(  c #554534",
")  c #64462D",
"_  c #6A472D",
"`  c #64492D",
"'  c #6A4B2E",
"]  c #764E2D",
"[  c #76502F",
"{  c #654A32",
"}  c #6D4D32",
"|  c #634732",
" . c #714E31",
".. c #6B5435",
"X. c #745233",
"o. c #7C5534",
"O. c #7D5935",
"+. c #7C5B3A",
"@. c #76593B",
"#. c #7F633E",
"$. c #4D4743",
"%. c #484745",
"&. c #534B41",
"*. c #5B554C",
"=. c #5D5749",
"-. c #5B5856",
";. c #625749",
":. c #665C4D",
">. c #67594A",
",. c #635E5A",
"<. c #656359",
"1. c #766B58",
"2. c #7A694E",
"3. c #766E65",
"4. c #787464",
"5. c #797676",
"6. c #6C6B6C",
"7. c #855D36",
"8. c #895E36",
"9. c #845C39",
"0. c #895E3A",
"q. c #8D6037",
"w. c #81653D",
"e. c #8C623B",
"r. c #93653C",
"t. c #99663B",
"y. c #9C6A3D",
"u. c #976538",
"i. c #A26D3D",
"p. c #A4713F",
"a. c #8B6944",
"s. c #916741",
"d. c #906B41",
"f. c #9C6C42",
"g. c #916F48",
"h. c #9C7245",
"j. c #987549",
"k. c #9B7550",
"l. c #A26E42",
"z. c #A57243",
"x. c #AD7643",
"c. c #AD7944",
"v. c #AC7748",
"b. c #A5794A",
"n. c #AC7B49",
"m. c #A77946",
"M. c #B07643",
"N. c #B27C45",
"B. c #B17D49",
"V. c #B07F52",
"C. c #827F72",
"Z. c #8D7C64",
"A. c #B4824B",
"S. c #BA864D",
"D. c #AC8352",
"F. c #B38954",
"G. c #89826E",
"H. c #8B8575",
"J. c #928B78",
"K. c #918A75",
"L. c #B99B75",
"P. c #B7A07D",
"I. c #8A8A8C",
"U. c #878483",
"Y. c #9E9985",
"T. c #939395",
"R. c #A39B85",
"E. c #A9A38D",
"W. c #A8A498",
"Q. c #B3AC95",
"!. c #B4AF9D",
"~. c #B6B099",
"^. c #BCB59B",
"/. c #BEB89E",
"(. c #A8A8A9",
"). c #BFB9A1",
"_. c #BCBBBD",
"`. c #B2B4B8",
"'. c #ABACB1",
"]. c #C5B99E",
"[. c #C8AC83",
"{. c #C4BDA1",
"}. c #CAC3A7",
"|. c #D4CCAC",
" X c #D0C7AC",
".X c #D7D0B3",
"XX c #DAD3B5",
"oX c #DED7BA",
"OX c #D8CFB0",
"+X c #E5DDBD",
"@X c #E9E1BF",
"#X c #BDC1C6",
"$X c #C3C2C2",
"%X c #CCC9CB",
"&X c #D0CFD1",
"*X c #CED1D5",
"=X c #D4D3D4",
"-X c #DEDBDE",
";X c #E0DEDF",
":X c #ECE5C3",
">X c #F5EDCB",
",X c #F4EBC9",
"<X c #FBF2CE",
"1X c #FCF3D0",
"2X c #E1DFE2",
"3X c #E3E2E3",
"4X c #E8E6E7",
"5X c None",
/* pixels */
"5X5X5X5X5X5X5X5X5X5X5X5X5X5X5X5X5X5X5X5X5X5X5X5X5X5X5X5X5X5X5X5X5X5X5X5X5X5X5X5X5X5X5X5X5X5X5X5X5X5X5X5X5X5X5X5X5X5X5X5X5X5X5X5X5X5X5X5X",
"5X5X5X5X5X5X5X5X5X5X5X5X5X5X5X5X5X5X5X5X5X5X5X5X5X5X5X5X5X5X5X5X5X5X5X5X5X5X5X5X5X5X5X5X5X5X5X5X5X5X5X5X5X5X5X5X5X5X5X5X5X5X5X5X5X5X5X5X",
"5X5X5X5X5X5X5X5X5X5X5X5X5X5X5X5X5X5X5X5X5X5X5X5X5X5X5X5X5X5X5X5X5X5X5X5X5X5X5X5X5X5X5X5X5X5X5X5X5X5X5X5X5X5X5X5X5X5X5X5X5X5X5X5X5X5X5X5X",
"5X5X5X5X5X5X5X5X5X5X5X5X5X5X5X5X5X5X5X5X5X5X5X5X5X5X5X5X5X5X5X5X5X5X5X5X5X5X5X5X5X5X5X5X5X5X5X5X5X5X5X5X5X5X5X5X5X5X5X5X5X5X5X5X5X5X5X5X",
"5X5X5X5X5X5X5X5X5X5X5X5X5X5X5X5X5X5X5X5X5X5X5X5X5X5X5X5X5X5X5X5X5X5X5X5X5X5X5X5X5X5X5X5X5X5X5X5X5X5X5X5X5X5X5X5X5X5X5X5X5X5X5X5X5X5X5X5X",
"5X5X5X5X5X5X5X5X5X5X5X5X5X5X5X5X5X5X5X5X5X5X5X5X5X5X5X5X5X5X5X5X5X5X5X5X5X5X5X5X5X5X5X5X5X5X5X5X5X5X5X5X5X5X5X5X5X5X5X5X5X5X5X5X5X5X5X5X",
"5X5X5X5X5X5X5X5X5X5X5X5X5X5X5X5X5X5X5X5X5X5X5X5X5X5X5X5X5X5X5X5X5X5X5X5X5X5X5X5X5X5X5X5X5X5X5X5X5X5X5X5X5X5X5X5X5X5X5X5X5X5X5X5X5X5X5X5X",
"5X5X5X5X5X5X5X5X5X5X5X5X5X5X5X5X5X5X5X5X5X5X5X5X5X5X5X5X5X5X5X5X5X5X5X5X5X5X5X5X5X5X5X5X5X5X5X5X5X5X5X5X5X5X5X5X5X5X5X5X5X5X5X5X5X5X5X5X",
"5X5X5X5X5X5X5X5X5X5X5X5X5X5X5X5X5X5X5X5X5X5X5X5X5X5X5X5X5X5X5X5X5X5X5X5X5X5X5X5X5X5X5X5X5X5X5X5X5X5X5X5X5X5X5X5X5X5X5X5X5X5X5X5X5X5X5X5X",
"5X5X5X5X5X5X5X5X5X5X5X5X5X5X5X5X5X5X5X5X5X5X5X5X5X5X5X5X5X5X5X5X5X5X5X5X5X5X5X5X5X5X5X5X5Xw @ 0 5X5X5X5X5X5X5X5X5X5X5X5X5X5X5X5X5X5X5X5X",
"5X5X5X5X5X5X5X5X5X5X5X5X5X5X5X5X5X5X5X5X5X5X5X5X5X5X5X5X5X5X5X5X5X5X5X5X5X5X5X5X5X5X5Xu < & . & 8 9 & & u 5X5X5X5X5X5X5X5X5X5X5X5X5X5X5X",
"5X5X5X5X5X5X5X5X5X5X5X5X5X5X5X5X5X5X5X5X5X5X5X5X5X5X5X5X5X5X5X5X5X5X5X5X5X5X5X5X5X5Xa z H $ < a < d s : a 8 5X5X5X5X5X5X5X5X5X5X5X5X5X5X",
"5X5X5X5X5X5X5X5X5X5X5X5X5X5X5X5X5X5X5X5X5X5X5X5X5X5X5X5X5X5X5X5X5X5X5X5X5X5X5X5X8 s J { v . s d < 1 s s d & 5X5X5X5X5X5X5X5X5X5X5X5X5X5X",
"5X5X5X5X5X5X5X5X5X5X5X5X5X5X5X5X5X5X5X5X5X5X5X5X5X5X5X5X5X5X5X5X5X5X5X5X5X5X5Xt 1 L o...- # l l < % : < < % t 5X5X5X5X5X5X5X5X5X5X5X5X5X",
"5X5X5X5X5X5X5X5X5X5X5X5X5X5X5X5X5X5X5X5X5X5X5X5X5X5X5X5X5X5X5X5X5X5X5X5X5X5Xt : E 9.e.Q O % l l < 1 v v v 6 l r 5X5X5X5X5X5X5X5X5X5X5X5X",
"5X5X5X5X5X5X5X5X5X5X5X5X5X5X5X5X5X5X5X5X5X5X5X5X5X5X5X5X5X5X5X5X5X5X5X5X5X5X* F +.e.X.2 o j c n 1 J w.j.g.#...H j g m 5X5X5X5X5X5X5X5X5X",
"5X5X5X5X5X5X5X5X5X5X5X5X5X5X5X5X5X5X5X5X5X5X5X5X5X5X5X5X5X5X5X5X5X5X5X5X5X0 3 2.e.0._ - # l n l < K e.N.A.A.S.S.h.@.n a u 5X5X5X5X5X5X5X",
"5X5X5X5X5X5X5X5X5X5X5X5X5X5X5X5X5X5X5X5X5X5X5X5X5X5X5X5X5X5X5X5X5X5X5X5Xt : } 9.9.0.Z o a n z a 2 ` y.c.c.p.p.A.A.A.b.@.v t 5X5X5X5X5X5X",
"5X5X5X5X5X5X5X5X5X5X5X5X5X5X5X5X5X5X5X5X5X5X5X5X5X5X5X5X5X5X5X5X5X5X5X5X9 k 9.9.0.9.5 o s z 1 4 ` s.x.x.x.x.c.y.e.y.m.m.d.R r 5X5X5X5X5X",
"5X5X5X5X5X5X5X5X5X5X5X5X5X5X5X5X5X5X5X5X5X5X5X5X5X5X5X5X5X5X5X5X5X5X5X5Xa W 9.0.0.9.; o d d 3 ` 0.l.x.x.x.m.7.I 2 5 O.p.m.d.E a 5X5X5X5X",
"5X5X5X5X5X5X5X5X5X5X5X5X5X5X5X5X5X5X5X5X5X5X5X5X5X5X5X5X5X5X5X5X5X5X5Xr j  .9.0.0.9.2 . s 1 K w.t.t.z.c.z.[ , ; , V o.z.m.n.d.H h 5X5X5X",
"5X5X5X5X5X5X5X5X5X5X5X5X5X5X5X5X5X5X5X5X5X5X5X5X5X5X5X5X5X5X5X5X5X5X5Xa z 9.0.0.0.o.5 o 1 6 e.y.t.t.i.x.q.; ; K o.0.y.x.x.x.n.O.z q 5X5X",
"5X5X5X5X5X5X5X5X5X5X5X5X5X5X5X5X5X5X5X5X5X5X5X5X5X5X5X5X5X5X5X5X5X5X5Xa D 0.0.0.0.o.S $ 1 Q l.x.z.z.x.x.r.5 ' h.x.M.c.c.c.v.c.z.K a 5X5X",
"5X5X5X5X5X5X5X5X5X5X5X5X5X5X5X5X5X5X5X5X5X5X5X5X5X5X5X5X5X5X5X5X5X5Xu a D 0.0.0.8.o.3 o 2 9.x.M.M.c.M.x.p.r.e.q.0.f.l.c.c.x.x.m.` g 5X5X",
"5X5X5X5X5X5X5X5X5X5X5X5X5X5X5X5X5X5X5X5X5X5X5X5X5X5X5X5X5X5X5X5X5X5Xa 5 K 0.0.0.9.9.D - D l.x.M.M.M.M.l.9.D 1 s 2 D +.l.M.x.M.s.S u 5X5X",
"5X5X5X5X5X5X5X5X5X5X5X5X5X5X5X5X5X5X5X5X5X5X5X5X5X5X5X5X5X5X5X5X5X5Xj K  .o.0.0.0.0.9.9.f.v.M.M.M.v.l.o.k %.(._.(.,.z _ v.x.c._ g 5X5X5X",
"5X5X5X5X5X5X5X5X5X5X5X5X5X5X5X5X5X5X5X5X5X5X5X5X5X5X5X5X5X5X5X5X5X5Xk ` 9.9.0.0.0.0.0.0.f.M.M.M.M.M.9.Y ,.%X-X2X-X$X5.J 9.c.f.k y 5X5X5X",
"5X5X5X5X5X5X5X5X5X5X5X5X5X5X5X5X5X5X5X5X5X5X5X5X5X5X5X5X5X5X5X5X5X5Xz } 0.9.o.9.0.0.0.r.f.x.M.M.M.x. .&.(.4XI.5.'.2X(.*.W b.a.g 5X5X5X5X",
"5X5X5X5X5X5X5X5X5X5X5X5X5X5X5X5X5X5X5X5X5X5X5X5X5X5X5X5X5X5X5X5X5Xq G  .0.9.] 9.0.0.0.r.f.x.x.M.M.l.{ -.*X'.@   g *X$X3.E L.2.M 5X5X5X5X",
"5X5X5X5X5X5X5X5X5X5X5X5X5X5X5X5X5X5X5X5X5X5X5X5X5X5X5X5X5X5X5X5X5Xe S ] 0.9.] o.9.0.0.8.y.c.M.M.M.t.{ ,.-XT.    @ `.$X5./ ].:.N 5X5X5X5X",
"5X5X5X5X5X5X5X5X5X5X5X5X5X5X5X5X5X5X5X5X5X5X5X5X5X5X5X5X5X5X5X5X5Xf D 9.9.9.] ] 7.0.0.0.t.c.M.M.c.l.) -.&X_.+   g #X`.1.:. XB 5X5X5X5X5X",
"5X5X5X5X5X5X5X5X5X5X5X5X5X5X5X5X5X5X5X5X5X5X5X5X5X5X5X5X5X5X5X5X5Xg P 9.9.9.9.9.8.0.0.0.f.x.x.x.x.z.{ %._.-XI.5.`.=XI.&.Z.{.M 5X5X5X5X5X",
"5X5X5X5X5X5X5X5X5X5Xy a 2 < < < y 5X5X5X5X5X5X5X5X5X5X5X5X5X5X5X5Xc { 0.8.7.7.9.O.q.9.e.p.z.i.z.x.i.{ -.&X4X2X-X-XT.$.^ E.].e 5X5X5X5X5X",
"5X5X5X5X5X5X5X5X5Xs E g.D.F.D.g...l u 5X5X5X5X5X5X5X5X5X5X5X5X5Xr H  .8.8.7.7.q.q.q.7.e.y.t.u.l.x.z.} U 5.U.-.-.! z P k.[.].a 5X5X5X5X5X",
"5X5X5X5X5X5X5X5Xs ..h.S.A.p.x.c.z.@.H r 5X5X5Xt 9 * * % % % & * % F X.7.9.q.q.7.7.7.q.r.z.l.z.x.x.x.0.P z k Y ^ ( ^ _ } 2.4.r 5X5X5X5X5X",
"5X5X5X5X5X5X5Xt R a.A.A.c.p.x.x.c.h.+.H & : j ( ..+.w.w.w.w.#.+.S V ` 9.7.q.q.7.q.7.q.r.x.x.c.c.c.M.z.s.+.} | F A H / ;.:.*.a u 5X5X5X5X",
"5X5X5X5X5X5X5Xu @.D.N.p.M.x.i.p.c.c.a.W 1 F +.h.b.A.c.A.B.B.v.n.o.F C K } w.7.7.q.7.7.u.z.z.x.v.c.y.q.X.` E ( ;.1.H.E.~.Q.Y.b r * 9 u 5X",
"p i 5X5X5X5X5Xa a.D.N.p.x.z.t.i.c.c.t.) K e.A.S.S.N.N.p.M.M.c.M.l.O.Q C C [ 7.q.7.7.q.q.p.c.B.z.0.' W / :.1.G.Q. X:X>X>X<XoX/ < . o . & ",
"i t y 5X5X5X5Xs h.S.p.p.i.y.t.t.i.z.e.9.r.z.N.N.M.M.c.c.v.M.c.M.c.x.e.Q 2 ' 7.7.7.q.7.q.t.i.z.9.^ / 4.Y.^..X,X<X<X<X<X1X<X:XG.j : .   # ",
"u a s y 5X5Xy H h.S.p.p.8.7.7.9.e.O.9.r.x.x.x.N.M.p.p.p.x.c.c.M.x.c.y.' 6 [ w.7.7.q.7.q.7.r.e.S =.E.:X<X<X<X<X<X1X<X<X<X<X<XXX*.d . # 8 ",
"u G J d r s a ..v.v.l.q.0.9.X.` ' F D O.c.p.N.M.p.i.i.p.N.M.M.x.x.v.l._ 5 X.9.q.7.7.7.7.7.7.I v R.@X<X<X1X>X1X1X1X1X<X<X<X1X1XQ.~ & 9 p ",
"t Y +.e.' ^ a.D.v.x.f.0.X.V e : : % v 9.c.c.N.x.i.q.u.p.M.M.x.c.x.M.l. .; 7 ` X.O.w.8.7.7.7.V ;.{.,X<X<X:X|.>X1X1X1X1X<X1X1X<X+X*.y 5X5X",
"i c } l.h.z.v.B.v.l.r.+.P e 5X5X5X& H 9.v.c.M.x.p.i.i.x.M.M.M.M.x.M.x.i.o.D 5 3 5 Z ' q.0.9.V :.^.@X>X@X.X,X1X1X>X,X,X<X<X<X<X~.%.5X5X5X",
"5Xa F e.z.x.i.l.l.t.8.{ j t 5X5X5X5Xl F _ y.x.N.M.p.p.c.N.p.N.M.x.x.x.x.l.r.7.[ Q C 7 Z } o.S / E.OX+X:X@X,X>X>X^.G.Y.oX<X>X}.-.M 5X5X5X",
"5X5Xd L 9.t.t.u.u.0. .v r 5X5X5X5X5X9 1 K i.x.M.N.M.x.c.p.M.x.x.c.x.M.M.M.p.c.r.q.' S - k S j j 4.Q.}.OX.X.X.X.XW.:.~ 4.K.J.-.M 5X5X5X5X",
"5X5Xr j J ` X.o.] ` H s 5X5X5X5X5X5X* j  .l.l.x.M.l.t.y.N.x.x.x.x.x.z.z.M.N.x.O...} S & 9 r a * ! 1.J.E.!.)./.).!.:.1 x n B y 5X5X5X5X5X",
"5X5X5X5X9 s S F H j a 5X5X5X5X5X5X5Xs F e.i.i.z.c.0.[ 8.x.p.M.M.x.i.t.i.M.M.x.[ Z 7 d 8 5X5X5X0 & s ! -.4.G.H.H.C.&.x x s t 5X5X5X5X5X5X",
"5X5X5X5X5Xi 0 8 q t 5X5X5X5X5X5X5X5Xx ) y.M.M.M.x.' K o.M.p.z.p.z.7.o.0.c.x.i.o.7 - % t 5X5X5X5X5X5Xw u 8 u a s f e > > u 5X5X5X5X5X5X5X",
"5X5X5X5X5X5X5X5X5X5X5X5X5X5X5X5X5X5Xk X.y.x.N.x.f.K S o.q.8.8.9.9.P A X.z.x.i.9.x - e 0 5X5X5X5X5X5X5X5X5X5X5X5X5Xh g g 5X5X5X5X5X5X5X5X",
"5X5X5X5X5X5X5X5X5X5X5X5X5X5X5X5X5X9 A o.z.x.x.y.` 5 7 K D C V 5 4 - 4 P y.x.x.s.v k l 8 5X5X5X5X5X5X5X5X5X5X5X5X5X5X5X5X5X5X5X5X5X5X5X5X",
"5X5X5X5X5X5X5X5X5X5X5X5X5X5X5X5X5Xa H 9.m.x.c.e.S - - 9 f f y f f y e S r.z.x.f.C S n 8 5X5X5X5X5X5X5X5X5X5X5X5X5X5X5X5X5X5X5X5X5X5X5X5X",
"5X5X5X5X5X5X5X5X5X5X5X5X5X5X5X5X5X9 j } f.x.m.) 7 6 a 0 5X5X5X5X5X5X5Xk  .y.x.h.H 1 s * 5X5X5X5X5X5X5X5X5X5X5X5X5X5X5X5X5X5X5X5X5X5X5X5X",
"5X5X5X5X5X5X5X5X5X5X5X5X5X5X5X5X5X9 a c Q X.X.7 1 s a 5X5X5X5X5X5X5X5Xh D 9.0.X.6 : < a 5X5X5X5X5X5X5X5X5X5X5X5X5X5X5X5X5X5X5X5X5X5X5X5X",
"5X5X5X5X5X5X5X5X5X5X5X5X5X5X5X5X5X8 a j j j j 1 d 9 8 5X5X5X5X5X5X5X5X5Xs F K k 1 s s a t 5X5X5X5X5X5X5X5X5X5X5X5X5X5X5X5X5X5X5X5X5X5X5X",
"5X5X5X5X5X5X5X5X5X5X5X5X5X5X5X5X5X5Xa b $   X > d e 5X5X5X5X5X5X5X5X5X5X* - 1 # $ a a r 5X5X5X5X5X5X5X5X5X5X5X5X5X5X5X5X5X5X5X5X5X5X5X5X",
"5X5X5X5X5X5X5X5X5X5X5X5X5X5X5X5X5X5Xu : .     & & * 5X5X5X5X5X5X5X5X5X5X5X* s X X * 9 5X5X5X5X5X5X5X5X5X5X5X5X5X5X5X5X5X5X5X5X5X5X5X5X5X",
"5X5X5X5X5X5X5X5X5X5X5X5X5X5X5X5X5X5X5X5X9 @ @ 5X5X5X5X5X5X5X5X5X5X5X5X5X5X5X8 + & 5X5X5X5X5X5X5X5X5X5X5X5X5X5X5X5X5X5X5X5X5X5X5X5X5X5X5X",
"5X5X5X5X5X5X5X5X5X5X5X5X5X5X5X5X5X5X5X5X5X5X5X5X5X5X5X5X5X5X5X5X5X5X5X5X5X5X5X5X5X5X5X5X5X5X5X5X5X5X5X5X5X5X5X5X5X5X5X5X5X5X5X5X5X5X5X5X",
"5X5X5X5X5X5X5X5X5X5X5X5X5X5X5X5X5X5X5X5X5X5X5X5X5X5X5X5X5X5X5X5X5X5X5X5X5X5X5X5X5X5X5X5X5X5X5X5X5X5X5X5X5X5X5X5X5X5X5X5X5X5X5X5X5X5X5X5X",
"5X5X5X5X5X5X5X5X5X5X5X5X5X5X5X5X5X5X5X5X5X5X5X5X5X5X5X5X5X5X5X5X5X5X5X5X5X5X5X5X5X5X5X5X5X5X5X5X5X5X5X5X5X5X5X5X5X5X5X5X5X5X5X5X5X5X5X5X",
"5X5X5X5X5X5X5X5X5X5X5X5X5X5X5X5X5X5X5X5X5X5X5X5X5X5X5X5X5X5X5X5X5X5X5X5X5X5X5X5X5X5X5X5X5X5X5X5X5X5X5X5X5X5X5X5X5X5X5X5X5X5X5X5X5X5X5X5X",
"5X5X5X5X5X5X5X5X5X5X5X5X5X5X5X5X5X5X5X5X5X5X5X5X5X5X5X5X5X5X5X5X5X5X5X5X5X5X5X5X5X5X5X5X5X5X5X5X5X5X5X5X5X5X5X5X5X5X5X5X5X5X5X5X5X5X5X5X",
"5X5X5X5X5X5X5X5X5X5X5X5X5X5X5X5X5X5X5X5X5X5X5X5X5X5X5X5X5X5X5X5X5X5X5X5X5X5X5X5X5X5X5X5X5X5X5X5X5X5X5X5X5X5X5X5X5X5X5X5X5X5X5X5X5X5X5X5X",
"5X5X5X5X5X5X5X5X5X5X5X5X5X5X5X5X5X5X5X5X5X5X5X5X5X5X5X5X5X5X5X5X5X5X5X5X5X5X5X5X5X5X5X5X5X5X5X5X5X5X5X5X5X5X5X5X5X5X5X5X5X5X5X5X5X5X5X5X",
"5X5X5X5X5X5X5X5X5X5X5X5X5X5X5X5X5X5X5X5X5X5X5X5X5X5X5X5X5X5X5X5X5X5X5X5X5X5X5X5X5X5X5X5X5X5X5X5X5X5X5X5X5X5X5X5X5X5X5X5X5X5X5X5X5X5X5X5X",
"5X5X5X5X5X5X5X5X5X5X5X5X5X5X5X5X5X5X5X5X5X5X5X5X5X5X5X5X5X5X5X5X5X5X5X5X5X5X5X5X5X5X5X5X5X5X5X5X5X5X5X5X5X5X5X5X5X5X5X5X5X5X5X5X5X5X5X5X",
"5X5X5X5X5X5X5X5X5X5X5X5X5X5X5X5X5X5X5X5X5X5X5X5X5X5X5X5X5X5X5X5X5X5X5X5X5X5X5X5X5X5X5X5X5X5X5X5X5X5X5X5X5X5X5X5X5X5X5X5X5X5X5X5X5X5X5X5X",
"5X5X5X5X5X5X5X5X5X5X5X5X5X5X5X5X5X5X5X5X5X5X5X5X5X5X5X5X5X5X5X5X5X5X5X5X5X5X5X5X5X5X5X5X5X5X5X5X5X5X5X5X5X5X5X5X5X5X5X5X5X5X5X5X5X5X5X5X"
};
