/* XPM */
static char *pu[] = {
/* columns rows colors chars-per-pixel */
"68 68 212 2 ",
"   c #0C0906",
".  c #0B0B0A",
"X  c #0C0708",
"o  c #120C0A",
"O  c #140C08",
"+  c #15120E",
"@  c #1D140D",
"#  c #1B1307",
"$  c #090E12",
"%  c #0C1216",
"&  c #0F1A1C",
"*  c #0E171E",
"=  c #151513",
"-  c #1B1513",
";  c #151915",
":  c #1D1913",
">  c #14161A",
",  c #181619",
"<  c #13191C",
"1  c #1A1B1B",
"2  c #22140D",
"3  c #24190E",
"4  c #2A1B0D",
"5  c #2D130E",
"6  c #211512",
"7  c #2D1316",
"8  c #231A13",
"9  c #2B1D13",
"0  c #231B1A",
"q  c #2D1E19",
"w  c #311C12",
"e  c #311C19",
"r  c #391C1A",
"t  c #2D2114",
"y  c #28221B",
"u  c #342315",
"i  c #3A2614",
"p  c #3E2B17",
"a  c #35251B",
"s  c #3A271B",
"d  c #3C2C1C",
"f  c #362A18",
"g  c #0F1C22",
"h  c #0E1722",
"j  c #141C23",
"k  c #131E2A",
"l  c #191E27",
"z  c #231F20",
"x  c #0E222C",
"c  c #132127",
"v  c #14222C",
"b  c #1B232C",
"n  c #1A282E",
"m  c #182125",
"M  c #0E2634",
"N  c #142533",
"B  c #1B2735",
"V  c #142A36",
"C  c #1B2A36",
"Z  c #152B3B",
"A  c #1B2A3C",
"S  c #132438",
"D  c #2D2622",
"F  c #242428",
"G  c #322A26",
"H  c #3A2D23",
"J  c #372925",
"K  c #38322D",
"L  c #202B34",
"P  c #23323F",
"I  c #3E3935",
"U  c #451E1A",
"Y  c #422C1C",
"T  c #402F17",
"R  c #45341E",
"E  c #4A311D",
"W  c #461F25",
"Q  c #432E22",
"!  c #472627",
"~  c #542322",
"^  c #5C2826",
"/  c #5F2A2C",
"(  c #5A2726",
")  c #443222",
"_  c #4A3522",
"`  c #4B3A25",
"'  c #4E3D28",
"]  c #473028",
"[  c #543623",
"{  c #533B24",
"}  c #533C2D",
"|  c #5A3E2B",
" . c #423C39",
".. c #423934",
"X. c #672B2B",
"o. c #6D2B2C",
"O. c #6B3237",
"+. c #763334",
"@. c #5E4326",
"#. c #56432D",
"$. c #5D442C",
"%. c #504126",
"&. c #5C4531",
"*. c #5C4A33",
"=. c #644326",
"-. c #62452D",
";. c #69462C",
":. c #63492E",
">. c #6B492C",
",. c #6F4823",
"<. c #724C2C",
"1. c #69502F",
"2. c #78522F",
"3. c #634634",
"4. c #644A33",
"5. c #6B4C34",
"6. c #6B4D39",
"7. c #724E33",
"8. c #6C5135",
"9. c #6C523A",
"0. c #655337",
"q. c #745335",
"w. c #7A5432",
"e. c #7E5A36",
"r. c #74553A",
"t. c #79553A",
"y. c #765A3C",
"u. c #7C5A3C",
"i. c #7F613B",
"p. c #1C2C42",
"a. c #1C3342",
"s. c #1F3D4E",
"d. c #213542",
"f. c #23374D",
"g. c #223B4A",
"h. c #283946",
"j. c #233C50",
"k. c #6F5844",
"l. c #765B41",
"z. c #7B5A41",
"x. c #785641",
"c. c #7E6441",
"v. c #972E2F",
"b. c #992F31",
"n. c #8A3737",
"m. c #953233",
"M. c #895B2F",
"N. c #855C36",
"B. c #895D35",
"V. c #855D3A",
"C. c #895D39",
"Z. c #876036",
"A. c #8F6035",
"S. c #86653E",
"D. c #8B613A",
"F. c #936235",
"G. c #94653A",
"H. c #9C6B3D",
"J. c #9C6A37",
"K. c #A16D3E",
"L. c #AB743E",
"P. c #B1783F",
"I. c #825D41",
"U. c #885F41",
"Y. c #866542",
"T. c #896642",
"R. c #8B6944",
"E. c #926641",
"W. c #926B45",
"Q. c #9C6C42",
"!. c #966C48",
"~. c #9B6F4B",
"^. c #9B7447",
"/. c #9B724D",
"(. c #947146",
"). c #9B7751",
"_. c #A26F43",
"`. c #A57344",
"'. c #AD7644",
"]. c #AD7944",
"[. c #A4754A",
"{. c #AB7648",
"}. c #A47B4E",
"|. c #AC794A",
" X c #A57942",
".X c #B07643",
"XX c #B27B44",
"oX c #B27D4A",
"OX c #B87F41",
"+X c #A57D52",
"@X c #A5814D",
"#X c #B48346",
"$X c #B4824C",
"%X c #BA844B",
"&X c #BD8C4D",
"*X c #A68155",
"=X c #AC8454",
"-X c #AB845B",
";X c #AC895A",
":X c #B68C53",
">X c #B2895D",
",X c #BC8C58",
"<X c #B6935A",
"1X c #BB9259",
"2X c #C28D4F",
"3X c #C5914F",
"4X c #C28E55",
"5X c #C69455",
"6X c #C3955C",
"7X c #C5995D",
"8X c #CA9353",
"9X c None",
/* pixels */
"9X9X9X9X9X9X9X9X9X9X9X9X9X9X9X9X9X9X9X9X9X9X9X9X9X9X9X9X9X9X9X9X9X9X9X9X9X9X9X9X9X9X9X9X9X9X9X9X9X9X9X9X9X9X9X9X9X9X9X9X9X9X9X9X9X9X9X9X",
"9X9X9X9X9X9X9X9X9X9X9X9X9X9X9X9X9X9X9X9X9X9X9X9X9X9X9X9X9X9X9X9X9X9X9X9X9X9X9X9X9X9X9X9X9X9X9X9X9X9X9X9X9X9X9X9X9X9X9X9X9X9X9X9X9X9X9X9X",
"9X9X9X9X9X9X9X9X9X9X9X9X9X9X9X9X9X9X9X9X9X9X9X9X9X9X9X9X9X9X9X9X9X9X9X9X9X9X9X9X9X9X9X9X9X9X9X9X9X9X9X9X9X9X9X9X9X9X9X9X9X9X9X9X9X9X9X9X",
"9X9X9X9X9X9X9X9X9X9X9X9X9XN k k Z 9X9X9X9X9X9X9X9X9X9X9X9X9X9X9X9X9X9X9X9X9X9X9X9X9X9X9X9X9X9X9X9X9X9Xk < k Z 9X9X9X9X9X9X9X9X9X9X9X9X9X",
"9X9X9X9X9X9X9X9X9X9X9X9XM = f d 6 j N 9X9X9X9X9X9X9X9X9X9X9X9X9X9X9X9X9X9X9X9X9X9X9X9X9X9X9X9X9X9XN j : Y s + N 9X9X9X9X9X9X9X9X9X9X9X9X",
"9X9X9X9X9X9X9X9X9X9X9X9X> ` !.}.R.R - h 9X9X9X9X9X9X9X9X9X9X9X9X9X9X9X9X9X9X9X9X9X9X9X9X9X9X9Xa.j : ` (. XG.[ > 9X9X9X9X9X9X9X9X9X9X9X9X",
"9X9X9X9X9X9X9X9X9X9X9Xb 3 t.C.K.].[.u.s = v 9X9X9X9X9X9X9X9X9X9X9X9X9X9X9X9X9X9X9X9X9X9X9X9Xc = f R.+X].H.N.u.- V 9X9X9X9X9X9X9X9X9X9X9X",
"9X9X9X9X9X9X9X9X9X9X9Xj u V.N.G.[.|.].+X8.3 < v 9X9X9X9X9X9X9X9X9X9X9X9X9X9X9X9X9X9X9X9XS < 4 8.>X].'.~.C.B.N.a k 9X9X9X9X9X9X9X9X9X9X9X",
"9X9X9X9X9X9X9X9X9X9X9X, ` C.C.B.F.'.|. XoX+X{ : j f.9X9X9X9X9X9X9X9X9X9X9X9X9X9X9X9X9Xj - { ;X:X.X.X`.A.N.B.N.` < 9X9X9X9X9X9X9X9X9X9X9X",
"9X9X9X9X9X9X9X9X9X9X9X= -.C.N.B.M.H.{.|.].].>XR.d = v * k k k k j g g j c b B N 9Xm = d R.6X#X].{.{.F.B.C.C.C.-.= 9X9X9X9X9X9X9X9X9X9X9X",
"9X9X9X9X9X9X9X9X9X9Xa.= 5.B.B.C.B.B.`.].].|.].&X>X8.@ X # t d ' #.#.#.#.} p t : ; 3 0.<X1X#X'..X.XH.B.B.C.N.V.6.: p.9X9X9X9X9X9X9X9X9X9X",
"9X9X9X9X9X9X9X9X9X9XV = r.B.C.B.C.C.B.`.]. XL.P.%X6X*Xc.;X1X7X5X5X5X5X5X6X5X6X<X^.=X5X&X.X.X{.{.`.B.B.N.N.,.N.r.8 Z 9X9X9X9X9X9X9X9X9X9X",
"9X9X9X9X9X9X9X9X9X9Xk 6 z.B.B.B.B.B.B.H.]. X].'..X%X4X4X4X2XOXoX#X#X#X#X#X&X2X3X5X5X#XP.].{..X{.F.A.B.B.w.,.N.t.8 c 9X9X9X9X9X9X9X9X9X9X",
"9X9X9X9X9X9X9X9X9X9XS 0 z.B.A.B.B.B.C.C.`. X'.].'.'.P.].'..X'.'.|.|.'. X].{.]. X].].].'.{..X{._.F.M.B.C.N.N.u.x.0 N 9X9X9X9X9X9X9X9X9X9X",
"9X9X9X9X9X9X9X9X9X9Xk , t.B.C.B.B.B.C.V.H.{..X].]..X].'..X'.'.{.'.'.'.'.].|.].].].P. X{..X{..X_.B.B.C.B.N.7.;.7.- N 9X9X9X9X9X9X9X9X9X9X",
"9X9X9X9X9X9X9X9X9X9XA - 7.B.B.B.N.B.C.C.H.]..XL.'.'.].'.{.'.'.'.'.'.'.'.{.].].'.].].]..X{..X'._.A.B.B.C.V.<.>.6.- B 9X9X9X9X9X9X9X9X9X9X",
"9X9X9X9X9X9X9X9X9X9X9X= 3.N.N.B.B.B.C.N.H.{.]..X.X].].].'..X'.'..X X`.H.'.P.]..X'.'..X{.'.'.'._.B.B.C.B.N.w.w.3., f.9X9X9X9X9X9X9X9X9X9X",
"9X9X9X9X9X9X9X9X9X9X9X, [ N.B.C.B.N.C.N.G.].].'..XL.]..X{.'.'.'.'.|.F.A.`.P..X.X'.'.'.'.'.'.'._.B.B.B.C.B.N.C.` > 9X9X9X9X9X9X9X9X9X9X9X",
"9X9X9X9X9X9X9X9X9X9X9Xj u Z.N.C.B.C.C.N.B.'.'.'.].'..X]..X.X{.H.C.C.`.L.]..X.X.X'.'.'.'.'..X.XH.B.B.C.B.N.B.C.u v 9X9X9X9X9X9X9X9X9X9X9X",
"9X9X9X9X9X9X9X9X9X9X9XN 2 V.C.Z.Z.B.B.A.B.H.].'..X].]..X'.'.{.H.w.N.H.].'.'..XL.'.'..X{..X{.{.F.M.B.C.C.C.V.V.6 v 9X9X9X9X9X9X9X9X9X9X9X",
"9X9X9X9X9X9X9X9X9X9X9XS = 6.Z.C.B.C.C.B.B.F.'.'.'.]..XL.'.'..X`.G.G.'..X].{.].].'.'.'.'..X'.`.M.B.B.C.C.B.B.>., Z 9X9X9X9X9X9X9X9X9X9X9X",
"9X9X9X9X9X9X9X9X9X9X9X9X< ) C.C.C.C.B.N.B.B.Q.{.'.'.'.].'..X'..X'.{..X'.].]..X'.'..X'..X{.{.H.B.B.B.B.C.C.N.) j 9X9X9X9X9X9X9X9X9X9X9X9X",
"9X9X9X9X9X9X9X9X9X9X9X9Xc 9 N.N.C.B.B.B.B.B.F.`.'.'.'.'..X'.'.'.]..X].].]..X'.'.'.'.'.'.]. XB.Z.B.B.B.C.N.N.7 j 9X9X9X9X9X9X9X9X9X9X9X9X",
"9X9X9X9X9X9X9X9X9X9X9X9Xd.= ;.V.B.B.B.B.B.B.B.A.`.'.'..X.X{..X{.].|..X.X].].P.'..XP..X{.L.F.M.N.B.B.B.N.C.| @ d.9X9X9X9X9X9X9X9X9X9X9X9X",
"9X9X9X9X9X9X9X9X9X9X9X9X9X< d V.F.C.B.B.B.N.B.M.A.H. X{..X.X.X.X{..X.X.X{.oX{..X].].].K.F.A.A.A.B.N.B.N.S.d < 9X9X9X9X9X9X9X9X9X9X9X9X9X",
"9X9X9X9X9X9X9X9X9X9X9X9X9Xv 8 r.C.C.A.B.B.B.B.M.B.M.A.H._.'.{.{..X.X{..X.X|..X{.|.H.F.B.A.M.M.B.B.B.B.B.q.8 V 9X9X9X9X9X9X9X9X9X9X9X9X9X",
"9X9X9X9X9X9X9X9X9X9X9X9X9Xb - $.N.B.N.N.B.N.B.N.N.B.B.B.C.C.V.z.t.7.>.7.u.T.G.F.B.B.Z.M.M.B.B.B.N.B.N.B.=.- L 9X9X9X9X9X9X9X9X9X9X9X9X9X",
"9X9X9X9X9X9X9X9X9X9X9X9X9X& q t.B.N.B.B.B.N.B.B.B.B.B.C.r.} u 6 6 @ @ @ 2 9 Q 4.N.Z.B.N.B.B.B.B.B.B.B.C.u.q c 9X9X9X9X9X9X9X9X9X9X9X9X9X",
"9X9X9X9X9X9X9X9X9X9X9X9Xs.; } S.B.A.A.N.N.C.N.w.N.N.V.| 0 2 5 U ( X.X.X.~ e - 6 R w.N.A.M.Z.M.B.N.N.A.N.V.#.= g.9X9X9X9X9X9X9X9X9X9X9X9X",
"9X9X9X9X9X9X9X9X9X9X9X9Xv 9 t.V.A.N.N.A.B.C.w.;.7.u.H @ 7 X.n.m.b.v.v.b.m.n.o.W = 8 8.C.Z.Z.A.Z.B.B.M.B.Z.y.8 v 9X9X9X9X9X9X9X9X9X9X9X9X",
"9X9X9X9X9X9X9X9X9X9X9X9X& ` V.B.M.N.C.N.A.B.N.q.r.] - r O.o.( ~ ~ ~ ~ ~ ~ ^ o.+.( 2 9 r.V.N.A.N.B.N.Z.B.B.V._ < 9X9X9X9X9X9X9X9X9X9X9X9X",
"9X9X9X9X9X9X9X9X9X9X9XV < 0.V.N.N.A.A.Z.Z.N.N.>.} - 0 J 7 @ # @ 6 = @ 2 6 - 7 7 W ! 6 R e.M.M.B.B.B.N.B.M.N.6.= s.9X9X9X9X9X9X9X9X9X9X9X",
"9X9X9X9X9X9X9X9X9X9X9XZ < _ e.Z.M.B.B.B.A.C.Z.8.u = - : Q x./.-X>X-X*X;X;X).i.d 2 @ = @ :.C.B.B.B.N.B.B.C.u.R = a.9X9X9X9X9X9X9X9X9X9X9X",
"9X9X9X9X9X9X9X9X9X9X9X9Xx : f 1.Z.C.B.C.C.Z.Z.5.2 - Q S.|..X{..XoX%X%X#X#X].#X=XW.d   . _ C.B.C.B.B.B.N.8.t   c 9X9X9X9X9X9X9X9X9X9X9X9X",
"9X9X9X9X9X9X9X9X9X9X9X9X9XV & : ` y.S.C.B.M.i.R @ %.}.{.oX.X.X'.{.'.L.]. XP.L. X].-XE + q u.N.B.C.C.6.a 2 % % 9X9X9X9X9X9X9X9X9X9X9X9X9X",
"9X9X9X9X9X9X9X9X9X9X9X9X9X9X9Xj : 4 ,.B.C.B.{ @ _ @XP.{..X{.{.'..X'.].L.P.P.]..XP. X:Xs X [ V.B.C.<.2 X j 9X9X9X9X9X9X9X9X9X9X9X9X9X9X9X",
"9X9X9X9X9X9X9X9X9X9X9X9X9X9X9Xg 0 *.V.C.B.t.8 u /.L.].'.{.'..X.X].].P.]. X.X].].].P. X^.2 @ r.B.C.V.3.: > 9X9X9X9X9X9X9X9X9X9X9X9X9X9X9X",
"9X9X9X9X9X9X9X9X9X9X9X9X9X9X9Xg H c.Z.C.B.] 2 q.|.'.{.'.'.{.'.{.`.].].{.].].].P.].P..X`.Y   ) C.C.C.z.- $ 9X9X9X9X9X9X9X9X9X9X9X9X9X9X9X",
"9X9X9X9X9X9X9X9X9X9X9X9X9X9X9Xx , q @.u.r.0 Y [.{.{.'.'.'.'.{..X{..X]..X].].].].'.]. X'.H.i : 8.x.| 2 $ V 9X9X9X9X9X9X9X9X9X9X9X9X9X9X9X",
"9X9X9X9X9X9X9X9X9X9X9X9X9X9X9X9XV k = q D @ x. X'.'.{. X.X{..X'.'..X].]..X].L.].'.'.'.'.].8.  + : - . k 9X9X9X9X9X9X9X9X9X9X9X9X9X9X9X9X",
"9X9X9X9X9X9X9X9X9X9X9X9X9X9X9X9X9X9Xp.l j 2 ~.{.'.'.].|.'.{.'..X.X{..X'.'.'.'.].].'.'.'.]./.O . $ d.9X9X9X9X9X9X9X9X9X9X9X9X9X9X9X9X9X9X",
"9X9X9X9X9X9X9X9X9X9X9X9X9X9X9X9X9X9X9X9Xk p .X.X{.].'.'.'.'.'..X'.`. X[. X].'.]. X`.'.'.].].p < 9X9X9X9X9X9X9X9X9X9X9X9X9X9X9X9X9X9X9X9X",
"9X9X9X9X9X9X9X9X9X9X9X9X9X9X9X9X9X9X9X9X> @..X.X'.'.'.'.'.'.|.N.` s r s @.!.|.'.'.'.'.'.].'.@., 9X9X9X9X9X9X9X9X9X9X9X9X9X9X9X9X9X9X9X9X",
"9X9X9X9X9X9X9X9X9X9X9X9X9X9X9X9X9X9X9X9X; t..X{.'.'..X'.L. X-.6 2 t f t @ q Y.{.L.].].L..X].q.= 9X9X9X9X9X9X9X9X9X9X9X9X9X9X9X9X9X9X9X9X",
"9X9X9X9X9X9X9X9X9X9X9X9X9X9X9X9X9X9X9Xf.- R.{..X'.`.F.`.H.5.- R }.1X7X:Xi.8 9 E.].].L..X.X.XR.- f.9X9X9X9X9X9X9X9X9X9X9X9X9X9X9X9X9X9X9X",
"9X9X9X9X9X9X9X9X9X9X9X9X9X9X9X9X9X9X9XA : !.P.{.'.].A.t.Y q 4 *X3X8X8X#X$Xl.@ [ |..X'.'..XP.W.8 A 9X9X9X9X9X9X9X9X9X9X9X9X9X9X9X9X9X9X9X",
"9X9X9X9X9X9X9X9X9X9X9X9X9X9X9X9X9X9X9Xk 0 ~..X'..X{.R.e +   $.].#X&X&XP.'.[.Y 2 H.].].'..XP.Q.8 p.9X9X9X9X9X9X9X9X9X9X9X9X9X9X9X9X9X9X9X",
"9X9X9X9X9X9X9X9X9X9X9X9X9X9X9X9X9X9X9XN 9 _.P.'..X~.u   .   t.{. X].P.L.].].q.6 =.'.L.'..XP.^.8 p.9X9X9X9X9X9X9X9X9X9X9X9X9X9X9X9X9X9X9X",
"9X9X9X9X9X9X9X9X9X9X9X9X9X9X9X9X9X9X9Xv 8 E.L.'.`.[ 2 @ + + S..X.X].].].]..XC.9 p A.F.K.`.L.W.0 p.9X9X9X9X9X9X9X9X9X9X9X9X9X9X9X9X9X9X9X",
"9X9X9X9X9X9X9X9X9X9X9X9X9X9X9X9X9X9X9XC 6 q.B.Z.V.2 p k.- @ V..X.X]..X.X.X.X!.a 9 e.A.B.B.A.t.= p.9X9X9X9X9X9X9X9X9X9X9X9X9X9X9X9X9X9X9X",
"9X9X9X9X9X9X9X9X9X9X9X9X9X9X9X9X9X9X9X9X= 4.w.q.5.- 4.;X8 : | ^.(. X.X].].P.E.d 8 r.Z.N.C.C.*., 9X9X9X9X9X9X9X9X9X9X9X9X9X9X9X9X9X9X9X9X",
"9X9X9X9X9X9X9X9X9X9X9X9X9X9X9X9X9X9X9X9X, ` u.e.| @ t.4Xe.3 + 4 E _.L.'.].L.Z.d 6 4.w.N.B.C.R 1 9X9X9X9X9X9X9X9X9X9X9X9X9X9X9X9X9X9X9X9X",
"9X9X9X9X9X9X9X9X9X9X9X9X9X9X9X9X9X9X9X9XB 4 5.7.| - 7..X5X+XS.W.|.'.L.'..XK.N.d 6 -.e.C.C.I.4 L 9X9X9X9X9X9X9X9X9X9X9X9X9X9X9X9X9X9X9X9X",
"9X9X9X9X9X9X9X9X9X9X9X9X9X9X9X9X9X9X9X9XC + ` r.3.+ { H..XoX#X.X'.'.L..X`.B.N.9 0 >.N.V.C.{ - v 9X9X9X9X9X9X9X9X9X9X9X9X9X9X9X9X9X9X9X9X",
"9X9X9X9X9X9X9X9X9X9X9X9X9X9X9X9X9X9X9X9X9X; 3 4.z.: p V.H.'.'..XXX.X].K.F.C.7.8 s V.C.V.>.3 , B 9X9X9X9X9X9X9X9X9X9X9X9X9X9X9X9X9X9X9X9X",
"9X9X9X9X9X9X9X9X9X9X9X9X9X9X9X9X9X9X9X9X9Xc = u z.a 6 4.Z.G.H._._.K.F.B.N.V.Y = *.Z.C.u.u @ , 9X9X9X9X9X9X9X9X9X9X9X9X9X9X9X9X9X9X9X9X9X",
"9X9X9X9X9X9X9X9X9X9X9X9X9X9X9X9X9X9X9X9X9Xv : $.V.6.6 3 5.I.N.B.B.C.C.N.u.p : y 6.N.N.U.3.a j 9X9X9X9X9X9X9X9X9X9X9X9X9X9X9X9X9X9X9X9X9X",
"9X9X9X9X9X9X9X9X9X9X9X9X9X9X9X9X9X9X9X9X9Xv : 9.C.z.q - 7 ] 3.u.z.V.5.{ t - = ; 2 ;.C.C.I.u m 9X9X9X9X9X9X9X9X9X9X9X9X9X9X9X9X9X9X9X9X9X",
"9X9X9X9X9X9X9X9X9X9X9X9X9X9X9X9X9X9X9X9X9X9X: $.U.V.9.' y 2 6 6 0 0 , - , 8 w Y $.u.C.C.t.7 B 9X9X9X9X9X9X9X9X9X9X9X9X9X9X9X9X9X9X9X9X9X",
"9X9X9X9X9X9X9X9X9X9X9X9X9X9X9X9X9X9X9X9X9X9X> ` S.V.V.V.V.5.J , l l B 1 7 x.V.U.C.N.C.C.5.6 d.9X9X9X9X9X9X9X9X9X9X9X9X9X9X9X9X9X9X9X9X9X",
"9X9X9X9X9X9X9X9X9X9X9X9X9X9X9X9X9X9X9X9X9X9Xk w 9.q.u.u.q.$.a j 9X9X9XN - r.C.B.B.C.C.C.| - 9X9X9X9X9X9X9X9X9X9X9X9X9X9X9X9X9X9X9X9X9X9X",
"9X9X9X9X9X9X9X9X9X9X9X9X9X9X9X9X9X9X9X9X9X9XF , + 2 9 6 + o - k 9X9X9X9X; %.C.N.V.V.C.N.Y j 9X9X9X9X9X9X9X9X9X9X9X9X9X9X9X9X9X9X9X9X9X9X",
"9X9X9X9X9X9X9X9X9X9X9X9X9X9X9X9X9X9X9X9X9X9X9Xj , 6 + - 0 0 1 n 9X9X9X9X< 2 2 ) &.$.{ H 6 l 9X9X9X9X9X9X9X9X9X9X9X9X9X9X9X9X9X9X9X9X9X9X",
"9X9X9X9X9X9X9X9X9X9X9X9X9X9X9X9X9X9X9X9X9X9X9Xj , K .... .F , 9X9X9X9X9Xb - =   o X O # , 9X9X9X9X9X9X9X9X9X9X9X9X9X9X9X9X9X9X9X9X9X9X9X",
"9X9X9X9X9X9X9X9X9X9X9X9X9X9X9X9X9X9X9X9X9X9X9X9Xj 1 G G y ; m 9X9X9X9X9XA 1 D K D G G : j 9X9X9X9X9X9X9X9X9X9X9X9X9X9X9X9X9X9X9X9X9X9X9X",
"9X9X9X9X9X9X9X9X9X9X9X9X9X9X9X9X9X9X9X9X9X9X9X9X9Xc > , & v 9X9X9X9X9X9X9X1 : K  .I D = n 9X9X9X9X9X9X9X9X9X9X9X9X9X9X9X9X9X9X9X9X9X9X9X",
"9X9X9X9X9X9X9X9X9X9X9X9X9X9X9X9X9X9X9X9X9X9X9X9X9X9X9X9X9X9X9X9X9X9X9X9X9X9X, : 1 1 , n 9X9X9X9X9X9X9X9X9X9X9X9X9X9X9X9X9X9X9X9X9X9X9X9X",
"9X9X9X9X9X9X9X9X9X9X9X9X9X9X9X9X9X9X9X9X9X9X9X9X9X9X9X9X9X9X9X9X9X9X9X9X9X9X9XZ c n h.9X9X9X9X9X9X9X9X9X9X9X9X9X9X9X9X9X9X9X9X9X9X9X9X9X"
};
