/* XPM */
static char *wall[] = {
/* columns rows colors chars-per-pixel */
"70 70 33 1 ",
"  c #0F0F0F",
". c #0F100F",
"X c #10110F",
"o c #0F0F10",
"O c #0F1011",
"+ c #131415",
"@ c #161817",
"# c #151618",
"$ c #17191A",
"% c #191B1E",
"& c #171D23",
"* c #1B1E22",
"= c #191F28",
"- c #162025",
"; c #1D2125",
": c #17222A",
"> c #1D242C",
", c #1E282F",
"< c #1E2730",
"1 c #1E2932",
"2 c #202326",
"3 c #21262D",
"4 c #21282E",
"5 c #212730",
"6 c #222B33",
"7 c #292E34",
"8 c #242F38",
"9 c #263037",
"0 c #283037",
"q c #26313A",
"w c #29333D",
"e c #2C3640",
"r c #2E3841",
/* pixels */
"OO++OoO##&=;*&*&&&***===>=>3:>>:><161<:<1qweq81::11111111111181we1e1<1",
"+O..ooO$##*>=&*&&**==&===:>3:>>><5561><:18qq8q1:11111111111188qe8ee11e",
"++ Oooo#+#-;=&=&&**==&====>>>>:>56666,>::8qqq8::1111111181118qwee1ee8e",
"   +ooo###=;*&&&&***=====>>>>>::<566611<8qqwq81111111:888188818weeeeee",
"+    oo&##=>=&&&&&&===*>>>>>:=>>><<169918qqq81118::8:111811881818ee18e",
"+ +  o+$O#=>>&&&&*==:=**=3>>>=:>>::1999<1qqq81118118811111188881<ee1ee",
"  ++ ++#O#;<;=&&&**=:-==;>3>;>>1<::8qq<:18qqq8<:181111188811ww81681eee",
" ++ X  #O#2>>&&&***==;*>>>>>>516,>11qe1:1qqqwq11111111118881weq88e1e8<",
"+++ . +##&&==*&&&====>>*;:<<>565>:11881<18eee81:8111111888818qe18e1888",
"+++++++###&===&&&=*==:;-;:<<>>5<><1181111eeeeq<<11,,8,88811118q18e816e",
"#+  +X ###&=2=*&&*&&&>:=<::=:::=,1118818111e881181,1,1188811q88188w8<<",
" X+    ##&&===**=*&&&->><::==<<>311118868181e811988,1188w811881qwe88e8",
"++X    ++%=:;;>>>&&&&&==<:::=:>551>19ew6181e1118881111888111111we8weee",
"#X     ++%=:33><>&=:=&===<<::>;51>>1wew911111181,11111111111118w88eeee",
"@+X++  +#%=**;>>>:-><>*==:>*=:335>:59www811eee11,88,11111111qwwew11w8<",
"@++++ +#%&***;;;-::>>>>;=>>;>;=>5<<<8wew81eee111,88,111811188888888ee8",
"@+++  +#%%**-;;;;&->>:;-&<>;;->>55<>6weee1qeq91118,,6199111q1111881eee",
"++X + +$#%%-->;;&-;;:;;;>11>;>>>>>><8wweq11q99111111q11q1119qqqq611eee",
"#++++++$%%**-;;--;---::;>>,>3;:>>>=><68w111eqq61,818966911118eqq88weee",
"#++++##%%%****;--;;->>::-,>>3;>>:=>>>18w11qqqq91111161196999eq888wweee",
"+++O+#+%%%****2*;-;>,,>:;>>>5;>>>>>><1w811889w91,,119,1611qeee88w88wee",
"+O.O###$&*&%%****-*:>,9,;>,,3=*>3>>5><8881189911,11111,981111qq8w96ew6",
"++++#++$%******2-=**->>>;5653;=;3>=<<<6888119696,81,91,181118qe887qw88",
"++#++#+$%%****%22*;;-;>>;79>3<>;;;=>566wq811119611,811,,89q18qq8870qqw",
"+++#$++$%%%*%*****2=>>;>;77>>;:>3233><6q9664>665,166666611619ww981889w",
"++++#$#%%%%*22*22*2*;;;>-34>>>>>33555557666,>66,>6666111116119qq996ww9",
"+#+O#++%%%%*2*****%%*;2>3>>>>3>>>356656661611661>1666611118119e19w9986",
"O#$$$+#%%%%***2*%****2333;;>>>3;3566666611611866,,567666198<1qe99wq666",
"o#%#$#@*%%2%222******233;;343>>2347665,51161161166976556:6851697666999",
"o&%#%#@2222*%%%2*2**=23>;;>>3,;-236611>1,6666166,1676556566518w667669q",
"#%&#$##%222%*%%*22**%22;;;;>2,;-;3675154,6666166,1196667666569w676669q",
"#$%%%#+$%22222$%*2*%%232%;;;>;;;>,6q6,6116116665>>165668666566w865669q",
"+#####++%*%222%*2*%%%*22**;;;;>;;377>35,16666665,3566666156616wq616669",
"+##+##+%*%*2222222%%%;22;;;;*;=;;374334515666665>3565661>69616ww966666",
"$$#+%#+%%***222*22*%%222-;;;*;;=;3733>35518666665>>56661>566,6q9996666",
"$+++%%$%%**;22***22;%;22;;;2*===;-;;->45,>1616995>566665666919w6666971",
"+@##%$$***%%2**%223323322;;;*==*&&;*;>44<47667985335561666661999666666",
"+#$#$%%2*****22**23337322;;;*22*&*;;344566w866875>55667666671699766666",
"++++@$$2%%22222222222222;;;;***&;;;>,4435787661<53>>6w8566995,14556666",
"#$#+@@$%%%*2*2%*%2=*;2;-;;;%***&3732>455<59868115:>566551666,>66558666",
"#$###@#$%%%%2%%***=%%%=*2*%%**&*;32;25553576661,5>>469516666>>55567666",
"#$#+##@$%%%%%*%%%2%%%%%**%**%%&*%%>;:<33556666>;>51>69969645,>>6556666",
"$#+#$$@%%%%%%%%*22$%*%*2*%%******;3-=;33>187651>,51<666111,65>>6558667",
"$$##$@#%%%%%%%**%2%%*%%*%*&%&**2*35;=35>>5865651>611566565<5551566768w",
"@$$+@$@%%%%%%%*%%%%**%%&%*%%&&*223>;->7>>586666515,>15655551656568757w",
"@@@@$$@%%$%%%%%%%*2*%%%%%%%%%&&*;;;;;23115667665165>>666<<<5655666670w",
"@@@@##@$@$%%%%%%**%%%%&%**%%%**%%;%;;;>,16666811,511566655567666666670",
"+@@@+#@@##%*%%%%%2*%%%%*&%**%%&$;;;;;;>>>6668861,511565566516766678660",
"+@@@@@$@@$%%%%%%%22%%%%**%*2$*&**22=;3>>,5496765,51145666651665667w678",
"@@@+$%%%%%%%%%$2222%%%*2**%2**$*%%%*;>>>,66999651>154664466661>4567566",
"$$$+2%%%%%$%%%%%%22%%%%%**22**%%****=;3;>4>66651,>45566,54166156566776",
"$$$$%%222$@%%2%%%222*%%2****%*2*22=*=;2>>>;>44>>,>,464665,>66666656877",
"%%$@$%22%$+%%%*%%%%%%%%%*22%***%222%-22;*>*>4,>3,>>>44665>>66661566900",
"%$%%%2%2%$222%22%*2%%*22*22%%**%%%%***;;-=;33>>43>>,,44676666651666770",
"$$%%22%2%%*2%2%%%%%**222****%**%%%%%**&;>>>54>553>45,46691667665775777",
"$$$%222$$$%%22%%%%%%%2**2***22****%&&*&*>5551,55>456666699617765774477",
"@$%%22%$$%%22%%%*%22%%*%%%*%%*******%%**225553566665>55775357555753773",
"%%$@%%2$%2$2%%%2***%%%%%%*%%%%**;*%******23553<56165535541357675543477",
"%$@@%%2%22%22%%%*;*%%%$%%***%***2%%=**2**=255<><6166533333>54654333340",
"@@@@2*$%%2%%%2%%%%%%%@$$$%%%2%%*;2*;=*2*&==35<:<5>565>3533354333432350",
"@@@@%%%%%22*2*%%%%%%%@###******22**222**==355,,,15556333554433>->3>347",
"@@$$$$%%%%%%%2%%%%%%%@$$%%*****%%**2*%2**;35>,1>>>5554333333333>23>4,6",
"@@$%$$%%%%%%%2%%%%%%%#%%$%%****%%*2***%**=332>5,;15553333>>3333332>346",
"@@@@@@@$%%%%%%%%$%$@@@@#$%%%%%2%**%%2*%***2;;>,43>46333>3>345553>>>340",
"@@@@@@@+@+@**%%@$%$%$%@$$%%%%%%%2%%%%%*2**22;3353=5573555,>3,54>>33457",
"@@@@@@ @@@+%*%%@$$$%%$$$%%%%%%%%%%%2%2*22%2*;=3==5557547444>,44>334477",
"@@@@@@@@@@@@$%$$$%$@$@$%$%%%%$$%%22%2*%%**%**;2555555555;>3>>463333465",
"@@@@@@@@@@@@@$@@$%$$%%$$%$$$%%%%%%%%%2%22*%%*;25>5554443>33,,443333464",
"@@@@@@@$@@@@@@%$$%$%%$$@$$$$%%%%%%%%22%22%%%%222>>5555543333,443333443",
"@@@@@@$%$@@@@$%$$%%%%$@@@@$%%%%%%%%22222%%22%**2>>3434524>>33343333444"
};
